%TF.GenerationSoftware,KiCad,Pcbnew,9.0.4*%
%TF.CreationDate,2025-10-20T22:53:34-05:00*%
%TF.ProjectId,PCB,5043422e-6b69-4636-9164-5f7063625858,rev?*%
%TF.SameCoordinates,Original*%
%TF.FileFunction,Copper,L1,Top*%
%TF.FilePolarity,Positive*%
%FSLAX46Y46*%
G04 Gerber Fmt 4.6, Leading zero omitted, Abs format (unit mm)*
G04 Created by KiCad (PCBNEW 9.0.4) date 2025-10-20 22:53:34*
%MOMM*%
%LPD*%
G01*
G04 APERTURE LIST*
%TA.AperFunction,SMDPad,CuDef*%
%ADD10R,1.210000X1.700000*%
%TD*%
%TA.AperFunction,ComponentPad*%
%ADD11C,1.800000*%
%TD*%
%TA.AperFunction,ComponentPad*%
%ADD12R,2.000000X2.500000*%
%TD*%
%TA.AperFunction,ComponentPad*%
%ADD13O,2.000000X2.500000*%
%TD*%
%TA.AperFunction,ComponentPad*%
%ADD14C,2.000000*%
%TD*%
%TA.AperFunction,ComponentPad*%
%ADD15R,1.700000X1.700000*%
%TD*%
%TA.AperFunction,ComponentPad*%
%ADD16C,1.700000*%
%TD*%
%TA.AperFunction,ComponentPad*%
%ADD17R,1.570000X1.570000*%
%TD*%
%TA.AperFunction,ComponentPad*%
%ADD18C,1.570000*%
%TD*%
%TA.AperFunction,ComponentPad*%
%ADD19C,1.520000*%
%TD*%
%TA.AperFunction,SMDPad,CuDef*%
%ADD20R,1.700000X1.210000*%
%TD*%
%TA.AperFunction,ViaPad*%
%ADD21C,1.300000*%
%TD*%
%TA.AperFunction,ViaPad*%
%ADD22C,4.000000*%
%TD*%
%TA.AperFunction,Conductor*%
%ADD23C,0.400000*%
%TD*%
%TA.AperFunction,Conductor*%
%ADD24C,5.000000*%
%TD*%
%TA.AperFunction,Conductor*%
%ADD25C,1.500000*%
%TD*%
G04 APERTURE END LIST*
D10*
%TO.P,R13,2,2*%
%TO.N,Net-(P10-Pad2)*%
X247142000Y-101092000D03*
%TO.P,R13,1,1*%
%TO.N,Net-(Bluetooth1-Tx)*%
X250102000Y-101092000D03*
%TD*%
D11*
%TO.P,D9,1,C*%
%TO.N,+12V*%
X245476000Y-49682400D03*
%TO.P,D9,2,A*%
%TO.N,Net-(D9-A)*%
X236776000Y-49682400D03*
%TD*%
%TO.P,D8,1,C*%
%TO.N,+12V*%
X224038400Y-49682400D03*
%TO.P,D8,2,A*%
%TO.N,Net-(D8-A)*%
X215338400Y-49682400D03*
%TD*%
%TO.P,D7,1,C*%
%TO.N,+12V*%
X201400400Y-49479200D03*
%TO.P,D7,2,A*%
%TO.N,Net-(D7-A)*%
X192700400Y-49479200D03*
%TD*%
%TO.P,D6,1,C*%
%TO.N,+12V*%
X179010800Y-49479200D03*
%TO.P,D6,2,A*%
%TO.N,Net-(D6-A)*%
X170310800Y-49479200D03*
%TD*%
%TO.P,D5,1,C*%
%TO.N,+12V*%
X156830000Y-49580800D03*
%TO.P,D5,2,A*%
%TO.N,Net-(D5-A)*%
X148130000Y-49580800D03*
%TD*%
%TO.P,D4,1,C*%
%TO.N,+12V*%
X135240000Y-49580800D03*
%TO.P,D4,2,A*%
%TO.N,Net-(D4-A)*%
X126540000Y-49580800D03*
%TD*%
%TO.P,D3,1,C*%
%TO.N,+12V*%
X113986800Y-49479200D03*
%TO.P,D3,2,A*%
%TO.N,Net-(D3-A)*%
X105286800Y-49479200D03*
%TD*%
%TO.P,D2,1,C*%
%TO.N,+12V*%
X91196400Y-49631600D03*
%TO.P,D2,2,A*%
%TO.N,Net-(D2-A)*%
X82496400Y-49631600D03*
%TD*%
%TO.P,D1,1,C*%
%TO.N,+12V*%
X70603600Y-49530000D03*
%TO.P,D1,2,A*%
%TO.N,Net-(D1-A)*%
X61903600Y-49530000D03*
%TD*%
D12*
%TO.P,Q1,1,G*%
%TO.N,Net-(Q1-G)*%
X59414400Y-54610000D03*
D13*
%TO.P,Q1,2,D*%
%TO.N,Net-(D1-A)*%
X61954400Y-54610000D03*
%TO.P,Q1,3,S*%
%TO.N,GND*%
X64494400Y-54610000D03*
%TD*%
D12*
%TO.P,Q9,1,G*%
%TO.N,Net-(Q9-G)*%
X234217200Y-55016400D03*
D13*
%TO.P,Q9,2,D*%
%TO.N,Net-(D9-A)*%
X236757200Y-55016400D03*
%TO.P,Q9,3,S*%
%TO.N,GND*%
X239297200Y-55016400D03*
%TD*%
D12*
%TO.P,Q5,1,G*%
%TO.N,Net-(Q5-G)*%
X145520400Y-54813200D03*
D13*
%TO.P,Q5,2,D*%
%TO.N,Net-(D5-A)*%
X148060400Y-54813200D03*
%TO.P,Q5,3,S*%
%TO.N,GND*%
X150600400Y-54813200D03*
%TD*%
D14*
%TO.P,Fuente,1,1*%
%TO.N,GND*%
X256747000Y-65328800D03*
%TO.P,Fuente,2,2*%
%TO.N,+12V*%
X256747000Y-60328800D03*
%TD*%
D15*
%TO.P,P9,1,1*%
%TO.N,Net-(P9-Pad1)*%
X181508400Y-97180400D03*
D16*
%TO.P,P9,2,2*%
%TO.N,Net-(P9-Pad2)*%
X178968400Y-97180400D03*
%TD*%
D14*
%TO.P,P4,1,1*%
%TO.N,Net-(D7-A)*%
X85789600Y-83820200D03*
%TO.P,P4,2,2*%
%TO.N,Net-(D8-A)*%
X90789600Y-83820200D03*
%TD*%
D17*
%TO.P,P7,1,1*%
%TO.N,Net-(P7-Pad1)*%
X39817600Y-56590400D03*
D18*
%TO.P,P7,2,2*%
%TO.N,Net-(P7-Pad2)*%
X39817600Y-59130400D03*
%TO.P,P7,3,3*%
%TO.N,Net-(P7-Pad3)*%
X39817600Y-61670400D03*
%TD*%
D14*
%TO.P,P3,1,1*%
%TO.N,Net-(D5-A)*%
X71789200Y-83819800D03*
%TO.P,P3,2,2*%
%TO.N,Net-(D6-A)*%
X76789200Y-83819800D03*
%TD*%
D10*
%TO.P,R2,1,1*%
%TO.N,Net-(P6-Pad2)*%
X76977600Y-49530000D03*
%TO.P,R2,2,2*%
%TO.N,Net-(Q2-G)*%
X79937600Y-49530000D03*
%TD*%
D15*
%TO.P,P10,1,1*%
%TO.N,Net-(Bluetooth1-Rx)*%
X168960800Y-97282000D03*
D16*
%TO.P,P10,2,2*%
%TO.N,Net-(P10-Pad2)*%
X171500800Y-97282000D03*
%TD*%
D19*
%TO.P,U1,1,VCC*%
%TO.N,Net-(Bluetooth1-Vcc)*%
X201117200Y-76860400D03*
%TO.P,U1,2,Rx*%
%TO.N,Net-(U1-Rx)*%
X201117200Y-79400400D03*
%TO.P,U1,3,Tx*%
%TO.N,Net-(U1-Tx)*%
X201117200Y-81940400D03*
%TO.P,U1,4,DACR*%
%TO.N,Net-(P12-R)*%
X201117200Y-84480400D03*
%TO.P,U1,5,DACL*%
%TO.N,Net-(P12-L)*%
X201117200Y-87020400D03*
%TO.P,U1,6,SPK2*%
%TO.N,unconnected-(U1-SPK2-Pad6)*%
X201117200Y-89560400D03*
%TO.P,U1,7,GND*%
%TO.N,Net-(Bluetooth1-GND)*%
X201117200Y-92100400D03*
%TO.P,U1,8,SPK1*%
%TO.N,unconnected-(U1-SPK1-Pad8)*%
X201117200Y-94640400D03*
%TD*%
D14*
%TO.P,5V,1,1*%
%TO.N,Net-(Bluetooth1-GND)*%
X256844800Y-81860400D03*
%TO.P,5V,2,2*%
%TO.N,Net-(Bluetooth1-Vcc)*%
X256844800Y-76860400D03*
%TD*%
%TO.P,P1,1,1*%
%TO.N,Net-(D1-A)*%
X43789200Y-83819800D03*
%TO.P,P1,2,2*%
%TO.N,Net-(D2-A)*%
X48789200Y-83819800D03*
%TD*%
D10*
%TO.P,R8,1,1*%
%TO.N,Net-(P8-Pad2)*%
X209819600Y-49530000D03*
%TO.P,R8,2,2*%
%TO.N,Net-(Q8-G)*%
X212779600Y-49530000D03*
%TD*%
D14*
%TO.P,P2,1,1*%
%TO.N,Net-(D3-A)*%
X57788800Y-83820000D03*
%TO.P,P2,2,2*%
%TO.N,Net-(D4-A)*%
X62788800Y-83820000D03*
%TD*%
D12*
%TO.P,Q7,1,G*%
%TO.N,Net-(Q7-G)*%
X190122800Y-54914800D03*
D13*
%TO.P,Q7,2,D*%
%TO.N,Net-(D7-A)*%
X192662800Y-54914800D03*
%TO.P,Q7,3,S*%
%TO.N,GND*%
X195202800Y-54914800D03*
%TD*%
D14*
%TO.P,Add5,1,1*%
%TO.N,Net-(Bluetooth1-Vcc)*%
X141790600Y-83819600D03*
%TO.P,Add5,2,2*%
%TO.N,Net-(Bluetooth1-GND)*%
X146790600Y-83819600D03*
%TD*%
D10*
%TO.P,R3,1,1*%
%TO.N,Net-(P6-Pad1)*%
X99698800Y-49428400D03*
%TO.P,R3,2,2*%
%TO.N,Net-(Q3-G)*%
X102658800Y-49428400D03*
%TD*%
%TO.P,R10,1,1*%
%TO.N,Net-(P9-Pad2)*%
X189622800Y-92405200D03*
%TO.P,R10,2,2*%
%TO.N,Net-(U1-Rx)*%
X192582800Y-92405200D03*
%TD*%
D19*
%TO.P,U2,1*%
%TO.N,N/C*%
X218757400Y-94640200D03*
%TO.P,U2,2*%
X218757400Y-92100200D03*
%TO.P,U2,3*%
X218757400Y-89560200D03*
%TO.P,U2,4*%
X218757400Y-87020200D03*
%TO.P,U2,5*%
X218757400Y-84480200D03*
%TO.P,U2,6*%
X218757400Y-81940200D03*
%TO.P,U2,7*%
X218757400Y-79400200D03*
%TO.P,U2,8*%
X218757400Y-76860200D03*
%TD*%
D10*
%TO.P,R9,1,1*%
%TO.N,Net-(P8-Pad1)*%
X231308000Y-49530000D03*
%TO.P,R9,2,2*%
%TO.N,Net-(Q9-G)*%
X234268000Y-49530000D03*
%TD*%
D15*
%TO.P,R14,1,+*%
%TO.N,unconnected-(R14-+-Pad1)*%
X162916000Y-74306600D03*
D16*
%TO.P,R14,2,-*%
%TO.N,unconnected-(R14---Pad2)*%
X162916000Y-76846600D03*
%TD*%
D17*
%TO.P,P12,1,R*%
%TO.N,Net-(P12-R)*%
X181915400Y-84927000D03*
D18*
%TO.P,P12,2,GND*%
%TO.N,Net-(Bluetooth1-GND)*%
X181915400Y-87467000D03*
%TO.P,P12,3,L*%
%TO.N,Net-(P12-L)*%
X181915400Y-90007000D03*
%TD*%
D15*
%TO.P,P13,1,-*%
%TO.N,Net-(P13--)*%
X162915600Y-89306400D03*
D16*
%TO.P,P13,2,+*%
%TO.N,Net-(P13-+)*%
X162915600Y-86766400D03*
%TD*%
D17*
%TO.P,P6,1,1*%
%TO.N,Net-(P6-Pad1)*%
X39817400Y-65670600D03*
D18*
%TO.P,P6,2,2*%
%TO.N,Net-(P6-Pad2)*%
X39817400Y-68210600D03*
%TO.P,P6,3,3*%
%TO.N,Net-(P6-Pad3)*%
X39817400Y-70750600D03*
%TD*%
D14*
%TO.P,Add12,1,1*%
%TO.N,+12V*%
X127790400Y-83819200D03*
%TO.P,Add12,2,2*%
%TO.N,GND*%
X132790400Y-83819200D03*
%TD*%
D10*
%TO.P,R11,1,1*%
%TO.N,Net-(P9-Pad1)*%
X189622800Y-97180400D03*
%TO.P,R11,2,2*%
%TO.N,Net-(U1-Tx)*%
X192582800Y-97180400D03*
%TD*%
D15*
%TO.P,P11,1,-*%
%TO.N,Net-(Bluetooth1-GND)*%
X181915800Y-74306600D03*
D16*
%TO.P,P11,2,+*%
%TO.N,Net-(Bluetooth1-Vcc)*%
X181915800Y-76846600D03*
%TD*%
D20*
%TO.P,R12,1,1*%
%TO.N,Net-(Bluetooth1-Tx)*%
X249472000Y-94748800D03*
%TO.P,R12,2,2*%
%TO.N,Net-(Bluetooth1-GND)*%
X249472000Y-91788800D03*
%TD*%
D12*
%TO.P,Q4,1,G*%
%TO.N,Net-(Q4-G)*%
X123981200Y-54711600D03*
D13*
%TO.P,Q4,2,D*%
%TO.N,Net-(D4-A)*%
X126521200Y-54711600D03*
%TO.P,Q4,3,S*%
%TO.N,GND*%
X129061200Y-54711600D03*
%TD*%
D10*
%TO.P,R5,1,1*%
%TO.N,Net-(P7-Pad2)*%
X142611200Y-49479200D03*
%TO.P,R5,2,2*%
%TO.N,Net-(Q5-G)*%
X145571200Y-49479200D03*
%TD*%
D12*
%TO.P,Q8,1,G*%
%TO.N,Net-(Q8-G)*%
X212779600Y-54914800D03*
D13*
%TO.P,Q8,2,D*%
%TO.N,Net-(D8-A)*%
X215319600Y-54914800D03*
%TO.P,Q8,3,S*%
%TO.N,GND*%
X217859600Y-54914800D03*
%TD*%
D12*
%TO.P,Q3,1,G*%
%TO.N,Net-(Q3-G)*%
X102594400Y-54711600D03*
D13*
%TO.P,Q3,2,D*%
%TO.N,Net-(D3-A)*%
X105134400Y-54711600D03*
%TO.P,Q3,3,S*%
%TO.N,GND*%
X107674400Y-54711600D03*
%TD*%
D17*
%TO.P,Q10,1,Rx*%
%TO.N,Net-(Bluetooth1-Rx)*%
X256895600Y-104394000D03*
D18*
%TO.P,Q10,2,Tx*%
%TO.N,Net-(Bluetooth1-Tx)*%
X256895600Y-101854000D03*
%TO.P,Q10,3,GND*%
%TO.N,Net-(Bluetooth1-GND)*%
X256895600Y-99314000D03*
%TO.P,Q10,4,Vcc*%
%TO.N,Net-(Bluetooth1-Vcc)*%
X256895600Y-96774000D03*
%TO.P,Q10,5,Key*%
%TO.N,unconnected-(Bluetooth1-Key-Pad5)*%
X256895600Y-94234000D03*
%TD*%
D10*
%TO.P,R4,1,1*%
%TO.N,Net-(P7-Pad3)*%
X121021200Y-49580800D03*
%TO.P,R4,2,2*%
%TO.N,Net-(Q4-G)*%
X123981200Y-49580800D03*
%TD*%
D14*
%TO.P,P5,1,1*%
%TO.N,Net-(D9-A)*%
X99789800Y-83819800D03*
%TO.P,P5,2,2*%
%TO.N,+12V*%
X104789800Y-83819800D03*
%TD*%
D10*
%TO.P,R1,1,1*%
%TO.N,Net-(P6-Pad3)*%
X56403600Y-49326800D03*
%TO.P,R1,2,2*%
%TO.N,Net-(Q1-G)*%
X59363600Y-49326800D03*
%TD*%
D12*
%TO.P,Q6,1,G*%
%TO.N,Net-(Q6-G)*%
X167618400Y-54864000D03*
D13*
%TO.P,Q6,2,D*%
%TO.N,Net-(D6-A)*%
X170158400Y-54864000D03*
%TO.P,Q6,3,S*%
%TO.N,GND*%
X172698400Y-54864000D03*
%TD*%
D10*
%TO.P,R6,1,1*%
%TO.N,Net-(P7-Pad1)*%
X164722800Y-49530000D03*
%TO.P,R6,2,2*%
%TO.N,Net-(Q6-G)*%
X167682800Y-49530000D03*
%TD*%
D14*
%TO.P,Speaker,1,1*%
%TO.N,Net-(P13--)*%
X113790000Y-83819400D03*
%TO.P,Speaker,2,2*%
%TO.N,Net-(P13-+)*%
X118790000Y-83819400D03*
%TD*%
D10*
%TO.P,R7,1,1*%
%TO.N,Net-(P8-Pad3)*%
X187125600Y-49428400D03*
%TO.P,R7,2,2*%
%TO.N,Net-(Q7-G)*%
X190085600Y-49428400D03*
%TD*%
D12*
%TO.P,Q2,1,G*%
%TO.N,Net-(Q2-G)*%
X79886800Y-54660800D03*
D13*
%TO.P,Q2,2,D*%
%TO.N,Net-(D2-A)*%
X82426800Y-54660800D03*
%TO.P,Q2,3,S*%
%TO.N,GND*%
X84966800Y-54660800D03*
%TD*%
D17*
%TO.P,P8,1,1*%
%TO.N,Net-(P8-Pad1)*%
X39817400Y-47510400D03*
D18*
%TO.P,P8,2,2*%
%TO.N,Net-(P8-Pad2)*%
X39817400Y-50050400D03*
%TO.P,P8,3,3*%
%TO.N,Net-(P8-Pad3)*%
X39817400Y-52590400D03*
%TD*%
D21*
%TO.N,*%
X31140400Y-35356800D03*
X31140800Y-96316800D03*
D22*
X237185800Y-35785000D03*
X37185600Y-35784600D03*
X37185300Y-95784600D03*
X237185300Y-95784600D03*
%TD*%
D23*
%TO.N,Net-(Bluetooth1-Tx)*%
X251922000Y-100579200D02*
X251409200Y-101092000D01*
X251922000Y-97490000D02*
X251922000Y-100579200D01*
X251409200Y-101092000D02*
X250102000Y-101092000D01*
X253695200Y-101092000D02*
X251409200Y-101092000D01*
X254457200Y-101854000D02*
X253695200Y-101092000D01*
X256895600Y-101854000D02*
X254457200Y-101854000D01*
%TO.N,Net-(P10-Pad2)*%
X171500800Y-99618800D02*
X171500800Y-97282000D01*
X247142000Y-101092000D02*
X172974000Y-101092000D01*
X172974000Y-101092000D02*
X171500800Y-99618800D01*
D24*
%TO.N,GND*%
X223574600Y-54914800D02*
X219120600Y-54914800D01*
X135284200Y-54711600D02*
X130322200Y-54711600D01*
X243945400Y-55016400D02*
X240558200Y-55016400D01*
X94796600Y-57099200D02*
X92409000Y-54711600D01*
X226216200Y-60096400D02*
X226165400Y-60096400D01*
X203457800Y-59740800D02*
X203457800Y-57404000D01*
X99521000Y-65278000D02*
X94796600Y-60553600D01*
X251260600Y-65328800D02*
X246231400Y-60299600D01*
X121060200Y-65328800D02*
X115929400Y-60198000D01*
X156264600Y-54813200D02*
X151861400Y-54813200D01*
X251362200Y-65328800D02*
X251260600Y-65328800D01*
X251362200Y-65328800D02*
X256747000Y-65328800D01*
X181766200Y-60756800D02*
X181766200Y-57454800D01*
X203457800Y-57404000D02*
X200968600Y-54914800D01*
X137773400Y-57200800D02*
X135284200Y-54711600D01*
X173959400Y-55016400D02*
X173959400Y-54864000D01*
X193323200Y-65328800D02*
X186338200Y-65328800D01*
X92409000Y-54711600D02*
X86227800Y-54711600D01*
X99521000Y-65278000D02*
X99470200Y-65328800D01*
X179327800Y-55016400D02*
X173959400Y-55016400D01*
X186338200Y-65328800D02*
X181766200Y-60756800D01*
X137875000Y-60604400D02*
X137773400Y-60604400D01*
X99571800Y-65328800D02*
X99521000Y-65278000D01*
X113186200Y-54711600D02*
X108935400Y-54711600D01*
X71733400Y-57048400D02*
X69295000Y-54610000D01*
X71733400Y-62433200D02*
X71733400Y-57048400D01*
X74629000Y-65328800D02*
X71733400Y-62433200D01*
X193526400Y-65328800D02*
X209045800Y-65328800D01*
X164037000Y-65328800D02*
X158703000Y-59994800D01*
X164037000Y-65328800D02*
X142599400Y-65328800D01*
X142599400Y-65328800D02*
X128219200Y-65328800D01*
D25*
X132790400Y-83819200D02*
X132790400Y-69900000D01*
D24*
X158703000Y-59994800D02*
X158703000Y-57251600D01*
X86227800Y-54711600D02*
X86227800Y-54660800D01*
X142599400Y-65328800D02*
X137875000Y-60604400D01*
X115929400Y-57454800D02*
X113186200Y-54711600D01*
X231448600Y-65328800D02*
X226216200Y-60096400D01*
X115929400Y-60198000D02*
X115929400Y-57454800D01*
X200968600Y-54914800D02*
X196463800Y-54914800D01*
X128219200Y-65328800D02*
X120145800Y-65328800D01*
X209045800Y-65328800D02*
X231448600Y-65328800D01*
X226165400Y-57505600D02*
X223574600Y-54914800D01*
X231448600Y-65328800D02*
X251362200Y-65328800D01*
X158703000Y-57251600D02*
X156264600Y-54813200D01*
D25*
X132790400Y-69900000D02*
X128219200Y-65328800D01*
D24*
X226165400Y-60096400D02*
X226165400Y-57505600D01*
X186338200Y-65328800D02*
X164037000Y-65328800D01*
X246231400Y-60299600D02*
X246231400Y-57302400D01*
X120145800Y-65328800D02*
X99571800Y-65328800D01*
X209045800Y-65328800D02*
X203457800Y-59740800D01*
X181766200Y-57454800D02*
X179327800Y-55016400D01*
X69295000Y-54610000D02*
X65879800Y-54610000D01*
D25*
X195202800Y-54914800D02*
X195152000Y-54965600D01*
D24*
X246231400Y-57302400D02*
X243945400Y-55016400D01*
X94796600Y-60553600D02*
X94796600Y-57099200D01*
X137773400Y-60604400D02*
X137773400Y-57200800D01*
X99470200Y-65328800D02*
X74629000Y-65328800D01*
D25*
%TO.N,Net-(Bluetooth1-Vcc)*%
X258318000Y-89255600D02*
X252222000Y-89255600D01*
X186080400Y-72644000D02*
X186080400Y-75488800D01*
X187807600Y-70815200D02*
X187858400Y-70866000D01*
X252222000Y-89255600D02*
X250393200Y-87426800D01*
X259537200Y-96316800D02*
X259537200Y-90474800D01*
X252222000Y-76860400D02*
X256844800Y-76860400D01*
X250393200Y-78689200D02*
X252222000Y-76860400D01*
X250393200Y-87426800D02*
X250393200Y-78689200D01*
X186080400Y-75488800D02*
X184722600Y-76846600D01*
X141790600Y-83819600D02*
X141790600Y-72636200D01*
X141790600Y-72636200D02*
X143611600Y-70815200D01*
X244144800Y-73964800D02*
X240995200Y-70815200D01*
X252222000Y-76860400D02*
X244906800Y-76860400D01*
X201117200Y-72796400D02*
X201117200Y-76860400D01*
X203098400Y-70815200D02*
X201117200Y-72796400D01*
X143611600Y-70815200D02*
X187807600Y-70815200D01*
X244144800Y-76098400D02*
X244144800Y-73964800D01*
X184722600Y-76846600D02*
X181915800Y-76846600D01*
X259537200Y-90474800D02*
X258318000Y-89255600D01*
X259080000Y-96774000D02*
X259537200Y-96316800D01*
X256895600Y-96774000D02*
X259080000Y-96774000D01*
X187909200Y-70815200D02*
X186080400Y-72644000D01*
X244906800Y-76860400D02*
X244144800Y-76098400D01*
X240995200Y-70815200D02*
X187909200Y-70815200D01*
D23*
%TO.N,Net-(Bluetooth1-Tx)*%
X249936000Y-96926400D02*
X251358400Y-96926400D01*
X257251200Y-101955600D02*
X257302000Y-101904800D01*
X249472000Y-94748800D02*
X249472000Y-96462400D01*
X251358400Y-96926400D02*
X251922000Y-97490000D01*
X249472000Y-96462400D02*
X249936000Y-96926400D01*
%TO.N,Net-(Bluetooth1-Rx)*%
X168960800Y-97282000D02*
X168960800Y-102412800D01*
X168960800Y-102412800D02*
X170942000Y-104394000D01*
X170942000Y-104394000D02*
X256895600Y-104394000D01*
D25*
%TO.N,Net-(D1-A)*%
X62328800Y-54650800D02*
X62297600Y-54682000D01*
X61903600Y-54559200D02*
X61954400Y-54610000D01*
X61903600Y-49530000D02*
X61903600Y-54559200D01*
D23*
%TO.N,Net-(Bluetooth1-GND)*%
X254037200Y-99314000D02*
X256895600Y-99314000D01*
X249472000Y-91788800D02*
X252266000Y-91788800D01*
X252266000Y-91788800D02*
X253187200Y-92710000D01*
X253187200Y-92710000D02*
X253187200Y-98464000D01*
X253187200Y-98464000D02*
X254037200Y-99314000D01*
%TO.N,Net-(U1-Tx)*%
X196951600Y-96062800D02*
X196951600Y-83210400D01*
X198221600Y-81940400D02*
X201117200Y-81940400D01*
X192582800Y-97180400D02*
X195834000Y-97180400D01*
X196951600Y-83210400D02*
X198221600Y-81940400D01*
X195834000Y-97180400D02*
X196951600Y-96062800D01*
D25*
%TO.N,Net-(Q1-G)*%
X59363600Y-54559200D02*
X59414400Y-54610000D01*
D23*
X59363600Y-49326800D02*
X59363600Y-54559200D01*
X59719200Y-54643600D02*
X59757600Y-54682000D01*
D25*
%TO.N,Net-(Q2-G)*%
X79937600Y-54610000D02*
X79886800Y-54660800D01*
D23*
X79937600Y-49530000D02*
X79937600Y-54610000D01*
%TO.N,Net-(Q3-G)*%
X102658800Y-49428400D02*
X102658800Y-54647200D01*
X102658800Y-54647200D02*
X102594400Y-54711600D01*
%TO.N,Net-(Q4-G)*%
X123981200Y-49580800D02*
X123981200Y-54711600D01*
%TO.N,Net-(Q5-G)*%
X145571200Y-49479200D02*
X145571200Y-54762400D01*
X145571200Y-54762400D02*
X145520400Y-54813200D01*
%TO.N,Net-(Q6-G)*%
X167682800Y-54799600D02*
X167618400Y-54864000D01*
X167682800Y-49530000D02*
X167682800Y-54799600D01*
%TO.N,Net-(Q7-G)*%
X190085600Y-49428400D02*
X190122800Y-49465600D01*
X190122800Y-49465600D02*
X190122800Y-54864000D01*
X190122800Y-54864000D02*
X190072000Y-54914800D01*
%TO.N,Net-(Q8-G)*%
X212779600Y-49530000D02*
X212779600Y-54914800D01*
%TO.N,Net-(Q9-G)*%
X234268000Y-54965600D02*
X234217200Y-55016400D01*
X234268000Y-49530000D02*
X234268000Y-54965600D01*
%TO.N,Net-(U1-Rx)*%
X194157600Y-92405200D02*
X195326000Y-91236800D01*
X195326000Y-81127600D02*
X197053200Y-79400400D01*
X197053200Y-79400400D02*
X201117200Y-79400400D01*
X195326000Y-91236800D02*
X195326000Y-81127600D01*
X192582800Y-92405200D02*
X194157600Y-92405200D01*
%TO.N,Net-(P9-Pad1)*%
X189622800Y-97180400D02*
X181508400Y-97180400D01*
%TO.N,Net-(P6-Pad2)*%
X39817400Y-68210600D02*
X52494000Y-68210600D01*
X75949800Y-45415200D02*
X76977600Y-46443000D01*
X76977600Y-46443000D02*
X76977600Y-49530000D01*
X54664600Y-45415200D02*
X75949800Y-45415200D01*
X52494000Y-68210600D02*
X54156600Y-66548000D01*
X54156600Y-45923200D02*
X54664600Y-45415200D01*
X54156600Y-66548000D02*
X54156600Y-45923200D01*
%TO.N,Net-(P6-Pad1)*%
X52429400Y-63703200D02*
X52429400Y-45110400D01*
X50462000Y-65670600D02*
X52429400Y-63703200D01*
X99698800Y-45440600D02*
X99698800Y-49428400D01*
X53902600Y-43637200D02*
X97895400Y-43637200D01*
X52429400Y-45110400D02*
X53902600Y-43637200D01*
X97895400Y-43637200D02*
X99698800Y-45440600D01*
X39817400Y-65670600D02*
X50462000Y-65670600D01*
%TO.N,Net-(P6-Pad3)*%
X39817400Y-70750600D02*
X54627600Y-70750600D01*
X54627600Y-70750600D02*
X56403600Y-68974600D01*
X56403600Y-68974600D02*
X56403600Y-49326800D01*
%TO.N,Net-(P7-Pad1)*%
X163068000Y-38354000D02*
X164722800Y-40008800D01*
X48009800Y-55829200D02*
X48009800Y-39370000D01*
X39817600Y-56590400D02*
X47248600Y-56590400D01*
X164722800Y-40008800D02*
X164722800Y-49530000D01*
X48009800Y-39370000D02*
X49025800Y-38354000D01*
X49025800Y-38354000D02*
X163068000Y-38354000D01*
X47248600Y-56590400D02*
X48009800Y-55829200D01*
%TO.N,Net-(P7-Pad2)*%
X48772600Y-59130400D02*
X39817600Y-59130400D01*
X50702200Y-40284400D02*
X49533800Y-41452800D01*
X142611200Y-49479200D02*
X142611200Y-41667800D01*
X141227800Y-40284400D02*
X50702200Y-40284400D01*
X142611200Y-41667800D02*
X141227800Y-40284400D01*
X49533800Y-58369200D02*
X48772600Y-59130400D01*
X49533800Y-41452800D02*
X49533800Y-58369200D01*
%TO.N,Net-(P7-Pad3)*%
X121021200Y-44106200D02*
X121021200Y-49580800D01*
X50905400Y-43586400D02*
X52480200Y-42011600D01*
X39817600Y-61670400D02*
X50042600Y-61670400D01*
X52480200Y-42011600D02*
X118926600Y-42011600D01*
X50042600Y-61670400D02*
X50905400Y-60807600D01*
X118926600Y-42011600D02*
X121021200Y-44106200D01*
X50905400Y-60807600D02*
X50905400Y-43586400D01*
%TO.N,Net-(P8-Pad2)*%
X209819600Y-36791000D02*
X209819600Y-49530000D01*
X44657000Y-49022000D02*
X44657000Y-37343144D01*
X43628600Y-50050400D02*
X44657000Y-49022000D01*
X46694144Y-35306000D02*
X208334600Y-35306000D01*
X208334600Y-35306000D02*
X209819600Y-36791000D01*
X44657000Y-37343144D02*
X46694144Y-35306000D01*
X39817400Y-50050400D02*
X43628600Y-50050400D01*
%TO.N,Net-(P8-Pad1)*%
X229975400Y-33578800D02*
X231308000Y-34911400D01*
X42819269Y-46338531D02*
X42819269Y-35670531D01*
X41647400Y-47510400D02*
X42819269Y-46338531D01*
X39817400Y-47510400D02*
X41647400Y-47510400D01*
X42819269Y-35670531D02*
X44911000Y-33578800D01*
X44911000Y-33578800D02*
X229975400Y-33578800D01*
X231308000Y-34911400D02*
X231308000Y-49530000D01*
%TO.N,Net-(P8-Pad3)*%
X45457400Y-52590400D02*
X39817400Y-52590400D01*
X187125600Y-49428400D02*
X187125600Y-39090600D01*
X46384200Y-51663600D02*
X45457400Y-52590400D01*
X46384200Y-39014400D02*
X46384200Y-51663600D01*
X184966600Y-36931600D02*
X48467000Y-36931600D01*
X187125600Y-39090600D02*
X184966600Y-36931600D01*
X48467000Y-36931600D02*
X46384200Y-39014400D01*
%TO.N,Net-(P9-Pad2)*%
X178968400Y-93116400D02*
X179679600Y-92405200D01*
X178968400Y-97180400D02*
X178968400Y-93116400D01*
X179679600Y-92405200D02*
X189622800Y-92405200D01*
D25*
%TO.N,Net-(D2-A)*%
X82496400Y-49631600D02*
X82496400Y-54591200D01*
X82496400Y-54591200D02*
X82426800Y-54660800D01*
%TO.N,Net-(D3-A)*%
X105185200Y-54660800D02*
X105134400Y-54711600D01*
X105286800Y-49479200D02*
X105185200Y-49580800D01*
X105185200Y-49580800D02*
X105185200Y-54660800D01*
%TO.N,Net-(D4-A)*%
X126540000Y-54692800D02*
X126521200Y-54711600D01*
X126540000Y-49580800D02*
X126540000Y-54692800D01*
%TO.N,Net-(D5-A)*%
X148130000Y-54743600D02*
X148060400Y-54813200D01*
X148130000Y-49580800D02*
X148130000Y-54743600D01*
%TO.N,Net-(D6-A)*%
X170310800Y-54711600D02*
X170158400Y-54864000D01*
X170310800Y-49479200D02*
X170310800Y-54711600D01*
%TO.N,Net-(D7-A)*%
X192700400Y-49479200D02*
X192700400Y-54826400D01*
X192700400Y-54826400D02*
X192612000Y-54914800D01*
%TO.N,Net-(D8-A)*%
X215338400Y-54896000D02*
X215319600Y-54914800D01*
X215338400Y-49682400D02*
X215338400Y-54896000D01*
%TO.N,Net-(D9-A)*%
X236776000Y-49682400D02*
X236776000Y-54997600D01*
X236776000Y-54997600D02*
X236757200Y-55016400D01*
D23*
%TO.N,Net-(P13-+)*%
X153162000Y-90017600D02*
X153619200Y-89560400D01*
X119684800Y-90017600D02*
X153162000Y-90017600D01*
X153619200Y-89560400D02*
X153619200Y-87325200D01*
X154178000Y-86766400D02*
X162915600Y-86766400D01*
X118790000Y-83819400D02*
X118790000Y-89122800D01*
X153619200Y-87325200D02*
X154178000Y-86766400D01*
X118790000Y-89122800D02*
X119684800Y-90017600D01*
%TO.N,Net-(P13--)*%
X115163600Y-91846400D02*
X155498800Y-91846400D01*
X156108400Y-89865200D02*
X156667200Y-89306400D01*
X113790000Y-90472800D02*
X115163600Y-91846400D01*
X162726200Y-89495800D02*
X162915600Y-89306400D01*
X113790000Y-83819400D02*
X113790000Y-90472800D01*
X156667200Y-89306400D02*
X162915600Y-89306400D01*
X156108400Y-91236800D02*
X156108400Y-89865200D01*
X155498800Y-91846400D02*
X156108400Y-91236800D01*
%TD*%
M02*
