%TF.GenerationSoftware,KiCad,Pcbnew,9.0.4*%
%TF.CreationDate,2025-10-20T22:53:34-05:00*%
%TF.ProjectId,PCB,5043422e-6b69-4636-9164-5f7063625858,rev?*%
%TF.SameCoordinates,Original*%
%TF.FileFunction,Copper,L2,Bot*%
%TF.FilePolarity,Positive*%
%FSLAX46Y46*%
G04 Gerber Fmt 4.6, Leading zero omitted, Abs format (unit mm)*
G04 Created by KiCad (PCBNEW 9.0.4) date 2025-10-20 22:53:34*
%MOMM*%
%LPD*%
G01*
G04 APERTURE LIST*
%TA.AperFunction,ComponentPad*%
%ADD10C,1.800000*%
%TD*%
%TA.AperFunction,ComponentPad*%
%ADD11R,2.000000X2.500000*%
%TD*%
%TA.AperFunction,ComponentPad*%
%ADD12O,2.000000X2.500000*%
%TD*%
%TA.AperFunction,ComponentPad*%
%ADD13C,2.000000*%
%TD*%
%TA.AperFunction,ComponentPad*%
%ADD14R,1.700000X1.700000*%
%TD*%
%TA.AperFunction,ComponentPad*%
%ADD15C,1.700000*%
%TD*%
%TA.AperFunction,ComponentPad*%
%ADD16R,1.570000X1.570000*%
%TD*%
%TA.AperFunction,ComponentPad*%
%ADD17C,1.570000*%
%TD*%
%TA.AperFunction,ComponentPad*%
%ADD18C,1.520000*%
%TD*%
%TA.AperFunction,ViaPad*%
%ADD19C,1.300000*%
%TD*%
%TA.AperFunction,ViaPad*%
%ADD20C,4.000000*%
%TD*%
%TA.AperFunction,Conductor*%
%ADD21C,5.000000*%
%TD*%
%TA.AperFunction,Conductor*%
%ADD22C,1.500000*%
%TD*%
%TA.AperFunction,Conductor*%
%ADD23C,1.000000*%
%TD*%
%TA.AperFunction,Conductor*%
%ADD24C,0.400000*%
%TD*%
G04 APERTURE END LIST*
D10*
%TO.P,D9,1,C*%
%TO.N,+12V*%
X245476000Y-49682400D03*
%TO.P,D9,2,A*%
%TO.N,Net-(D9-A)*%
X236776000Y-49682400D03*
%TD*%
%TO.P,D8,1,C*%
%TO.N,+12V*%
X224038400Y-49682400D03*
%TO.P,D8,2,A*%
%TO.N,Net-(D8-A)*%
X215338400Y-49682400D03*
%TD*%
%TO.P,D7,1,C*%
%TO.N,+12V*%
X201400400Y-49479200D03*
%TO.P,D7,2,A*%
%TO.N,Net-(D7-A)*%
X192700400Y-49479200D03*
%TD*%
%TO.P,D6,1,C*%
%TO.N,+12V*%
X179010800Y-49479200D03*
%TO.P,D6,2,A*%
%TO.N,Net-(D6-A)*%
X170310800Y-49479200D03*
%TD*%
%TO.P,D5,1,C*%
%TO.N,+12V*%
X156830000Y-49580800D03*
%TO.P,D5,2,A*%
%TO.N,Net-(D5-A)*%
X148130000Y-49580800D03*
%TD*%
%TO.P,D4,1,C*%
%TO.N,+12V*%
X135240000Y-49580800D03*
%TO.P,D4,2,A*%
%TO.N,Net-(D4-A)*%
X126540000Y-49580800D03*
%TD*%
%TO.P,D3,1,C*%
%TO.N,+12V*%
X113986800Y-49479200D03*
%TO.P,D3,2,A*%
%TO.N,Net-(D3-A)*%
X105286800Y-49479200D03*
%TD*%
%TO.P,D2,1,C*%
%TO.N,+12V*%
X91196400Y-49631600D03*
%TO.P,D2,2,A*%
%TO.N,Net-(D2-A)*%
X82496400Y-49631600D03*
%TD*%
%TO.P,D1,1,C*%
%TO.N,+12V*%
X70603600Y-49530000D03*
%TO.P,D1,2,A*%
%TO.N,Net-(D1-A)*%
X61903600Y-49530000D03*
%TD*%
D11*
%TO.P,Q1,1,G*%
%TO.N,Net-(Q1-G)*%
X59414400Y-54610000D03*
D12*
%TO.P,Q1,2,D*%
%TO.N,Net-(D1-A)*%
X61954400Y-54610000D03*
%TO.P,Q1,3,S*%
%TO.N,GND*%
X64494400Y-54610000D03*
%TD*%
D11*
%TO.P,Q9,1,G*%
%TO.N,Net-(Q9-G)*%
X234217200Y-55016400D03*
D12*
%TO.P,Q9,2,D*%
%TO.N,Net-(D9-A)*%
X236757200Y-55016400D03*
%TO.P,Q9,3,S*%
%TO.N,GND*%
X239297200Y-55016400D03*
%TD*%
D11*
%TO.P,Q5,1,G*%
%TO.N,Net-(Q5-G)*%
X145520400Y-54813200D03*
D12*
%TO.P,Q5,2,D*%
%TO.N,Net-(D5-A)*%
X148060400Y-54813200D03*
%TO.P,Q5,3,S*%
%TO.N,GND*%
X150600400Y-54813200D03*
%TD*%
D13*
%TO.P,Fuente,1,1*%
%TO.N,GND*%
X256747000Y-65328800D03*
%TO.P,Fuente,2,2*%
%TO.N,+12V*%
X256747000Y-60328800D03*
%TD*%
D14*
%TO.P,P9,1,1*%
%TO.N,Net-(P9-Pad1)*%
X181508400Y-97180400D03*
D15*
%TO.P,P9,2,2*%
%TO.N,Net-(P9-Pad2)*%
X178968400Y-97180400D03*
%TD*%
D13*
%TO.P,P4,1,1*%
%TO.N,Net-(D7-A)*%
X85789600Y-83820200D03*
%TO.P,P4,2,2*%
%TO.N,Net-(D8-A)*%
X90789600Y-83820200D03*
%TD*%
D16*
%TO.P,P7,1,1*%
%TO.N,Net-(P7-Pad1)*%
X39817600Y-56590400D03*
D17*
%TO.P,P7,2,2*%
%TO.N,Net-(P7-Pad2)*%
X39817600Y-59130400D03*
%TO.P,P7,3,3*%
%TO.N,Net-(P7-Pad3)*%
X39817600Y-61670400D03*
%TD*%
D13*
%TO.P,P3,1,1*%
%TO.N,Net-(D5-A)*%
X71789200Y-83819800D03*
%TO.P,P3,2,2*%
%TO.N,Net-(D6-A)*%
X76789200Y-83819800D03*
%TD*%
D14*
%TO.P,P10,1,1*%
%TO.N,Net-(Bluetooth1-Rx)*%
X168960800Y-97282000D03*
D15*
%TO.P,P10,2,2*%
%TO.N,Net-(P10-Pad2)*%
X171500800Y-97282000D03*
%TD*%
D18*
%TO.P,U1,1,VCC*%
%TO.N,Net-(Bluetooth1-Vcc)*%
X201117200Y-76860400D03*
%TO.P,U1,2,Rx*%
%TO.N,Net-(U1-Rx)*%
X201117200Y-79400400D03*
%TO.P,U1,3,Tx*%
%TO.N,Net-(U1-Tx)*%
X201117200Y-81940400D03*
%TO.P,U1,4,DACR*%
%TO.N,Net-(P12-R)*%
X201117200Y-84480400D03*
%TO.P,U1,5,DACL*%
%TO.N,Net-(P12-L)*%
X201117200Y-87020400D03*
%TO.P,U1,6,SPK2*%
%TO.N,unconnected-(U1-SPK2-Pad6)*%
X201117200Y-89560400D03*
%TO.P,U1,7,GND*%
%TO.N,Net-(Bluetooth1-GND)*%
X201117200Y-92100400D03*
%TO.P,U1,8,SPK1*%
%TO.N,unconnected-(U1-SPK1-Pad8)*%
X201117200Y-94640400D03*
%TD*%
D13*
%TO.P,5V,1,1*%
%TO.N,Net-(Bluetooth1-GND)*%
X256844800Y-81860400D03*
%TO.P,5V,2,2*%
%TO.N,Net-(Bluetooth1-Vcc)*%
X256844800Y-76860400D03*
%TD*%
%TO.P,P1,1,1*%
%TO.N,Net-(D1-A)*%
X43789200Y-83819800D03*
%TO.P,P1,2,2*%
%TO.N,Net-(D2-A)*%
X48789200Y-83819800D03*
%TD*%
%TO.P,P2,1,1*%
%TO.N,Net-(D3-A)*%
X57788800Y-83820000D03*
%TO.P,P2,2,2*%
%TO.N,Net-(D4-A)*%
X62788800Y-83820000D03*
%TD*%
D11*
%TO.P,Q7,1,G*%
%TO.N,Net-(Q7-G)*%
X190122800Y-54914800D03*
D12*
%TO.P,Q7,2,D*%
%TO.N,Net-(D7-A)*%
X192662800Y-54914800D03*
%TO.P,Q7,3,S*%
%TO.N,GND*%
X195202800Y-54914800D03*
%TD*%
D13*
%TO.P,Add5,1,1*%
%TO.N,Net-(Bluetooth1-Vcc)*%
X141790600Y-83819600D03*
%TO.P,Add5,2,2*%
%TO.N,Net-(Bluetooth1-GND)*%
X146790600Y-83819600D03*
%TD*%
D18*
%TO.P,U2,1*%
%TO.N,N/C*%
X218757400Y-94640200D03*
%TO.P,U2,2*%
X218757400Y-92100200D03*
%TO.P,U2,3*%
X218757400Y-89560200D03*
%TO.P,U2,4*%
X218757400Y-87020200D03*
%TO.P,U2,5*%
X218757400Y-84480200D03*
%TO.P,U2,6*%
X218757400Y-81940200D03*
%TO.P,U2,7*%
X218757400Y-79400200D03*
%TO.P,U2,8*%
X218757400Y-76860200D03*
%TD*%
D14*
%TO.P,R14,1,+*%
%TO.N,unconnected-(R14-+-Pad1)*%
X162916000Y-74306600D03*
D15*
%TO.P,R14,2,-*%
%TO.N,unconnected-(R14---Pad2)*%
X162916000Y-76846600D03*
%TD*%
D16*
%TO.P,P12,1,R*%
%TO.N,Net-(P12-R)*%
X181915400Y-84927000D03*
D17*
%TO.P,P12,2,GND*%
%TO.N,Net-(Bluetooth1-GND)*%
X181915400Y-87467000D03*
%TO.P,P12,3,L*%
%TO.N,Net-(P12-L)*%
X181915400Y-90007000D03*
%TD*%
D14*
%TO.P,P13,1,-*%
%TO.N,Net-(P13--)*%
X162915600Y-89306400D03*
D15*
%TO.P,P13,2,+*%
%TO.N,Net-(P13-+)*%
X162915600Y-86766400D03*
%TD*%
D16*
%TO.P,P6,1,1*%
%TO.N,Net-(P6-Pad1)*%
X39817400Y-65670600D03*
D17*
%TO.P,P6,2,2*%
%TO.N,Net-(P6-Pad2)*%
X39817400Y-68210600D03*
%TO.P,P6,3,3*%
%TO.N,Net-(P6-Pad3)*%
X39817400Y-70750600D03*
%TD*%
D13*
%TO.P,Add12,1,1*%
%TO.N,+12V*%
X127790400Y-83819200D03*
%TO.P,Add12,2,2*%
%TO.N,GND*%
X132790400Y-83819200D03*
%TD*%
D14*
%TO.P,P11,1,-*%
%TO.N,Net-(Bluetooth1-GND)*%
X181915800Y-74306600D03*
D15*
%TO.P,P11,2,+*%
%TO.N,Net-(Bluetooth1-Vcc)*%
X181915800Y-76846600D03*
%TD*%
D11*
%TO.P,Q4,1,G*%
%TO.N,Net-(Q4-G)*%
X123981200Y-54711600D03*
D12*
%TO.P,Q4,2,D*%
%TO.N,Net-(D4-A)*%
X126521200Y-54711600D03*
%TO.P,Q4,3,S*%
%TO.N,GND*%
X129061200Y-54711600D03*
%TD*%
D11*
%TO.P,Q8,1,G*%
%TO.N,Net-(Q8-G)*%
X212779600Y-54914800D03*
D12*
%TO.P,Q8,2,D*%
%TO.N,Net-(D8-A)*%
X215319600Y-54914800D03*
%TO.P,Q8,3,S*%
%TO.N,GND*%
X217859600Y-54914800D03*
%TD*%
D11*
%TO.P,Q3,1,G*%
%TO.N,Net-(Q3-G)*%
X102594400Y-54711600D03*
D12*
%TO.P,Q3,2,D*%
%TO.N,Net-(D3-A)*%
X105134400Y-54711600D03*
%TO.P,Q3,3,S*%
%TO.N,GND*%
X107674400Y-54711600D03*
%TD*%
D16*
%TO.P,Q10,1,Rx*%
%TO.N,Net-(Bluetooth1-Rx)*%
X256895600Y-104394000D03*
D17*
%TO.P,Q10,2,Tx*%
%TO.N,Net-(Bluetooth1-Tx)*%
X256895600Y-101854000D03*
%TO.P,Q10,3,GND*%
%TO.N,Net-(Bluetooth1-GND)*%
X256895600Y-99314000D03*
%TO.P,Q10,4,Vcc*%
%TO.N,Net-(Bluetooth1-Vcc)*%
X256895600Y-96774000D03*
%TO.P,Q10,5,Key*%
%TO.N,unconnected-(Bluetooth1-Key-Pad5)*%
X256895600Y-94234000D03*
%TD*%
D13*
%TO.P,P5,1,1*%
%TO.N,Net-(D9-A)*%
X99789800Y-83819800D03*
%TO.P,P5,2,2*%
%TO.N,+12V*%
X104789800Y-83819800D03*
%TD*%
D11*
%TO.P,Q6,1,G*%
%TO.N,Net-(Q6-G)*%
X167618400Y-54864000D03*
D12*
%TO.P,Q6,2,D*%
%TO.N,Net-(D6-A)*%
X170158400Y-54864000D03*
%TO.P,Q6,3,S*%
%TO.N,GND*%
X172698400Y-54864000D03*
%TD*%
D13*
%TO.P,Speaker,1,1*%
%TO.N,Net-(P13--)*%
X113790000Y-83819400D03*
%TO.P,Speaker,2,2*%
%TO.N,Net-(P13-+)*%
X118790000Y-83819400D03*
%TD*%
D11*
%TO.P,Q2,1,G*%
%TO.N,Net-(Q2-G)*%
X79886800Y-54660800D03*
D12*
%TO.P,Q2,2,D*%
%TO.N,Net-(D2-A)*%
X82426800Y-54660800D03*
%TO.P,Q2,3,S*%
%TO.N,GND*%
X84966800Y-54660800D03*
%TD*%
D16*
%TO.P,P8,1,1*%
%TO.N,Net-(P8-Pad1)*%
X39817400Y-47510400D03*
D17*
%TO.P,P8,2,2*%
%TO.N,Net-(P8-Pad2)*%
X39817400Y-50050400D03*
%TO.P,P8,3,3*%
%TO.N,Net-(P8-Pad3)*%
X39817400Y-52590400D03*
%TD*%
D19*
%TO.N,*%
X31140400Y-35356800D03*
X31140800Y-96316800D03*
D20*
X237185800Y-35785000D03*
X37185600Y-35784600D03*
X37185300Y-95784600D03*
X237185300Y-95784600D03*
%TD*%
D21*
%TO.N,+12V*%
X216215200Y-41859200D02*
X224038400Y-49682400D01*
X127558800Y-41859200D02*
X127558800Y-41899600D01*
D22*
X126034800Y-90576400D02*
X101498400Y-90576400D01*
D21*
X127558800Y-41899600D02*
X135240000Y-49580800D01*
X104789800Y-87285000D02*
X104789800Y-83819800D01*
X32512000Y-46024800D02*
X32512000Y-80111600D01*
X171500800Y-41859200D02*
X171500800Y-41969200D01*
X237744000Y-41950400D02*
X245476000Y-49682400D01*
X193802000Y-41880800D02*
X201400400Y-49479200D01*
X149301200Y-42052000D02*
X156830000Y-49580800D01*
D22*
X127790400Y-83819200D02*
X127790400Y-88820800D01*
D21*
X237744000Y-41859200D02*
X237744000Y-41950400D01*
X171500800Y-41969200D02*
X179010800Y-49479200D01*
X62932800Y-41859200D02*
X248920000Y-41859200D01*
X36677600Y-41859200D02*
X32512000Y-46024800D01*
D22*
X127790400Y-88820800D02*
X126034800Y-90576400D01*
D21*
X256747000Y-49686200D02*
X256747000Y-60328800D01*
X42976800Y-90576400D02*
X101498400Y-90576400D01*
X106324400Y-41859200D02*
X106324400Y-41899600D01*
X62932800Y-41859200D02*
X70603600Y-49530000D01*
X106324400Y-41899600D02*
X113904000Y-49479200D01*
X149301200Y-41859200D02*
X149301200Y-42052000D01*
X83413600Y-41859200D02*
X83424000Y-41859200D01*
X83424000Y-41859200D02*
X91196400Y-49631600D01*
X248920000Y-41859200D02*
X256747000Y-49686200D01*
X62932800Y-41859200D02*
X36677600Y-41859200D01*
X101498400Y-90576400D02*
X104789800Y-87285000D01*
X193802000Y-41859200D02*
X193802000Y-41880800D01*
X32512000Y-80111600D02*
X42976800Y-90576400D01*
D23*
%TO.N,Net-(D1-A)*%
X45466000Y-59029600D02*
X60553600Y-59029600D01*
X61954400Y-57628800D02*
X61954400Y-54610000D01*
X43789200Y-60706400D02*
X45466000Y-59029600D01*
X43789200Y-83819800D02*
X43789200Y-60706400D01*
X60553600Y-59029600D02*
X61954400Y-57628800D01*
D22*
%TO.N,Net-(Bluetooth1-GND)*%
X174651000Y-89295800D02*
X174651000Y-90819800D01*
X146862800Y-83891800D02*
X146790600Y-83819600D01*
X256895600Y-99314000D02*
X253847600Y-99314000D01*
X246764800Y-81860400D02*
X254152400Y-81860400D01*
X204927200Y-98958400D02*
X204927200Y-92760800D01*
X204927200Y-92760800D02*
X204266800Y-92100400D01*
X148996400Y-101904800D02*
X146790600Y-99699000D01*
X242570000Y-101904800D02*
X245567200Y-98907600D01*
X174651000Y-99314600D02*
X177241200Y-101904800D01*
X176127400Y-74306600D02*
X174651000Y-75783000D01*
X181915800Y-74306600D02*
X176127400Y-74306600D01*
X177241200Y-101904800D02*
X148996400Y-101904800D01*
X252780800Y-98247200D02*
X252780800Y-83232000D01*
X207873600Y-101904800D02*
X242570000Y-101904800D01*
X181915400Y-87467000D02*
X176479800Y-87467000D01*
X174651000Y-90819800D02*
X174651000Y-99314600D01*
X207873600Y-101904800D02*
X204927200Y-98958400D01*
X245567200Y-83058000D02*
X246764800Y-81860400D01*
X204266800Y-92100400D02*
X201117200Y-92100400D01*
X146790600Y-99699000D02*
X146790600Y-83819600D01*
X253847600Y-99314000D02*
X252780800Y-98247200D01*
X252780800Y-83232000D02*
X254152400Y-81860400D01*
X245567200Y-98907600D02*
X245567200Y-83058000D01*
X176479800Y-87467000D02*
X174651000Y-89295800D01*
X256844800Y-81860400D02*
X254152400Y-81860400D01*
X177241200Y-101904800D02*
X207873600Y-101904800D01*
X201066400Y-92049600D02*
X201117200Y-92100400D01*
X174651000Y-75783000D02*
X174651000Y-90819800D01*
D23*
%TO.N,Net-(D2-A)*%
X80568800Y-61468000D02*
X82426800Y-59610000D01*
X82426800Y-59610000D02*
X82426800Y-54660800D01*
X50596800Y-61468000D02*
X80568800Y-61468000D01*
X48789200Y-63275600D02*
X50596800Y-61468000D01*
X48789200Y-83819800D02*
X48789200Y-63275600D01*
%TO.N,Net-(D3-A)*%
X57788800Y-66976000D02*
X60655200Y-64109600D01*
X60655200Y-64109600D02*
X103022400Y-64109600D01*
X105134400Y-61997600D02*
X105134400Y-54711600D01*
X57788800Y-83820000D02*
X57788800Y-66976000D01*
X103022400Y-64109600D02*
X105134400Y-61997600D01*
%TO.N,Net-(D4-A)*%
X126521200Y-64232800D02*
X126521200Y-54711600D01*
X62788800Y-69342000D02*
X65786000Y-66344800D01*
X65786000Y-66344800D02*
X124409200Y-66344800D01*
X124409200Y-66344800D02*
X126521200Y-64232800D01*
X62788800Y-83820000D02*
X62788800Y-69342000D01*
%TO.N,Net-(D5-A)*%
X74777600Y-68834000D02*
X147066000Y-68834000D01*
X71789200Y-71822400D02*
X74777600Y-68834000D01*
X148060400Y-67839600D02*
X148060400Y-54813200D01*
X71789200Y-83819800D02*
X71789200Y-71822400D01*
X147066000Y-68834000D02*
X148060400Y-67839600D01*
%TO.N,Net-(D6-A)*%
X79603600Y-71018400D02*
X148844000Y-71018400D01*
X170158400Y-58644800D02*
X170158400Y-54864000D01*
X76789200Y-73832800D02*
X79603600Y-71018400D01*
X150825200Y-69037200D02*
X150825200Y-61671200D01*
X150825200Y-61671200D02*
X152400000Y-60096400D01*
X168706800Y-60096400D02*
X170158400Y-58644800D01*
X76789200Y-83819800D02*
X76789200Y-73832800D01*
X148844000Y-71018400D02*
X150825200Y-69037200D01*
X152400000Y-60096400D02*
X168706800Y-60096400D01*
%TO.N,Net-(D7-A)*%
X88442800Y-73660000D02*
X151130000Y-73660000D01*
X85789600Y-76313200D02*
X88442800Y-73660000D01*
X155600400Y-62687200D02*
X160477200Y-62687200D01*
X160528000Y-62738000D02*
X190550800Y-62738000D01*
X160477200Y-62687200D02*
X160528000Y-62738000D01*
X85789600Y-83820200D02*
X85789600Y-76313200D01*
X153670000Y-71120000D02*
X153670000Y-64617600D01*
X190550800Y-62738000D02*
X192662800Y-60626000D01*
X151130000Y-73660000D02*
X153670000Y-71120000D01*
X192662800Y-60626000D02*
X192662800Y-54914800D01*
X153670000Y-64617600D02*
X155600400Y-62687200D01*
%TO.N,Net-(D8-A)*%
X157022800Y-66954400D02*
X158953200Y-65024000D01*
X92659200Y-76454000D02*
X154228800Y-76454000D01*
X154228800Y-76454000D02*
X157022800Y-73660000D01*
X90789600Y-78323600D02*
X92659200Y-76454000D01*
X215319600Y-64182000D02*
X215319600Y-54914800D01*
X157022800Y-73660000D02*
X157022800Y-66954400D01*
X90789600Y-83820200D02*
X90789600Y-78323600D01*
X214477600Y-65024000D02*
X215319600Y-64182000D01*
X158953200Y-65024000D02*
X214477600Y-65024000D01*
%TO.N,Net-(D9-A)*%
X234950000Y-67157600D02*
X236757200Y-65350400D01*
X99789800Y-80296200D02*
X100990400Y-79095600D01*
X157378400Y-79095600D02*
X159969200Y-76504800D01*
X99789800Y-83819800D02*
X99789800Y-80296200D01*
X159969200Y-69189600D02*
X162001200Y-67157600D01*
X162001200Y-67157600D02*
X234950000Y-67157600D01*
X100990400Y-79095600D02*
X157378400Y-79095600D01*
X236757200Y-65350400D02*
X236757200Y-55016400D01*
X159969200Y-76504800D02*
X159969200Y-69189600D01*
D24*
%TO.N,Net-(P12-L)*%
X192718200Y-90007000D02*
X181915400Y-90007000D01*
X192732000Y-90020800D02*
X192718200Y-90007000D01*
X192732000Y-90020800D02*
X193446400Y-89306400D01*
X194106800Y-87020400D02*
X201117200Y-87020400D01*
X193446400Y-89306400D02*
X193446400Y-87680800D01*
X193446400Y-87680800D02*
X194106800Y-87020400D01*
%TO.N,Net-(P12-R)*%
X193497200Y-84480400D02*
X201117200Y-84480400D01*
X193050600Y-84927000D02*
X193497200Y-84480400D01*
X193050600Y-84927000D02*
X181915400Y-84927000D01*
%TD*%
%TA.AperFunction,Conductor*%
%TO.N,GND*%
G36*
X264461243Y-31305007D02*
G01*
X264530484Y-31360226D01*
X264568911Y-31440018D01*
X264573900Y-31484300D01*
X264573900Y-109427914D01*
X264554193Y-109514257D01*
X264498974Y-109583498D01*
X264419182Y-109621925D01*
X264375198Y-109626914D01*
X225824371Y-109684700D01*
X28131500Y-109684700D01*
X28045157Y-109664993D01*
X27975916Y-109609774D01*
X27937489Y-109529982D01*
X27932500Y-109485700D01*
X27932500Y-96223180D01*
X30190300Y-96223180D01*
X30190300Y-96410419D01*
X30226826Y-96594047D01*
X30226827Y-96594050D01*
X30298477Y-96767029D01*
X30298479Y-96767033D01*
X30323357Y-96804265D01*
X30402498Y-96922708D01*
X30534892Y-97055102D01*
X30690569Y-97159122D01*
X30863549Y-97230773D01*
X30955366Y-97249036D01*
X31047181Y-97267300D01*
X31047184Y-97267300D01*
X31234419Y-97267300D01*
X31313116Y-97251645D01*
X31418051Y-97230773D01*
X31591031Y-97159122D01*
X31746708Y-97055102D01*
X31879102Y-96922708D01*
X31983122Y-96767031D01*
X32054773Y-96594051D01*
X32087226Y-96430899D01*
X32091300Y-96410419D01*
X32091300Y-96223180D01*
X32062460Y-96078194D01*
X32054773Y-96039549D01*
X31983122Y-95866569D01*
X31879102Y-95710892D01*
X31802027Y-95633817D01*
X34884800Y-95633817D01*
X34884800Y-95935383D01*
X34924162Y-96234368D01*
X35002213Y-96525658D01*
X35117617Y-96804268D01*
X35177431Y-96907870D01*
X35268396Y-97065427D01*
X35451983Y-97304683D01*
X35665216Y-97517916D01*
X35904472Y-97701503D01*
X35961002Y-97734140D01*
X36165632Y-97852283D01*
X36444242Y-97967687D01*
X36735532Y-98045738D01*
X37034517Y-98085100D01*
X37034520Y-98085100D01*
X37336080Y-98085100D01*
X37336083Y-98085100D01*
X37635068Y-98045738D01*
X37926358Y-97967687D01*
X38204968Y-97852283D01*
X38466132Y-97701500D01*
X38705380Y-97517919D01*
X38918619Y-97304680D01*
X39102200Y-97065432D01*
X39252983Y-96804268D01*
X39368387Y-96525658D01*
X39446438Y-96234368D01*
X39485800Y-95935383D01*
X39485800Y-95633817D01*
X39446438Y-95334832D01*
X39368387Y-95043542D01*
X39252983Y-94764932D01*
X39158632Y-94601511D01*
X39102203Y-94503772D01*
X38918616Y-94264516D01*
X38705383Y-94051283D01*
X38466127Y-93867696D01*
X38308570Y-93776731D01*
X38204968Y-93716917D01*
X37926358Y-93601513D01*
X37926356Y-93601512D01*
X37926355Y-93601512D01*
X37780713Y-93562487D01*
X37635068Y-93523462D01*
X37336083Y-93484100D01*
X37034517Y-93484100D01*
X36735532Y-93523462D01*
X36735528Y-93523462D01*
X36735528Y-93523463D01*
X36444244Y-93601512D01*
X36165636Y-93716915D01*
X36165634Y-93716916D01*
X35904472Y-93867696D01*
X35665216Y-94051283D01*
X35451983Y-94264516D01*
X35268396Y-94503772D01*
X35117616Y-94764934D01*
X35117615Y-94764936D01*
X35002212Y-95043544D01*
X34970365Y-95162400D01*
X34924162Y-95334832D01*
X34884800Y-95633817D01*
X31802027Y-95633817D01*
X31746708Y-95578498D01*
X31668346Y-95526138D01*
X31591033Y-95474479D01*
X31591029Y-95474477D01*
X31540365Y-95453491D01*
X31418051Y-95402827D01*
X31418048Y-95402826D01*
X31418047Y-95402826D01*
X31234419Y-95366300D01*
X31234416Y-95366300D01*
X31047184Y-95366300D01*
X31047181Y-95366300D01*
X30863552Y-95402826D01*
X30863549Y-95402827D01*
X30690570Y-95474477D01*
X30690566Y-95474479D01*
X30534896Y-95578495D01*
X30534888Y-95578501D01*
X30402501Y-95710888D01*
X30402495Y-95710896D01*
X30298479Y-95866566D01*
X30298477Y-95866570D01*
X30226827Y-96039549D01*
X30226826Y-96039552D01*
X30190300Y-96223180D01*
X27932500Y-96223180D01*
X27932500Y-45867527D01*
X29711500Y-45867527D01*
X29711500Y-80268872D01*
X29746717Y-80581436D01*
X29816710Y-80888101D01*
X29816711Y-80888104D01*
X29920594Y-81184984D01*
X29920594Y-81184985D01*
X29920597Y-81184991D01*
X29920598Y-81184994D01*
X30057074Y-81468389D01*
X30224423Y-81734723D01*
X30356498Y-81900340D01*
X30406270Y-81962752D01*
X30420539Y-81980644D01*
X40885339Y-92445444D01*
X41107756Y-92667861D01*
X41353677Y-92863977D01*
X41620011Y-93031326D01*
X41863325Y-93148500D01*
X41863324Y-93148500D01*
X41874908Y-93154078D01*
X41903406Y-93167802D01*
X42200300Y-93271689D01*
X42506960Y-93341682D01*
X42819527Y-93376900D01*
X42819528Y-93376900D01*
X101655672Y-93376900D01*
X101655673Y-93376900D01*
X101968240Y-93341682D01*
X102274900Y-93271690D01*
X102571794Y-93167802D01*
X102855189Y-93031326D01*
X103121523Y-92863977D01*
X103367444Y-92667861D01*
X104350119Y-91685186D01*
X104425107Y-91638067D01*
X104490833Y-91626900D01*
X126138268Y-91626900D01*
X126225245Y-91609598D01*
X126341220Y-91586530D01*
X126532398Y-91507341D01*
X126559166Y-91489455D01*
X126704455Y-91392377D01*
X126850777Y-91246055D01*
X126850778Y-91246053D01*
X126862113Y-91234718D01*
X126862119Y-91234711D01*
X128448711Y-89648119D01*
X128448718Y-89648113D01*
X128460053Y-89636778D01*
X128460055Y-89636777D01*
X128606377Y-89490455D01*
X128721341Y-89318398D01*
X128800530Y-89127220D01*
X128825631Y-89001027D01*
X128835129Y-88953279D01*
X128840900Y-88924266D01*
X128840900Y-84650511D01*
X128860607Y-84564168D01*
X128878905Y-84533543D01*
X128901960Y-84501810D01*
X128902687Y-84500810D01*
X128966303Y-84375958D01*
X128995614Y-84318431D01*
X128995614Y-84318429D01*
X128995620Y-84318419D01*
X129058877Y-84123734D01*
X129090900Y-83921552D01*
X129090900Y-83717248D01*
X140490100Y-83717248D01*
X140490100Y-83921952D01*
X140509427Y-84043977D01*
X140522122Y-84124129D01*
X140522123Y-84124136D01*
X140585377Y-84318812D01*
X140585385Y-84318831D01*
X140678306Y-84501199D01*
X140678312Y-84501209D01*
X140739809Y-84585853D01*
X140798634Y-84666819D01*
X140943381Y-84811566D01*
X141108715Y-84931687D01*
X141108990Y-84931887D01*
X141109000Y-84931893D01*
X141291368Y-85024814D01*
X141291375Y-85024816D01*
X141291381Y-85024820D01*
X141291386Y-85024821D01*
X141291387Y-85024822D01*
X141293234Y-85025422D01*
X141486066Y-85088077D01*
X141688248Y-85120100D01*
X141688249Y-85120100D01*
X141892951Y-85120100D01*
X141892952Y-85120100D01*
X142095134Y-85088077D01*
X142289819Y-85024820D01*
X142290212Y-85024620D01*
X142472199Y-84931893D01*
X142472203Y-84931890D01*
X142472210Y-84931887D01*
X142637819Y-84811566D01*
X142782566Y-84666819D01*
X142902887Y-84501210D01*
X142902990Y-84501009D01*
X142995814Y-84318831D01*
X142995814Y-84318829D01*
X142995820Y-84318819D01*
X143059077Y-84124134D01*
X143091100Y-83921952D01*
X143091100Y-83717248D01*
X145490100Y-83717248D01*
X145490100Y-83921952D01*
X145509427Y-84043977D01*
X145522122Y-84124129D01*
X145522123Y-84124136D01*
X145585377Y-84318812D01*
X145585385Y-84318831D01*
X145678306Y-84501199D01*
X145678312Y-84501209D01*
X145702095Y-84533943D01*
X145736902Y-84615379D01*
X145740100Y-84650911D01*
X145740100Y-99802468D01*
X145776260Y-99984255D01*
X145780470Y-100005420D01*
X145804890Y-100064376D01*
X145859656Y-100196593D01*
X145859658Y-100196596D01*
X145859659Y-100196598D01*
X145974623Y-100368655D01*
X146060082Y-100454114D01*
X146127894Y-100521926D01*
X146127905Y-100521936D01*
X148175422Y-102569453D01*
X148175429Y-102569461D01*
X148180423Y-102574455D01*
X148326745Y-102720777D01*
X148498802Y-102835741D01*
X148498804Y-102835742D01*
X148498806Y-102835743D01*
X148547645Y-102855972D01*
X148689980Y-102914930D01*
X148791457Y-102935115D01*
X148892932Y-102955300D01*
X148892935Y-102955300D01*
X177137735Y-102955300D01*
X207770130Y-102955300D01*
X207770135Y-102955301D01*
X207977065Y-102955301D01*
X207977070Y-102955300D01*
X242466535Y-102955300D01*
X242673465Y-102955300D01*
X242673468Y-102955300D01*
X242760445Y-102937998D01*
X242876420Y-102914930D01*
X243067598Y-102835741D01*
X243239655Y-102720777D01*
X243385977Y-102574455D01*
X243385977Y-102574453D01*
X243402356Y-102558075D01*
X243402359Y-102558070D01*
X244191860Y-101768570D01*
X255810100Y-101768570D01*
X255810100Y-101939429D01*
X255836826Y-102108180D01*
X255836827Y-102108186D01*
X255836828Y-102108189D01*
X255889627Y-102270688D01*
X255967197Y-102422926D01*
X255967199Y-102422929D01*
X256067629Y-102561159D01*
X256188440Y-102681970D01*
X256188443Y-102681972D01*
X256188444Y-102681973D01*
X256326674Y-102782403D01*
X256478912Y-102859973D01*
X256641411Y-102912772D01*
X256642525Y-102912948D01*
X256643086Y-102913173D01*
X256649019Y-102914598D01*
X256648809Y-102915468D01*
X256724724Y-102945913D01*
X256784480Y-103011278D01*
X256809957Y-103096098D01*
X256796110Y-103183572D01*
X256745680Y-103256375D01*
X256668656Y-103300088D01*
X256611409Y-103308500D01*
X256065733Y-103308500D01*
X256040610Y-103311414D01*
X255937838Y-103356792D01*
X255937833Y-103356795D01*
X255858395Y-103436233D01*
X255858392Y-103436238D01*
X255813015Y-103539007D01*
X255813015Y-103539009D01*
X255810100Y-103564130D01*
X255810100Y-105223866D01*
X255813014Y-105248989D01*
X255813015Y-105248991D01*
X255858394Y-105351765D01*
X255937835Y-105431206D01*
X256040609Y-105476585D01*
X256065735Y-105479500D01*
X257725464Y-105479499D01*
X257725466Y-105479499D01*
X257738027Y-105478042D01*
X257750591Y-105476585D01*
X257853365Y-105431206D01*
X257932806Y-105351765D01*
X257978185Y-105248991D01*
X257981100Y-105223865D01*
X257981099Y-103564136D01*
X257981098Y-103564130D01*
X257978185Y-103539010D01*
X257932807Y-103436238D01*
X257932806Y-103436235D01*
X257853365Y-103356794D01*
X257853362Y-103356792D01*
X257853361Y-103356792D01*
X257750591Y-103311415D01*
X257725469Y-103308500D01*
X257179793Y-103308500D01*
X257093450Y-103288793D01*
X257024209Y-103233574D01*
X256985782Y-103153782D01*
X256985782Y-103065218D01*
X257024209Y-102985426D01*
X257093450Y-102930207D01*
X257142265Y-102914950D01*
X257142181Y-102914598D01*
X257147418Y-102913340D01*
X257148671Y-102912949D01*
X257149789Y-102912772D01*
X257312288Y-102859973D01*
X257464526Y-102782403D01*
X257602756Y-102681973D01*
X257723573Y-102561156D01*
X257824003Y-102422926D01*
X257901573Y-102270688D01*
X257954372Y-102108189D01*
X257981100Y-101939431D01*
X257981100Y-101768569D01*
X257954372Y-101599811D01*
X257901573Y-101437312D01*
X257824003Y-101285074D01*
X257723573Y-101146844D01*
X257723572Y-101146843D01*
X257723570Y-101146840D01*
X257602759Y-101026029D01*
X257464529Y-100925599D01*
X257464528Y-100925598D01*
X257464526Y-100925597D01*
X257312288Y-100848027D01*
X257312285Y-100848026D01*
X257312283Y-100848025D01*
X257149796Y-100795230D01*
X257149793Y-100795229D01*
X257149789Y-100795228D01*
X257149782Y-100795226D01*
X257149778Y-100795226D01*
X257079919Y-100784162D01*
X257057112Y-100780549D01*
X256974916Y-100747579D01*
X256915164Y-100682209D01*
X256894667Y-100613952D01*
X256894365Y-100615698D01*
X256887652Y-100658086D01*
X256886828Y-100659274D01*
X256886582Y-100660699D01*
X256861652Y-100695614D01*
X256837217Y-100730885D01*
X256835959Y-100731598D01*
X256835119Y-100732776D01*
X256797486Y-100753429D01*
X256760190Y-100774592D01*
X256758024Y-100775086D01*
X256757480Y-100775385D01*
X256756483Y-100775438D01*
X256734088Y-100780549D01*
X256724541Y-100782061D01*
X256641419Y-100795226D01*
X256641403Y-100795230D01*
X256478916Y-100848025D01*
X256326670Y-100925599D01*
X256188440Y-101026029D01*
X256067629Y-101146840D01*
X255967199Y-101285070D01*
X255889625Y-101437316D01*
X255836830Y-101599803D01*
X255836826Y-101599819D01*
X255810100Y-101768570D01*
X244191860Y-101768570D01*
X246383177Y-99577255D01*
X246498142Y-99405198D01*
X246577330Y-99214020D01*
X246617701Y-99011065D01*
X246617701Y-98804135D01*
X246617701Y-98795927D01*
X246617700Y-98795901D01*
X246617700Y-83575559D01*
X246637407Y-83489216D01*
X246675986Y-83434845D01*
X247141645Y-82969186D01*
X247216633Y-82922067D01*
X247282359Y-82910900D01*
X251532172Y-82910900D01*
X251618515Y-82930607D01*
X251687756Y-82985826D01*
X251726183Y-83065618D01*
X251729543Y-83118759D01*
X251730300Y-83118759D01*
X251730300Y-98350668D01*
X251770669Y-98553616D01*
X251770670Y-98553619D01*
X251849856Y-98744793D01*
X251849858Y-98744796D01*
X251849859Y-98744798D01*
X251964823Y-98916855D01*
X252059032Y-99011064D01*
X252118094Y-99070126D01*
X252118105Y-99070136D01*
X253026622Y-99978653D01*
X253026629Y-99978661D01*
X253031623Y-99983655D01*
X253177945Y-100129977D01*
X253346200Y-100242400D01*
X253346204Y-100242403D01*
X253346202Y-100242404D01*
X253346213Y-100242409D01*
X253350002Y-100244941D01*
X253541180Y-100324130D01*
X253642657Y-100344315D01*
X253744132Y-100364500D01*
X253744135Y-100364500D01*
X253951065Y-100364500D01*
X256584433Y-100364500D01*
X256618349Y-100367411D01*
X256632380Y-100369837D01*
X256641411Y-100372772D01*
X256735524Y-100387677D01*
X256736873Y-100387911D01*
X256776470Y-100404450D01*
X256816284Y-100420421D01*
X256817260Y-100421488D01*
X256818594Y-100422046D01*
X256847081Y-100454114D01*
X256876035Y-100485791D01*
X256876450Y-100487176D01*
X256877411Y-100488257D01*
X256889166Y-100529521D01*
X256896548Y-100554103D01*
X256903547Y-100509915D01*
X256953982Y-100437115D01*
X257031009Y-100393408D01*
X257057111Y-100387450D01*
X257149789Y-100372772D01*
X257312288Y-100319973D01*
X257464526Y-100242403D01*
X257602756Y-100141973D01*
X257723573Y-100021156D01*
X257824003Y-99882926D01*
X257901573Y-99730688D01*
X257954372Y-99568189D01*
X257981100Y-99399431D01*
X257981100Y-99228569D01*
X257954372Y-99059811D01*
X257901573Y-98897312D01*
X257824003Y-98745074D01*
X257723573Y-98606844D01*
X257723572Y-98606843D01*
X257723570Y-98606840D01*
X257602759Y-98486029D01*
X257464529Y-98385599D01*
X257464528Y-98385598D01*
X257464526Y-98385597D01*
X257312288Y-98308027D01*
X257312285Y-98308026D01*
X257312283Y-98308025D01*
X257149796Y-98255230D01*
X257149793Y-98255229D01*
X257149789Y-98255228D01*
X257149782Y-98255226D01*
X257149778Y-98255226D01*
X257093216Y-98246267D01*
X256981031Y-98228500D01*
X256810169Y-98228500D01*
X256709276Y-98244479D01*
X256641413Y-98255227D01*
X256633805Y-98257054D01*
X256633487Y-98255731D01*
X256584433Y-98263500D01*
X254365159Y-98263500D01*
X254278816Y-98243793D01*
X254224445Y-98205214D01*
X253889586Y-97870355D01*
X253842467Y-97795367D01*
X253831300Y-97729641D01*
X253831300Y-96688570D01*
X255810100Y-96688570D01*
X255810100Y-96859429D01*
X255836826Y-97028180D01*
X255836830Y-97028196D01*
X255879370Y-97159122D01*
X255889627Y-97190688D01*
X255947711Y-97304683D01*
X255967199Y-97342929D01*
X256067629Y-97481159D01*
X256188440Y-97601970D01*
X256188443Y-97601972D01*
X256188444Y-97601973D01*
X256326674Y-97702403D01*
X256478912Y-97779973D01*
X256641411Y-97832772D01*
X256810169Y-97859500D01*
X256981031Y-97859500D01*
X257149789Y-97832772D01*
X257312288Y-97779973D01*
X257464526Y-97702403D01*
X257602756Y-97601973D01*
X257723573Y-97481156D01*
X257824003Y-97342926D01*
X257901573Y-97190688D01*
X257954372Y-97028189D01*
X257981100Y-96859431D01*
X257981100Y-96688569D01*
X257954372Y-96519811D01*
X257901573Y-96357312D01*
X257824003Y-96205074D01*
X257723573Y-96066844D01*
X257723572Y-96066843D01*
X257723570Y-96066840D01*
X257602759Y-95946029D01*
X257464529Y-95845599D01*
X257464528Y-95845598D01*
X257464526Y-95845597D01*
X257312288Y-95768027D01*
X257312285Y-95768026D01*
X257312283Y-95768025D01*
X257149796Y-95715230D01*
X257149793Y-95715229D01*
X257149789Y-95715228D01*
X257149782Y-95715226D01*
X257149778Y-95715226D01*
X257093216Y-95706267D01*
X256981031Y-95688500D01*
X256810169Y-95688500D01*
X256709838Y-95704390D01*
X256641419Y-95715226D01*
X256641403Y-95715230D01*
X256478916Y-95768025D01*
X256326670Y-95845599D01*
X256188440Y-95946029D01*
X256067629Y-96066840D01*
X255967199Y-96205070D01*
X255889625Y-96357316D01*
X255836830Y-96519803D01*
X255836826Y-96519819D01*
X255810100Y-96688570D01*
X253831300Y-96688570D01*
X253831300Y-94148569D01*
X255810100Y-94148569D01*
X255810100Y-94319431D01*
X255811943Y-94331066D01*
X255836826Y-94488180D01*
X255836827Y-94488186D01*
X255836828Y-94488189D01*
X255889627Y-94650688D01*
X255947838Y-94764932D01*
X255967199Y-94802929D01*
X256067629Y-94941159D01*
X256188440Y-95061970D01*
X256188443Y-95061972D01*
X256188444Y-95061973D01*
X256326674Y-95162403D01*
X256478912Y-95239973D01*
X256641411Y-95292772D01*
X256810169Y-95319500D01*
X256981031Y-95319500D01*
X257149789Y-95292772D01*
X257312288Y-95239973D01*
X257464526Y-95162403D01*
X257602756Y-95061973D01*
X257723573Y-94941156D01*
X257824003Y-94802926D01*
X257901573Y-94650688D01*
X257954372Y-94488189D01*
X257981100Y-94319431D01*
X257981100Y-94148569D01*
X257954372Y-93979811D01*
X257901573Y-93817312D01*
X257824003Y-93665074D01*
X257723573Y-93526844D01*
X257723572Y-93526843D01*
X257723570Y-93526840D01*
X257602759Y-93406029D01*
X257464529Y-93305599D01*
X257464528Y-93305598D01*
X257464526Y-93305597D01*
X257312288Y-93228027D01*
X257312285Y-93228026D01*
X257312283Y-93228025D01*
X257149796Y-93175230D01*
X257149792Y-93175229D01*
X257149789Y-93175228D01*
X257149786Y-93175227D01*
X257149780Y-93175226D01*
X256996184Y-93150900D01*
X256981031Y-93148500D01*
X256810169Y-93148500D01*
X256795016Y-93150900D01*
X256641419Y-93175226D01*
X256641403Y-93175230D01*
X256478916Y-93228025D01*
X256326670Y-93305599D01*
X256188440Y-93406029D01*
X256067629Y-93526840D01*
X255967199Y-93665070D01*
X255889625Y-93817316D01*
X255836830Y-93979803D01*
X255836826Y-93979819D01*
X255825508Y-94051283D01*
X255810100Y-94148569D01*
X253831300Y-94148569D01*
X253831300Y-83749559D01*
X253851007Y-83663216D01*
X253889586Y-83608845D01*
X254529245Y-82969186D01*
X254604233Y-82922067D01*
X254669959Y-82910900D01*
X256013489Y-82910900D01*
X256099832Y-82930607D01*
X256130457Y-82948905D01*
X256163190Y-82972687D01*
X256163200Y-82972693D01*
X256345568Y-83065614D01*
X256345575Y-83065616D01*
X256345581Y-83065620D01*
X256540266Y-83128877D01*
X256742448Y-83160900D01*
X256742449Y-83160900D01*
X256947151Y-83160900D01*
X256947152Y-83160900D01*
X257149334Y-83128877D01*
X257344019Y-83065620D01*
X257344031Y-83065614D01*
X257526399Y-82972693D01*
X257526403Y-82972690D01*
X257526410Y-82972687D01*
X257692019Y-82852366D01*
X257836766Y-82707619D01*
X257957087Y-82542010D01*
X257968761Y-82519100D01*
X258050014Y-82359631D01*
X258050014Y-82359629D01*
X258050020Y-82359619D01*
X258113277Y-82164934D01*
X258145300Y-81962752D01*
X258145300Y-81758048D01*
X258113277Y-81555866D01*
X258050020Y-81361181D01*
X258050016Y-81361175D01*
X258050014Y-81361168D01*
X257957093Y-81178800D01*
X257957087Y-81178790D01*
X257917651Y-81124511D01*
X257836766Y-81013181D01*
X257692019Y-80868434D01*
X257611453Y-80809900D01*
X257526409Y-80748112D01*
X257526399Y-80748106D01*
X257344031Y-80655185D01*
X257344012Y-80655177D01*
X257149336Y-80591923D01*
X257149329Y-80591922D01*
X257034535Y-80573740D01*
X256947152Y-80559900D01*
X256742448Y-80559900D01*
X256681887Y-80569492D01*
X256540270Y-80591922D01*
X256540263Y-80591923D01*
X256345587Y-80655177D01*
X256345568Y-80655185D01*
X256163200Y-80748106D01*
X256163190Y-80748112D01*
X256130457Y-80771895D01*
X256049021Y-80806702D01*
X256013489Y-80809900D01*
X246661332Y-80809900D01*
X246458383Y-80850269D01*
X246458380Y-80850270D01*
X246267206Y-80929456D01*
X246267203Y-80929458D01*
X246095146Y-81044422D01*
X246095141Y-81044426D01*
X244751226Y-82388341D01*
X244751222Y-82388346D01*
X244636258Y-82560403D01*
X244636256Y-82560406D01*
X244557070Y-82751580D01*
X244557069Y-82751583D01*
X244516700Y-82954531D01*
X244516700Y-98390040D01*
X244496993Y-98476383D01*
X244458414Y-98530754D01*
X242193155Y-100796014D01*
X242118167Y-100843133D01*
X242052441Y-100854300D01*
X208391160Y-100854300D01*
X208304817Y-100834593D01*
X208250446Y-100796014D01*
X206035986Y-98581554D01*
X205988867Y-98506566D01*
X205977700Y-98440840D01*
X205977700Y-94535750D01*
X217696900Y-94535750D01*
X217696900Y-94744650D01*
X217700935Y-94764934D01*
X217737654Y-94949533D01*
X217737655Y-94949537D01*
X217817594Y-95142530D01*
X217817598Y-95142537D01*
X217817732Y-95142737D01*
X217933656Y-95316229D01*
X218081371Y-95463944D01*
X218252808Y-95578495D01*
X218255062Y-95580001D01*
X218255069Y-95580005D01*
X218383731Y-95633297D01*
X218448064Y-95659945D01*
X218652950Y-95700700D01*
X218652951Y-95700700D01*
X218861849Y-95700700D01*
X218861850Y-95700700D01*
X219066736Y-95659945D01*
X219129815Y-95633817D01*
X234884800Y-95633817D01*
X234884800Y-95935383D01*
X234924162Y-96234368D01*
X235002213Y-96525658D01*
X235117617Y-96804268D01*
X235177431Y-96907870D01*
X235268396Y-97065427D01*
X235451983Y-97304683D01*
X235665216Y-97517916D01*
X235904472Y-97701503D01*
X235961002Y-97734140D01*
X236165632Y-97852283D01*
X236444242Y-97967687D01*
X236735532Y-98045738D01*
X237034517Y-98085100D01*
X237034520Y-98085100D01*
X237336080Y-98085100D01*
X237336083Y-98085100D01*
X237635068Y-98045738D01*
X237926358Y-97967687D01*
X238204968Y-97852283D01*
X238466132Y-97701500D01*
X238705380Y-97517919D01*
X238918619Y-97304680D01*
X239102200Y-97065432D01*
X239252983Y-96804268D01*
X239368387Y-96525658D01*
X239446438Y-96234368D01*
X239485800Y-95935383D01*
X239485800Y-95633817D01*
X239446438Y-95334832D01*
X239368387Y-95043542D01*
X239252983Y-94764932D01*
X239158632Y-94601511D01*
X239102203Y-94503772D01*
X238918616Y-94264516D01*
X238705383Y-94051283D01*
X238466127Y-93867696D01*
X238308570Y-93776731D01*
X238204968Y-93716917D01*
X237926358Y-93601513D01*
X237926356Y-93601512D01*
X237926355Y-93601512D01*
X237780713Y-93562487D01*
X237635068Y-93523462D01*
X237336083Y-93484100D01*
X237034517Y-93484100D01*
X236735532Y-93523462D01*
X236735528Y-93523462D01*
X236735528Y-93523463D01*
X236444244Y-93601512D01*
X236165636Y-93716915D01*
X236165634Y-93716916D01*
X235904472Y-93867696D01*
X235665216Y-94051283D01*
X235451983Y-94264516D01*
X235268396Y-94503772D01*
X235117616Y-94764934D01*
X235117615Y-94764936D01*
X235002212Y-95043544D01*
X234970365Y-95162400D01*
X234924162Y-95334832D01*
X234884800Y-95633817D01*
X219129815Y-95633817D01*
X219259735Y-95580003D01*
X219433429Y-95463944D01*
X219581144Y-95316229D01*
X219697203Y-95142535D01*
X219777145Y-94949536D01*
X219817900Y-94744650D01*
X219817900Y-94535750D01*
X219777145Y-94330864D01*
X219701637Y-94148569D01*
X219697205Y-94137869D01*
X219697201Y-94137862D01*
X219696422Y-94136697D01*
X219581144Y-93964171D01*
X219433429Y-93816456D01*
X219284459Y-93716917D01*
X219259737Y-93700398D01*
X219259730Y-93700394D01*
X219066737Y-93620455D01*
X219066733Y-93620454D01*
X218929528Y-93593162D01*
X218861850Y-93579700D01*
X218652950Y-93579700D01*
X218602076Y-93589819D01*
X218448066Y-93620454D01*
X218448062Y-93620455D01*
X218255069Y-93700394D01*
X218255062Y-93700398D01*
X218081375Y-93816453D01*
X218081367Y-93816459D01*
X217933659Y-93964167D01*
X217933653Y-93964175D01*
X217817598Y-94137862D01*
X217817594Y-94137869D01*
X217737655Y-94330862D01*
X217737654Y-94330866D01*
X217706359Y-94488196D01*
X217696900Y-94535750D01*
X205977700Y-94535750D01*
X205977700Y-92874104D01*
X205977701Y-92874083D01*
X205977701Y-92657335D01*
X205955793Y-92547198D01*
X205937330Y-92454380D01*
X205858142Y-92263202D01*
X205743177Y-92091145D01*
X205743175Y-92091142D01*
X205743171Y-92091138D01*
X205647783Y-91995750D01*
X217696900Y-91995750D01*
X217696900Y-92204649D01*
X217737654Y-92409533D01*
X217737655Y-92409537D01*
X217817594Y-92602530D01*
X217817598Y-92602537D01*
X217875236Y-92688798D01*
X217933656Y-92776229D01*
X218081371Y-92923944D01*
X218242073Y-93031322D01*
X218255062Y-93040001D01*
X218255069Y-93040005D01*
X218383731Y-93093297D01*
X218448064Y-93119945D01*
X218652950Y-93160700D01*
X218652951Y-93160700D01*
X218861849Y-93160700D01*
X218861850Y-93160700D01*
X219066736Y-93119945D01*
X219259735Y-93040003D01*
X219433429Y-92923944D01*
X219581144Y-92776229D01*
X219697203Y-92602535D01*
X219777145Y-92409536D01*
X219817900Y-92204650D01*
X219817900Y-91995750D01*
X219777145Y-91790864D01*
X219697203Y-91597865D01*
X219581144Y-91424171D01*
X219433429Y-91276456D01*
X219345998Y-91218036D01*
X219259737Y-91160398D01*
X219259730Y-91160394D01*
X219066737Y-91080455D01*
X219066733Y-91080454D01*
X218913128Y-91049900D01*
X218861850Y-91039700D01*
X218652950Y-91039700D01*
X218622701Y-91045717D01*
X218448066Y-91080454D01*
X218448062Y-91080455D01*
X218255069Y-91160394D01*
X218255062Y-91160398D01*
X218081375Y-91276453D01*
X218081367Y-91276459D01*
X217933659Y-91424167D01*
X217933653Y-91424175D01*
X217817598Y-91597862D01*
X217817594Y-91597869D01*
X217737655Y-91790862D01*
X217737654Y-91790866D01*
X217696900Y-91995750D01*
X205647783Y-91995750D01*
X205094122Y-91442091D01*
X205094120Y-91442088D01*
X204936458Y-91284426D01*
X204936455Y-91284423D01*
X204764398Y-91169459D01*
X204764396Y-91169458D01*
X204764393Y-91169456D01*
X204632176Y-91114690D01*
X204573220Y-91090270D01*
X204573217Y-91090269D01*
X204573216Y-91090269D01*
X204370268Y-91049900D01*
X204370265Y-91049900D01*
X201436721Y-91049900D01*
X201396132Y-91045717D01*
X201379571Y-91042266D01*
X201372820Y-91039470D01*
X201225498Y-91010166D01*
X201224538Y-91009966D01*
X201185040Y-90991860D01*
X201145464Y-90974151D01*
X201144869Y-90973446D01*
X201144030Y-90973062D01*
X201116306Y-90939621D01*
X201088326Y-90906485D01*
X201088095Y-90905592D01*
X201087506Y-90904881D01*
X201087169Y-90903527D01*
X201046861Y-90957088D01*
X200968178Y-90997737D01*
X200957295Y-91000221D01*
X200759983Y-91039469D01*
X200759980Y-91039470D01*
X200568803Y-91118658D01*
X200568799Y-91118660D01*
X200396749Y-91233621D01*
X200396741Y-91233627D01*
X200250427Y-91379941D01*
X200250421Y-91379949D01*
X200135460Y-91551999D01*
X200135458Y-91552003D01*
X200056270Y-91743180D01*
X200056269Y-91743183D01*
X200015900Y-91946131D01*
X200015900Y-92153068D01*
X200037807Y-92263202D01*
X200056270Y-92356020D01*
X200135459Y-92547198D01*
X200250424Y-92719255D01*
X200250427Y-92719258D01*
X200251117Y-92719948D01*
X200275866Y-92750104D01*
X200293456Y-92776429D01*
X200441171Y-92924144D01*
X200601574Y-93031322D01*
X200614862Y-93040201D01*
X200614869Y-93040205D01*
X200743531Y-93093497D01*
X200807864Y-93120145D01*
X201012750Y-93160900D01*
X201012751Y-93160900D01*
X201221649Y-93160900D01*
X201221650Y-93160900D01*
X201252699Y-93154723D01*
X201291521Y-93150900D01*
X203677700Y-93150900D01*
X203764043Y-93170607D01*
X203833284Y-93225826D01*
X203871711Y-93305618D01*
X203876700Y-93349900D01*
X203876700Y-99061868D01*
X203917069Y-99264816D01*
X203917070Y-99264819D01*
X203996256Y-99455993D01*
X203996258Y-99455996D01*
X203996259Y-99455998D01*
X204111223Y-99628055D01*
X204111226Y-99628058D01*
X204268885Y-99785717D01*
X204268891Y-99785722D01*
X204997755Y-100514586D01*
X205044874Y-100589574D01*
X205054790Y-100677581D01*
X205025539Y-100761174D01*
X204962915Y-100823798D01*
X204879322Y-100853049D01*
X204857041Y-100854300D01*
X177758759Y-100854300D01*
X177672416Y-100834593D01*
X177618045Y-100796014D01*
X175759786Y-98937755D01*
X175712667Y-98862767D01*
X175701500Y-98797041D01*
X175701500Y-97089854D01*
X177817900Y-97089854D01*
X177817900Y-97270945D01*
X177846228Y-97449807D01*
X177846231Y-97449818D01*
X177902186Y-97622032D01*
X177902194Y-97622051D01*
X177984400Y-97783388D01*
X177984403Y-97783392D01*
X177984404Y-97783394D01*
X178090847Y-97929901D01*
X178218899Y-98057953D01*
X178365406Y-98164396D01*
X178365408Y-98164397D01*
X178365411Y-98164399D01*
X178526748Y-98246605D01*
X178526755Y-98246607D01*
X178526761Y-98246611D01*
X178526766Y-98246612D01*
X178526767Y-98246613D01*
X178698981Y-98302568D01*
X178698985Y-98302569D01*
X178698991Y-98302571D01*
X178877854Y-98330900D01*
X179058946Y-98330900D01*
X179237809Y-98302571D01*
X179410039Y-98246611D01*
X179571394Y-98164396D01*
X179717901Y-98057953D01*
X179845953Y-97929901D01*
X179952396Y-97783394D01*
X179981591Y-97726094D01*
X180038346Y-97658113D01*
X180118980Y-97621486D01*
X180207521Y-97623472D01*
X180286432Y-97663678D01*
X180340084Y-97734140D01*
X180357900Y-97816440D01*
X180357900Y-98075266D01*
X180360814Y-98100389D01*
X180405675Y-98201991D01*
X180406194Y-98203165D01*
X180485635Y-98282606D01*
X180588409Y-98327985D01*
X180613535Y-98330900D01*
X182403264Y-98330899D01*
X182403266Y-98330899D01*
X182415827Y-98329442D01*
X182428391Y-98327985D01*
X182531165Y-98282606D01*
X182610606Y-98203165D01*
X182655985Y-98100391D01*
X182658900Y-98075265D01*
X182658899Y-96285536D01*
X182658898Y-96285530D01*
X182655985Y-96260410D01*
X182655466Y-96259235D01*
X182610606Y-96157635D01*
X182531165Y-96078194D01*
X182531162Y-96078192D01*
X182531161Y-96078192D01*
X182428391Y-96032815D01*
X182403266Y-96029900D01*
X180613533Y-96029900D01*
X180588410Y-96032814D01*
X180485638Y-96078192D01*
X180485633Y-96078195D01*
X180406195Y-96157633D01*
X180406192Y-96157638D01*
X180360815Y-96260407D01*
X180360815Y-96260409D01*
X180357900Y-96285530D01*
X180357900Y-96544356D01*
X180338193Y-96630699D01*
X180282974Y-96699940D01*
X180203182Y-96738367D01*
X180114618Y-96738367D01*
X180034826Y-96699940D01*
X179981590Y-96634701D01*
X179952398Y-96577409D01*
X179914799Y-96525658D01*
X179845953Y-96430899D01*
X179717901Y-96302847D01*
X179571394Y-96196404D01*
X179571392Y-96196403D01*
X179571388Y-96196400D01*
X179410051Y-96114194D01*
X179410032Y-96114186D01*
X179237818Y-96058231D01*
X179237807Y-96058228D01*
X179058946Y-96029900D01*
X178877854Y-96029900D01*
X178698992Y-96058228D01*
X178698981Y-96058231D01*
X178526767Y-96114186D01*
X178526748Y-96114194D01*
X178365411Y-96196400D01*
X178218896Y-96302849D01*
X178090849Y-96430896D01*
X177984400Y-96577411D01*
X177902194Y-96738748D01*
X177902186Y-96738767D01*
X177846231Y-96910981D01*
X177846228Y-96910992D01*
X177817900Y-97089854D01*
X175701500Y-97089854D01*
X175701500Y-94535950D01*
X200056700Y-94535950D01*
X200056700Y-94744850D01*
X200068252Y-94802926D01*
X200097454Y-94949733D01*
X200097455Y-94949737D01*
X200177394Y-95142730D01*
X200177397Y-95142735D01*
X200293456Y-95316429D01*
X200441171Y-95464144D01*
X200612309Y-95578495D01*
X200614862Y-95580201D01*
X200614869Y-95580205D01*
X200743531Y-95633497D01*
X200807864Y-95660145D01*
X201012750Y-95700900D01*
X201012751Y-95700900D01*
X201221649Y-95700900D01*
X201221650Y-95700900D01*
X201426536Y-95660145D01*
X201619535Y-95580203D01*
X201793229Y-95464144D01*
X201940944Y-95316429D01*
X202057003Y-95142735D01*
X202136945Y-94949736D01*
X202177700Y-94744850D01*
X202177700Y-94535950D01*
X202136945Y-94331064D01*
X202109380Y-94264516D01*
X202057005Y-94138069D01*
X202057001Y-94138062D01*
X201999017Y-94051283D01*
X201940944Y-93964371D01*
X201793229Y-93816656D01*
X201643957Y-93716915D01*
X201619537Y-93700598D01*
X201619530Y-93700594D01*
X201426537Y-93620655D01*
X201426533Y-93620654D01*
X201289328Y-93593362D01*
X201221650Y-93579900D01*
X201012750Y-93579900D01*
X200961876Y-93590019D01*
X200807866Y-93620654D01*
X200807862Y-93620655D01*
X200614869Y-93700594D01*
X200614862Y-93700598D01*
X200441175Y-93816653D01*
X200441167Y-93816659D01*
X200293459Y-93964367D01*
X200293453Y-93964375D01*
X200177398Y-94138062D01*
X200177394Y-94138069D01*
X200097455Y-94331062D01*
X200097454Y-94331066D01*
X200066202Y-94488180D01*
X200056700Y-94535950D01*
X175701500Y-94535950D01*
X175701500Y-89921570D01*
X180829900Y-89921570D01*
X180829900Y-90092429D01*
X180856626Y-90261180D01*
X180856630Y-90261196D01*
X180904526Y-90408606D01*
X180909427Y-90423688D01*
X180986997Y-90575926D01*
X180986999Y-90575929D01*
X181087429Y-90714159D01*
X181208240Y-90834970D01*
X181208243Y-90834972D01*
X181208244Y-90834973D01*
X181346474Y-90935403D01*
X181498712Y-91012973D01*
X181661211Y-91065772D01*
X181829969Y-91092500D01*
X181829970Y-91092500D01*
X182000830Y-91092500D01*
X182000831Y-91092500D01*
X182169589Y-91065772D01*
X182332088Y-91012973D01*
X182484326Y-90935403D01*
X182622556Y-90834973D01*
X182743373Y-90714156D01*
X182833919Y-90589530D01*
X182900613Y-90531262D01*
X182985984Y-90507700D01*
X182994913Y-90507500D01*
X192588407Y-90507500D01*
X192639910Y-90514280D01*
X192666107Y-90521300D01*
X192666108Y-90521300D01*
X192797890Y-90521300D01*
X192797892Y-90521300D01*
X192925186Y-90487192D01*
X193039314Y-90421300D01*
X193846900Y-89613714D01*
X193912792Y-89499586D01*
X193924484Y-89455950D01*
X200056700Y-89455950D01*
X200056700Y-89664849D01*
X200097454Y-89869733D01*
X200097455Y-89869737D01*
X200177394Y-90062730D01*
X200177397Y-90062735D01*
X200293456Y-90236429D01*
X200441171Y-90384144D01*
X200550058Y-90456900D01*
X200614862Y-90500201D01*
X200614869Y-90500205D01*
X200743531Y-90553497D01*
X200807864Y-90580145D01*
X200957295Y-90609869D01*
X201038134Y-90646042D01*
X201095273Y-90713708D01*
X201096067Y-90716786D01*
X201110642Y-90697780D01*
X201136739Y-90663105D01*
X201137557Y-90662681D01*
X201138120Y-90661949D01*
X201176880Y-90642367D01*
X201215423Y-90622456D01*
X201217011Y-90622093D01*
X201217169Y-90622014D01*
X201217377Y-90622010D01*
X201226269Y-90619981D01*
X201426536Y-90580145D01*
X201619535Y-90500203D01*
X201793229Y-90384144D01*
X201940944Y-90236429D01*
X202057003Y-90062735D01*
X202136945Y-89869736D01*
X202177700Y-89664850D01*
X202177700Y-89455950D01*
X202177660Y-89455750D01*
X217696900Y-89455750D01*
X217696900Y-89664650D01*
X217709306Y-89727016D01*
X217737654Y-89869533D01*
X217737655Y-89869537D01*
X217817594Y-90062530D01*
X217817598Y-90062537D01*
X217837573Y-90092431D01*
X217933656Y-90236229D01*
X218081371Y-90383944D01*
X218190556Y-90456899D01*
X218255062Y-90500001D01*
X218255069Y-90500005D01*
X218383731Y-90553297D01*
X218448064Y-90579945D01*
X218652950Y-90620700D01*
X218652951Y-90620700D01*
X218861849Y-90620700D01*
X218861850Y-90620700D01*
X219066736Y-90579945D01*
X219259735Y-90500003D01*
X219433429Y-90383944D01*
X219581144Y-90236229D01*
X219697203Y-90062535D01*
X219777145Y-89869536D01*
X219817900Y-89664650D01*
X219817900Y-89455750D01*
X219777145Y-89250864D01*
X219737041Y-89154043D01*
X219697205Y-89057869D01*
X219697201Y-89057862D01*
X219659225Y-89001027D01*
X219581144Y-88884171D01*
X219433429Y-88736456D01*
X219345998Y-88678036D01*
X219259737Y-88620398D01*
X219259730Y-88620394D01*
X219066737Y-88540455D01*
X219066733Y-88540454D01*
X218929528Y-88513162D01*
X218861850Y-88499700D01*
X218652950Y-88499700D01*
X218602076Y-88509819D01*
X218448066Y-88540454D01*
X218448062Y-88540455D01*
X218255069Y-88620394D01*
X218255062Y-88620398D01*
X218081375Y-88736453D01*
X218081367Y-88736459D01*
X217933659Y-88884167D01*
X217933653Y-88884175D01*
X217817598Y-89057862D01*
X217817594Y-89057869D01*
X217737655Y-89250862D01*
X217737654Y-89250866D01*
X217714739Y-89366068D01*
X217696900Y-89455750D01*
X202177660Y-89455750D01*
X202136945Y-89251064D01*
X202075616Y-89103001D01*
X202057005Y-89058069D01*
X202057001Y-89058062D01*
X202030386Y-89018230D01*
X201940944Y-88884371D01*
X201793229Y-88736656D01*
X201682868Y-88662915D01*
X201619537Y-88620598D01*
X201619530Y-88620594D01*
X201426537Y-88540655D01*
X201426533Y-88540654D01*
X201289328Y-88513362D01*
X201221650Y-88499900D01*
X201012750Y-88499900D01*
X200961876Y-88510019D01*
X200807866Y-88540654D01*
X200807862Y-88540655D01*
X200614869Y-88620594D01*
X200614862Y-88620598D01*
X200441175Y-88736653D01*
X200441167Y-88736659D01*
X200293459Y-88884367D01*
X200293453Y-88884375D01*
X200177398Y-89058062D01*
X200177394Y-89058069D01*
X200097455Y-89251062D01*
X200097454Y-89251066D01*
X200056700Y-89455950D01*
X193924484Y-89455950D01*
X193946900Y-89372293D01*
X193946900Y-89240508D01*
X193946900Y-87970542D01*
X193954328Y-87937994D01*
X193958067Y-87904816D01*
X193964088Y-87895232D01*
X193966607Y-87884199D01*
X194005186Y-87829828D01*
X194255828Y-87579186D01*
X194330816Y-87532067D01*
X194396542Y-87520900D01*
X200069803Y-87520900D01*
X200156146Y-87540607D01*
X200225387Y-87595826D01*
X200235265Y-87609341D01*
X200268943Y-87659742D01*
X200293456Y-87696429D01*
X200441171Y-87844144D01*
X200550058Y-87916900D01*
X200614862Y-87960201D01*
X200614869Y-87960205D01*
X200713798Y-88001182D01*
X200807864Y-88040145D01*
X201012750Y-88080900D01*
X201012751Y-88080900D01*
X201221649Y-88080900D01*
X201221650Y-88080900D01*
X201426536Y-88040145D01*
X201619535Y-87960203D01*
X201793229Y-87844144D01*
X201940944Y-87696429D01*
X202057003Y-87522735D01*
X202136945Y-87329736D01*
X202177700Y-87124850D01*
X202177700Y-86915950D01*
X202177660Y-86915750D01*
X217696900Y-86915750D01*
X217696900Y-87124649D01*
X217737654Y-87329533D01*
X217737655Y-87329537D01*
X217817594Y-87522530D01*
X217817598Y-87522537D01*
X217837573Y-87552431D01*
X217933656Y-87696229D01*
X218081371Y-87843944D01*
X218222126Y-87937994D01*
X218255062Y-87960001D01*
X218255069Y-87960005D01*
X218354481Y-88001182D01*
X218448064Y-88039945D01*
X218652950Y-88080700D01*
X218652951Y-88080700D01*
X218861849Y-88080700D01*
X218861850Y-88080700D01*
X219066736Y-88039945D01*
X219259735Y-87960003D01*
X219433429Y-87843944D01*
X219581144Y-87696229D01*
X219697203Y-87522535D01*
X219777145Y-87329536D01*
X219817900Y-87124650D01*
X219817900Y-86915750D01*
X219777145Y-86710864D01*
X219711835Y-86553190D01*
X219697205Y-86517869D01*
X219697201Y-86517862D01*
X219659225Y-86461027D01*
X219581144Y-86344171D01*
X219433429Y-86196456D01*
X219328196Y-86126141D01*
X219259737Y-86080398D01*
X219259730Y-86080394D01*
X219066737Y-86000455D01*
X219066733Y-86000454D01*
X218929528Y-85973162D01*
X218861850Y-85959700D01*
X218652950Y-85959700D01*
X218602076Y-85969819D01*
X218448066Y-86000454D01*
X218448062Y-86000455D01*
X218255069Y-86080394D01*
X218255062Y-86080398D01*
X218081375Y-86196453D01*
X218081367Y-86196459D01*
X217933659Y-86344167D01*
X217933653Y-86344175D01*
X217817598Y-86517862D01*
X217817594Y-86517869D01*
X217737655Y-86710862D01*
X217737654Y-86710866D01*
X217696900Y-86915750D01*
X202177660Y-86915750D01*
X202136945Y-86711064D01*
X202107107Y-86639027D01*
X202057005Y-86518069D01*
X202057001Y-86518062D01*
X202018890Y-86461025D01*
X201940944Y-86344371D01*
X201793229Y-86196656D01*
X201660711Y-86108110D01*
X201619537Y-86080598D01*
X201619530Y-86080594D01*
X201426537Y-86000655D01*
X201426533Y-86000654D01*
X201243287Y-85964204D01*
X201221650Y-85959900D01*
X201012750Y-85959900D01*
X200991113Y-85964204D01*
X200807866Y-86000654D01*
X200807862Y-86000655D01*
X200614869Y-86080594D01*
X200614862Y-86080598D01*
X200441175Y-86196653D01*
X200441167Y-86196659D01*
X200293459Y-86344367D01*
X200293453Y-86344375D01*
X200235265Y-86431459D01*
X200170909Y-86492302D01*
X200086528Y-86519196D01*
X200069803Y-86519900D01*
X194172693Y-86519900D01*
X194040908Y-86519900D01*
X193916667Y-86553190D01*
X193913614Y-86554008D01*
X193799484Y-86619901D01*
X193045901Y-87373484D01*
X193045900Y-87373486D01*
X192980008Y-87487614D01*
X192945900Y-87614908D01*
X192945900Y-87614910D01*
X192945900Y-89016658D01*
X192926193Y-89103001D01*
X192887614Y-89157372D01*
X192596772Y-89448214D01*
X192521784Y-89495333D01*
X192456058Y-89506500D01*
X182994913Y-89506500D01*
X182908570Y-89486793D01*
X182839329Y-89431574D01*
X182833918Y-89424469D01*
X182791487Y-89366068D01*
X182743373Y-89299844D01*
X182743372Y-89299843D01*
X182743370Y-89299840D01*
X182622559Y-89179029D01*
X182484329Y-89078599D01*
X182484328Y-89078598D01*
X182484326Y-89078597D01*
X182332088Y-89001027D01*
X182332085Y-89001026D01*
X182332083Y-89001025D01*
X182169596Y-88948230D01*
X182169593Y-88948229D01*
X182169589Y-88948228D01*
X182169582Y-88948226D01*
X182169578Y-88948226D01*
X182099719Y-88937162D01*
X182076912Y-88933549D01*
X181994716Y-88900579D01*
X181934964Y-88835209D01*
X181914467Y-88766952D01*
X181914165Y-88768698D01*
X181907452Y-88811086D01*
X181906628Y-88812274D01*
X181906382Y-88813699D01*
X181881452Y-88848614D01*
X181857017Y-88883885D01*
X181855759Y-88884598D01*
X181854919Y-88885776D01*
X181817286Y-88906429D01*
X181779990Y-88927592D01*
X181777824Y-88928086D01*
X181777280Y-88928385D01*
X181776283Y-88928438D01*
X181753888Y-88933549D01*
X181744341Y-88935061D01*
X181661219Y-88948226D01*
X181661203Y-88948230D01*
X181498716Y-89001025D01*
X181346470Y-89078599D01*
X181208240Y-89179029D01*
X181087429Y-89299840D01*
X180986999Y-89438070D01*
X180909425Y-89590316D01*
X180856630Y-89752803D01*
X180856626Y-89752819D01*
X180829900Y-89921570D01*
X175701500Y-89921570D01*
X175701500Y-89813359D01*
X175721207Y-89727016D01*
X175759786Y-89672645D01*
X176856646Y-88575786D01*
X176931635Y-88528667D01*
X176997360Y-88517500D01*
X181604233Y-88517500D01*
X181638149Y-88520411D01*
X181652180Y-88522837D01*
X181661211Y-88525772D01*
X181755324Y-88540677D01*
X181756673Y-88540911D01*
X181796270Y-88557450D01*
X181836084Y-88573421D01*
X181837060Y-88574488D01*
X181838394Y-88575046D01*
X181866881Y-88607114D01*
X181895835Y-88638791D01*
X181896250Y-88640176D01*
X181897211Y-88641257D01*
X181908966Y-88682521D01*
X181916348Y-88707103D01*
X181923347Y-88662915D01*
X181973782Y-88590115D01*
X182050809Y-88546408D01*
X182076911Y-88540450D01*
X182169589Y-88525772D01*
X182332088Y-88472973D01*
X182484326Y-88395403D01*
X182622556Y-88294973D01*
X182743373Y-88174156D01*
X182843803Y-88035926D01*
X182921373Y-87883688D01*
X182974172Y-87721189D01*
X183000900Y-87552431D01*
X183000900Y-87381569D01*
X182974172Y-87212811D01*
X182921373Y-87050312D01*
X182843803Y-86898074D01*
X182743373Y-86759844D01*
X182743372Y-86759843D01*
X182743370Y-86759840D01*
X182622559Y-86639029D01*
X182484329Y-86538599D01*
X182484328Y-86538598D01*
X182484326Y-86538597D01*
X182332088Y-86461027D01*
X182332085Y-86461026D01*
X182332083Y-86461025D01*
X182169596Y-86408230D01*
X182169592Y-86408229D01*
X182169589Y-86408228D01*
X182169586Y-86408227D01*
X182169584Y-86408227D01*
X182169110Y-86408152D01*
X182168455Y-86408048D01*
X182167885Y-86407819D01*
X182161981Y-86406402D01*
X182162189Y-86405534D01*
X182086260Y-86375076D01*
X182026510Y-86309704D01*
X182001041Y-86224882D01*
X182014896Y-86137410D01*
X182065333Y-86064611D01*
X182142361Y-86020906D01*
X182199587Y-86012499D01*
X182745264Y-86012499D01*
X182745267Y-86012499D01*
X182760340Y-86010750D01*
X182770391Y-86009585D01*
X182873165Y-85964206D01*
X182952606Y-85884765D01*
X182997985Y-85781991D01*
X183000900Y-85756865D01*
X183000900Y-85626500D01*
X183020607Y-85540157D01*
X183075826Y-85470916D01*
X183155618Y-85432489D01*
X183199900Y-85427500D01*
X193116490Y-85427500D01*
X193116492Y-85427500D01*
X193243786Y-85393392D01*
X193357914Y-85327500D01*
X193646228Y-85039186D01*
X193721216Y-84992067D01*
X193786942Y-84980900D01*
X200069803Y-84980900D01*
X200156146Y-85000607D01*
X200225387Y-85055826D01*
X200235265Y-85069341D01*
X200248185Y-85088677D01*
X200293456Y-85156429D01*
X200441171Y-85304144D01*
X200476123Y-85327498D01*
X200614862Y-85420201D01*
X200614869Y-85420205D01*
X200644526Y-85432489D01*
X200807864Y-85500145D01*
X201012750Y-85540900D01*
X201012751Y-85540900D01*
X201221649Y-85540900D01*
X201221650Y-85540900D01*
X201426536Y-85500145D01*
X201619535Y-85420203D01*
X201793229Y-85304144D01*
X201940944Y-85156429D01*
X202057003Y-84982735D01*
X202136945Y-84789736D01*
X202177700Y-84584850D01*
X202177700Y-84375950D01*
X202177660Y-84375750D01*
X217696900Y-84375750D01*
X217696900Y-84584650D01*
X217710001Y-84650511D01*
X217737654Y-84789533D01*
X217737655Y-84789537D01*
X217817594Y-84982530D01*
X217817598Y-84982537D01*
X217846248Y-85025414D01*
X217933656Y-85156229D01*
X218081371Y-85303944D01*
X218215239Y-85393392D01*
X218255062Y-85420001D01*
X218255069Y-85420005D01*
X218285209Y-85432489D01*
X218448064Y-85499945D01*
X218652950Y-85540700D01*
X218652951Y-85540700D01*
X218861849Y-85540700D01*
X218861850Y-85540700D01*
X219066736Y-85499945D01*
X219259735Y-85420003D01*
X219433429Y-85303944D01*
X219581144Y-85156229D01*
X219697203Y-84982535D01*
X219777145Y-84789536D01*
X219817900Y-84584650D01*
X219817900Y-84375750D01*
X219777145Y-84170864D01*
X219698046Y-83979900D01*
X219697205Y-83977869D01*
X219697201Y-83977862D01*
X219660244Y-83922552D01*
X219581144Y-83804171D01*
X219433429Y-83656456D01*
X219345998Y-83598036D01*
X219259737Y-83540398D01*
X219259730Y-83540394D01*
X219066737Y-83460455D01*
X219066733Y-83460454D01*
X218929528Y-83433162D01*
X218861850Y-83419700D01*
X218652950Y-83419700D01*
X218602076Y-83429819D01*
X218448066Y-83460454D01*
X218448062Y-83460455D01*
X218255069Y-83540394D01*
X218255062Y-83540398D01*
X218081375Y-83656453D01*
X218081367Y-83656459D01*
X217933659Y-83804167D01*
X217933653Y-83804175D01*
X217817598Y-83977862D01*
X217817594Y-83977869D01*
X217737655Y-84170862D01*
X217737654Y-84170866D01*
X217708105Y-84319419D01*
X217696900Y-84375750D01*
X202177660Y-84375750D01*
X202136945Y-84171064D01*
X202106321Y-84097130D01*
X202057005Y-83978069D01*
X202057001Y-83978062D01*
X202019909Y-83922550D01*
X201940944Y-83804371D01*
X201793229Y-83656656D01*
X201671859Y-83575559D01*
X201619537Y-83540598D01*
X201619530Y-83540594D01*
X201426537Y-83460655D01*
X201426533Y-83460654D01*
X201289328Y-83433362D01*
X201221650Y-83419900D01*
X201012750Y-83419900D01*
X200961876Y-83430019D01*
X200807866Y-83460654D01*
X200807862Y-83460655D01*
X200614869Y-83540594D01*
X200614862Y-83540598D01*
X200441175Y-83656653D01*
X200441167Y-83656659D01*
X200293459Y-83804367D01*
X200293453Y-83804375D01*
X200235265Y-83891459D01*
X200170909Y-83952302D01*
X200086528Y-83979196D01*
X200069803Y-83979900D01*
X193563093Y-83979900D01*
X193431308Y-83979900D01*
X193304014Y-84014008D01*
X193189884Y-84079901D01*
X192901572Y-84368214D01*
X192826584Y-84415333D01*
X192760858Y-84426500D01*
X183199899Y-84426500D01*
X183113556Y-84406793D01*
X183044315Y-84351574D01*
X183005888Y-84271782D01*
X183000899Y-84227500D01*
X183000899Y-84097133D01*
X182997985Y-84072010D01*
X182956506Y-83978069D01*
X182952606Y-83969235D01*
X182873165Y-83889794D01*
X182873162Y-83889792D01*
X182873161Y-83889792D01*
X182770391Y-83844415D01*
X182745266Y-83841500D01*
X181085533Y-83841500D01*
X181060410Y-83844414D01*
X180957638Y-83889792D01*
X180957633Y-83889795D01*
X180878195Y-83969233D01*
X180878192Y-83969238D01*
X180832815Y-84072007D01*
X180832815Y-84072009D01*
X180829900Y-84097130D01*
X180829900Y-85756866D01*
X180832814Y-85781989D01*
X180832995Y-85782400D01*
X180878194Y-85884765D01*
X180957635Y-85964206D01*
X181060409Y-86009585D01*
X181085535Y-86012500D01*
X181631208Y-86012499D01*
X181653590Y-86017607D01*
X181676551Y-86017734D01*
X181696214Y-86027336D01*
X181717549Y-86032206D01*
X181735499Y-86046521D01*
X181756132Y-86056597D01*
X181769682Y-86073780D01*
X181786790Y-86087424D01*
X181796752Y-86108110D01*
X181810970Y-86126141D01*
X181815722Y-86147501D01*
X181825217Y-86167217D01*
X181825217Y-86190178D01*
X181830203Y-86212590D01*
X181825217Y-86233896D01*
X181825217Y-86255780D01*
X181815254Y-86276466D01*
X181810023Y-86298824D01*
X181796285Y-86315858D01*
X181786791Y-86335573D01*
X181768839Y-86349888D01*
X181754426Y-86367761D01*
X181736707Y-86375513D01*
X181717549Y-86390792D01*
X181674423Y-86405750D01*
X181668409Y-86407087D01*
X181661211Y-86408228D01*
X181656706Y-86409691D01*
X181647450Y-86411751D01*
X181634662Y-86411680D01*
X181604233Y-86416500D01*
X176593103Y-86416500D01*
X176593083Y-86416499D01*
X176583265Y-86416499D01*
X176376335Y-86416499D01*
X176347566Y-86422221D01*
X176173384Y-86456868D01*
X175976653Y-86538356D01*
X175889341Y-86553190D01*
X175804239Y-86528672D01*
X175738203Y-86469657D01*
X175704311Y-86387835D01*
X175701500Y-86354503D01*
X175701500Y-81835950D01*
X200056700Y-81835950D01*
X200056700Y-82044849D01*
X200097454Y-82249733D01*
X200097455Y-82249737D01*
X200177394Y-82442730D01*
X200177397Y-82442735D01*
X200293456Y-82616429D01*
X200441171Y-82764144D01*
X200554099Y-82839600D01*
X200614862Y-82880201D01*
X200614869Y-82880205D01*
X200724416Y-82925580D01*
X200807864Y-82960145D01*
X201012750Y-83000900D01*
X201012751Y-83000900D01*
X201221649Y-83000900D01*
X201221650Y-83000900D01*
X201426536Y-82960145D01*
X201619535Y-82880203D01*
X201793229Y-82764144D01*
X201940944Y-82616429D01*
X202057003Y-82442735D01*
X202136945Y-82249736D01*
X202177700Y-82044850D01*
X202177700Y-81835950D01*
X202177660Y-81835750D01*
X217696900Y-81835750D01*
X217696900Y-82044649D01*
X217737654Y-82249533D01*
X217737655Y-82249537D01*
X217817594Y-82442530D01*
X217817598Y-82442537D01*
X217868489Y-82518700D01*
X217933656Y-82616229D01*
X218081371Y-82763944D01*
X218213705Y-82852367D01*
X218255062Y-82880001D01*
X218255069Y-82880005D01*
X218356617Y-82922067D01*
X218448064Y-82959945D01*
X218652950Y-83000700D01*
X218652951Y-83000700D01*
X218861849Y-83000700D01*
X218861850Y-83000700D01*
X219066736Y-82959945D01*
X219259735Y-82880003D01*
X219433429Y-82763944D01*
X219581144Y-82616229D01*
X219697203Y-82442535D01*
X219777145Y-82249536D01*
X219817900Y-82044650D01*
X219817900Y-81835750D01*
X219777145Y-81630864D01*
X219746079Y-81555863D01*
X219697205Y-81437869D01*
X219697201Y-81437862D01*
X219645964Y-81361181D01*
X219581144Y-81264171D01*
X219433429Y-81116456D01*
X219325623Y-81044422D01*
X219259737Y-81000398D01*
X219259730Y-81000394D01*
X219066737Y-80920455D01*
X219066733Y-80920454D01*
X218904079Y-80888100D01*
X218861850Y-80879700D01*
X218652950Y-80879700D01*
X218610721Y-80888100D01*
X218448066Y-80920454D01*
X218448062Y-80920455D01*
X218255069Y-81000394D01*
X218255062Y-81000398D01*
X218081375Y-81116453D01*
X218081367Y-81116459D01*
X217933659Y-81264167D01*
X217933653Y-81264175D01*
X217817598Y-81437862D01*
X217817594Y-81437869D01*
X217737655Y-81630862D01*
X217737654Y-81630866D01*
X217696900Y-81835750D01*
X202177660Y-81835750D01*
X202136945Y-81631064D01*
X202069566Y-81468394D01*
X202057005Y-81438069D01*
X202057001Y-81438062D01*
X202008098Y-81364874D01*
X201940944Y-81264371D01*
X201793229Y-81116656D01*
X201647526Y-81019300D01*
X201619537Y-81000598D01*
X201619530Y-81000594D01*
X201426537Y-80920655D01*
X201426533Y-80920654D01*
X201289328Y-80893362D01*
X201221650Y-80879900D01*
X201012750Y-80879900D01*
X200961876Y-80890019D01*
X200807866Y-80920654D01*
X200807862Y-80920655D01*
X200614869Y-81000594D01*
X200614862Y-81000598D01*
X200441175Y-81116653D01*
X200441167Y-81116659D01*
X200293459Y-81264367D01*
X200293453Y-81264375D01*
X200177398Y-81438062D01*
X200177394Y-81438069D01*
X200097455Y-81631062D01*
X200097454Y-81631066D01*
X200056700Y-81835950D01*
X175701500Y-81835950D01*
X175701500Y-79295950D01*
X200056700Y-79295950D01*
X200056700Y-79504849D01*
X200097454Y-79709733D01*
X200097455Y-79709737D01*
X200177394Y-79902730D01*
X200177398Y-79902737D01*
X200186945Y-79917025D01*
X200293456Y-80076429D01*
X200441171Y-80224144D01*
X200613697Y-80339422D01*
X200614862Y-80340201D01*
X200614869Y-80340205D01*
X200743531Y-80393497D01*
X200807864Y-80420145D01*
X201012750Y-80460900D01*
X201012751Y-80460900D01*
X201221649Y-80460900D01*
X201221650Y-80460900D01*
X201426536Y-80420145D01*
X201619535Y-80340203D01*
X201793229Y-80224144D01*
X201940944Y-80076429D01*
X202057003Y-79902735D01*
X202136945Y-79709736D01*
X202177700Y-79504850D01*
X202177700Y-79295950D01*
X202177660Y-79295750D01*
X217696900Y-79295750D01*
X217696900Y-79504649D01*
X217737654Y-79709533D01*
X217737655Y-79709537D01*
X217817594Y-79902530D01*
X217817598Y-79902537D01*
X217817732Y-79902737D01*
X217933656Y-80076229D01*
X218081371Y-80223944D01*
X218148612Y-80268873D01*
X218255062Y-80340001D01*
X218255069Y-80340005D01*
X218383731Y-80393297D01*
X218448064Y-80419945D01*
X218652950Y-80460700D01*
X218652951Y-80460700D01*
X218861849Y-80460700D01*
X218861850Y-80460700D01*
X219066736Y-80419945D01*
X219259735Y-80340003D01*
X219433429Y-80223944D01*
X219581144Y-80076229D01*
X219697203Y-79902535D01*
X219777145Y-79709536D01*
X219817900Y-79504650D01*
X219817900Y-79295750D01*
X219777145Y-79090864D01*
X219743601Y-79009881D01*
X219697205Y-78897869D01*
X219697201Y-78897862D01*
X219696422Y-78896697D01*
X219581144Y-78724171D01*
X219433429Y-78576456D01*
X219279815Y-78473814D01*
X219259737Y-78460398D01*
X219259730Y-78460394D01*
X219066737Y-78380455D01*
X219066733Y-78380454D01*
X218929528Y-78353162D01*
X218861850Y-78339700D01*
X218652950Y-78339700D01*
X218602076Y-78349819D01*
X218448066Y-78380454D01*
X218448062Y-78380455D01*
X218255069Y-78460394D01*
X218255062Y-78460398D01*
X218081375Y-78576453D01*
X218081367Y-78576459D01*
X217933659Y-78724167D01*
X217933653Y-78724175D01*
X217817598Y-78897862D01*
X217817594Y-78897869D01*
X217737655Y-79090862D01*
X217737654Y-79090866D01*
X217696900Y-79295750D01*
X202177660Y-79295750D01*
X202136945Y-79091064D01*
X202057003Y-78898065D01*
X201940944Y-78724371D01*
X201793229Y-78576656D01*
X201639307Y-78473808D01*
X201619537Y-78460598D01*
X201619530Y-78460594D01*
X201426537Y-78380655D01*
X201426533Y-78380654D01*
X201289328Y-78353362D01*
X201221650Y-78339900D01*
X201012750Y-78339900D01*
X200961876Y-78350019D01*
X200807866Y-78380654D01*
X200807862Y-78380655D01*
X200614869Y-78460594D01*
X200614862Y-78460598D01*
X200441175Y-78576653D01*
X200441167Y-78576659D01*
X200293459Y-78724367D01*
X200293453Y-78724375D01*
X200177398Y-78898062D01*
X200177394Y-78898069D01*
X200097455Y-79091062D01*
X200097454Y-79091066D01*
X200056700Y-79295950D01*
X175701500Y-79295950D01*
X175701500Y-76300559D01*
X175721207Y-76214216D01*
X175759786Y-76159845D01*
X176504246Y-75415386D01*
X176579235Y-75368267D01*
X176644960Y-75357100D01*
X180758901Y-75357100D01*
X180845244Y-75376807D01*
X180877115Y-75399421D01*
X180877825Y-75398386D01*
X180893031Y-75408802D01*
X180893035Y-75408806D01*
X180995809Y-75454185D01*
X181020935Y-75457100D01*
X181279758Y-75457099D01*
X181366098Y-75476806D01*
X181435340Y-75532024D01*
X181473766Y-75611817D01*
X181473767Y-75700380D01*
X181435341Y-75780173D01*
X181370103Y-75833408D01*
X181312809Y-75862601D01*
X181166296Y-75969049D01*
X181038249Y-76097096D01*
X180931800Y-76243611D01*
X180849594Y-76404948D01*
X180849586Y-76404967D01*
X180793631Y-76577181D01*
X180793628Y-76577192D01*
X180765300Y-76756054D01*
X180765300Y-76937145D01*
X180793628Y-77116007D01*
X180793631Y-77116018D01*
X180849586Y-77288232D01*
X180849594Y-77288251D01*
X180931800Y-77449588D01*
X180931803Y-77449592D01*
X180931804Y-77449594D01*
X181038247Y-77596101D01*
X181166299Y-77724153D01*
X181312806Y-77830596D01*
X181312808Y-77830597D01*
X181312811Y-77830599D01*
X181474148Y-77912805D01*
X181474155Y-77912807D01*
X181474161Y-77912811D01*
X181474166Y-77912812D01*
X181474167Y-77912813D01*
X181646381Y-77968768D01*
X181646385Y-77968769D01*
X181646391Y-77968771D01*
X181825254Y-77997100D01*
X182006346Y-77997100D01*
X182185209Y-77968771D01*
X182357439Y-77912811D01*
X182518794Y-77830596D01*
X182665301Y-77724153D01*
X182793353Y-77596101D01*
X182899796Y-77449594D01*
X182982011Y-77288239D01*
X183037971Y-77116009D01*
X183066300Y-76937146D01*
X183066300Y-76756054D01*
X183066284Y-76755950D01*
X200056700Y-76755950D01*
X200056700Y-76964849D01*
X200097454Y-77169733D01*
X200097455Y-77169737D01*
X200177394Y-77362730D01*
X200177397Y-77362735D01*
X200293456Y-77536429D01*
X200441171Y-77684144D01*
X200501049Y-77724153D01*
X200614862Y-77800201D01*
X200614869Y-77800205D01*
X200646520Y-77813315D01*
X200807864Y-77880145D01*
X201012750Y-77920900D01*
X201012751Y-77920900D01*
X201221649Y-77920900D01*
X201221650Y-77920900D01*
X201426536Y-77880145D01*
X201619535Y-77800203D01*
X201793229Y-77684144D01*
X201940944Y-77536429D01*
X202057003Y-77362735D01*
X202136945Y-77169736D01*
X202177700Y-76964850D01*
X202177700Y-76755950D01*
X202177660Y-76755750D01*
X217696900Y-76755750D01*
X217696900Y-76964649D01*
X217737654Y-77169533D01*
X217737655Y-77169537D01*
X217817594Y-77362530D01*
X217817598Y-77362537D01*
X217817732Y-77362737D01*
X217933656Y-77536229D01*
X218081371Y-77683944D01*
X218141548Y-77724153D01*
X218255062Y-77800001D01*
X218255069Y-77800005D01*
X218328931Y-77830599D01*
X218448064Y-77879945D01*
X218652950Y-77920700D01*
X218652951Y-77920700D01*
X218861849Y-77920700D01*
X218861850Y-77920700D01*
X219066736Y-77879945D01*
X219259735Y-77800003D01*
X219433429Y-77683944D01*
X219581144Y-77536229D01*
X219697203Y-77362535D01*
X219777145Y-77169536D01*
X219817900Y-76964650D01*
X219817900Y-76758048D01*
X255544300Y-76758048D01*
X255544300Y-76962752D01*
X255552589Y-77015084D01*
X255576322Y-77164929D01*
X255576323Y-77164936D01*
X255639577Y-77359612D01*
X255639585Y-77359631D01*
X255732506Y-77541999D01*
X255732512Y-77542009D01*
X255805134Y-77641965D01*
X255852834Y-77707619D01*
X255997581Y-77852366D01*
X256157796Y-77968768D01*
X256163190Y-77972687D01*
X256163200Y-77972693D01*
X256345568Y-78065614D01*
X256345575Y-78065616D01*
X256345581Y-78065620D01*
X256540266Y-78128877D01*
X256742448Y-78160900D01*
X256742449Y-78160900D01*
X256947151Y-78160900D01*
X256947152Y-78160900D01*
X257149334Y-78128877D01*
X257344019Y-78065620D01*
X257478497Y-77997100D01*
X257526399Y-77972693D01*
X257526403Y-77972690D01*
X257526410Y-77972687D01*
X257692019Y-77852366D01*
X257836766Y-77707619D01*
X257957087Y-77542010D01*
X257959930Y-77536432D01*
X258050014Y-77359631D01*
X258050014Y-77359629D01*
X258050020Y-77359619D01*
X258113277Y-77164934D01*
X258145300Y-76962752D01*
X258145300Y-76758048D01*
X258113277Y-76555866D01*
X258050020Y-76361181D01*
X258050016Y-76361175D01*
X258050014Y-76361168D01*
X257957093Y-76178800D01*
X257957087Y-76178790D01*
X257897733Y-76097096D01*
X257836766Y-76013181D01*
X257692019Y-75868434D01*
X257597414Y-75799700D01*
X257526409Y-75748112D01*
X257526399Y-75748106D01*
X257344031Y-75655185D01*
X257344012Y-75655177D01*
X257149336Y-75591923D01*
X257149329Y-75591922D01*
X257034535Y-75573740D01*
X256947152Y-75559900D01*
X256742448Y-75559900D01*
X256681435Y-75569563D01*
X256540270Y-75591922D01*
X256540263Y-75591923D01*
X256345587Y-75655177D01*
X256345568Y-75655185D01*
X256163200Y-75748106D01*
X256163190Y-75748112D01*
X255997583Y-75868432D01*
X255997579Y-75868435D01*
X255852835Y-76013179D01*
X255852832Y-76013183D01*
X255732512Y-76178790D01*
X255732506Y-76178800D01*
X255639585Y-76361168D01*
X255639577Y-76361187D01*
X255576323Y-76555863D01*
X255576322Y-76555870D01*
X255562240Y-76644778D01*
X255544300Y-76758048D01*
X219817900Y-76758048D01*
X219817900Y-76755750D01*
X219777145Y-76550864D01*
X219698571Y-76361168D01*
X219697205Y-76357869D01*
X219697201Y-76357862D01*
X219658912Y-76300559D01*
X219581144Y-76184171D01*
X219433429Y-76036456D01*
X219280125Y-75934021D01*
X219259737Y-75920398D01*
X219259730Y-75920394D01*
X219066737Y-75840455D01*
X219066733Y-75840454D01*
X218929528Y-75813162D01*
X218861850Y-75799700D01*
X218652950Y-75799700D01*
X218602076Y-75809819D01*
X218448066Y-75840454D01*
X218448062Y-75840455D01*
X218255069Y-75920394D01*
X218255062Y-75920398D01*
X218081375Y-76036453D01*
X218081367Y-76036459D01*
X217933659Y-76184167D01*
X217933653Y-76184175D01*
X217817598Y-76357862D01*
X217817594Y-76357869D01*
X217737655Y-76550862D01*
X217737654Y-76550866D01*
X217696900Y-76755750D01*
X202177660Y-76755750D01*
X202136945Y-76551064D01*
X202076428Y-76404961D01*
X202057005Y-76358069D01*
X202057001Y-76358062D01*
X202056222Y-76356897D01*
X201940944Y-76184371D01*
X201793229Y-76036656D01*
X201692045Y-75969047D01*
X201619537Y-75920598D01*
X201619530Y-75920594D01*
X201426537Y-75840655D01*
X201426533Y-75840654D01*
X201289328Y-75813362D01*
X201221650Y-75799900D01*
X201012750Y-75799900D01*
X200961876Y-75810019D01*
X200807866Y-75840654D01*
X200807862Y-75840655D01*
X200614869Y-75920594D01*
X200614862Y-75920598D01*
X200441175Y-76036653D01*
X200441167Y-76036659D01*
X200293459Y-76184367D01*
X200293453Y-76184375D01*
X200177398Y-76358062D01*
X200177394Y-76358069D01*
X200097455Y-76551062D01*
X200097454Y-76551066D01*
X200056700Y-76755950D01*
X183066284Y-76755950D01*
X183037971Y-76577191D01*
X183029481Y-76551062D01*
X182982013Y-76404967D01*
X182982012Y-76404966D01*
X182982011Y-76404961D01*
X182982007Y-76404955D01*
X182982005Y-76404948D01*
X182899799Y-76243611D01*
X182899797Y-76243608D01*
X182899796Y-76243606D01*
X182793353Y-76097099D01*
X182665301Y-75969047D01*
X182518794Y-75862604D01*
X182518792Y-75862603D01*
X182518788Y-75862600D01*
X182461497Y-75833409D01*
X182393512Y-75776651D01*
X182356886Y-75696017D01*
X182358873Y-75607476D01*
X182399079Y-75528565D01*
X182469543Y-75474914D01*
X182551840Y-75457099D01*
X182810664Y-75457099D01*
X182810667Y-75457099D01*
X182825740Y-75455350D01*
X182835791Y-75454185D01*
X182938565Y-75408806D01*
X183018006Y-75329365D01*
X183063385Y-75226591D01*
X183066300Y-75201465D01*
X183066299Y-73411736D01*
X183066298Y-73411730D01*
X183063385Y-73386610D01*
X183058549Y-73375658D01*
X183018006Y-73283835D01*
X182938565Y-73204394D01*
X182938562Y-73204392D01*
X182938561Y-73204392D01*
X182835791Y-73159015D01*
X182810666Y-73156100D01*
X181020933Y-73156100D01*
X180995810Y-73159014D01*
X180893038Y-73204392D01*
X180877825Y-73214814D01*
X180876240Y-73212501D01*
X180824627Y-73244933D01*
X180758901Y-73256100D01*
X176240703Y-73256100D01*
X176240683Y-73256099D01*
X176230865Y-73256099D01*
X176023935Y-73256099D01*
X175973540Y-73266123D01*
X175820982Y-73296469D01*
X175820978Y-73296470D01*
X175629806Y-73375655D01*
X175629799Y-73375659D01*
X175457749Y-73490620D01*
X175457741Y-73490626D01*
X173835026Y-75113341D01*
X173835022Y-75113346D01*
X173720058Y-75285403D01*
X173720056Y-75285406D01*
X173640870Y-75476580D01*
X173640869Y-75476583D01*
X173600500Y-75679531D01*
X173600500Y-99418068D01*
X173632165Y-99577258D01*
X173640870Y-99621020D01*
X173665290Y-99679976D01*
X173720056Y-99812193D01*
X173720058Y-99812196D01*
X173720059Y-99812198D01*
X173835023Y-99984255D01*
X173980741Y-100129973D01*
X173988294Y-100137526D01*
X173988305Y-100137536D01*
X174365355Y-100514586D01*
X174412474Y-100589574D01*
X174422390Y-100677581D01*
X174393139Y-100761174D01*
X174330515Y-100823798D01*
X174246922Y-100853049D01*
X174224641Y-100854300D01*
X149513959Y-100854300D01*
X149427616Y-100834593D01*
X149373245Y-100796014D01*
X147899386Y-99322155D01*
X147852267Y-99247167D01*
X147841100Y-99181441D01*
X147841100Y-96387130D01*
X167810300Y-96387130D01*
X167810300Y-98176866D01*
X167813214Y-98201989D01*
X167837527Y-98257054D01*
X167858594Y-98304765D01*
X167938035Y-98384206D01*
X168040809Y-98429585D01*
X168065935Y-98432500D01*
X169855664Y-98432499D01*
X169855666Y-98432499D01*
X169868227Y-98431042D01*
X169880791Y-98429585D01*
X169983565Y-98384206D01*
X170063006Y-98304765D01*
X170108385Y-98201991D01*
X170111300Y-98176865D01*
X170111299Y-97918040D01*
X170131006Y-97831701D01*
X170186224Y-97762459D01*
X170266017Y-97724033D01*
X170354580Y-97724032D01*
X170434373Y-97762458D01*
X170487608Y-97827697D01*
X170516799Y-97884987D01*
X170516803Y-97884993D01*
X170516804Y-97884994D01*
X170623247Y-98031501D01*
X170751299Y-98159553D01*
X170897806Y-98265996D01*
X170897808Y-98265997D01*
X170897811Y-98265999D01*
X171059148Y-98348205D01*
X171059155Y-98348207D01*
X171059161Y-98348211D01*
X171059166Y-98348212D01*
X171059167Y-98348213D01*
X171231381Y-98404168D01*
X171231385Y-98404169D01*
X171231391Y-98404171D01*
X171410254Y-98432500D01*
X171591346Y-98432500D01*
X171770209Y-98404171D01*
X171942439Y-98348211D01*
X171976416Y-98330899D01*
X172103788Y-98265999D01*
X172103787Y-98265999D01*
X172103794Y-98265996D01*
X172250301Y-98159553D01*
X172378353Y-98031501D01*
X172484796Y-97884994D01*
X172547232Y-97762458D01*
X172567005Y-97723651D01*
X172567005Y-97723649D01*
X172567011Y-97723639D01*
X172622971Y-97551409D01*
X172651300Y-97372546D01*
X172651300Y-97191454D01*
X172622971Y-97012591D01*
X172589956Y-96910981D01*
X172567013Y-96840367D01*
X172567012Y-96840366D01*
X172567011Y-96840361D01*
X172567007Y-96840355D01*
X172567005Y-96840348D01*
X172484799Y-96679011D01*
X172484797Y-96679008D01*
X172484796Y-96679006D01*
X172378353Y-96532499D01*
X172250301Y-96404447D01*
X172103794Y-96298004D01*
X172103792Y-96298003D01*
X172103788Y-96298000D01*
X171942451Y-96215794D01*
X171942432Y-96215786D01*
X171770218Y-96159831D01*
X171770207Y-96159828D01*
X171591346Y-96131500D01*
X171410254Y-96131500D01*
X171231392Y-96159828D01*
X171231381Y-96159831D01*
X171059167Y-96215786D01*
X171059148Y-96215794D01*
X170897811Y-96298000D01*
X170751296Y-96404449D01*
X170623249Y-96532496D01*
X170516801Y-96679009D01*
X170487609Y-96736303D01*
X170430851Y-96804288D01*
X170350215Y-96840914D01*
X170261674Y-96838926D01*
X170182764Y-96798719D01*
X170129114Y-96728255D01*
X170111299Y-96645958D01*
X170111299Y-96387133D01*
X170108385Y-96362010D01*
X170106312Y-96357316D01*
X170063006Y-96259235D01*
X169983565Y-96179794D01*
X169983562Y-96179792D01*
X169983561Y-96179792D01*
X169880791Y-96134415D01*
X169855666Y-96131500D01*
X168065933Y-96131500D01*
X168040810Y-96134414D01*
X167938038Y-96179792D01*
X167938033Y-96179795D01*
X167858595Y-96259233D01*
X167858592Y-96259238D01*
X167813215Y-96362007D01*
X167813215Y-96362009D01*
X167810300Y-96387130D01*
X147841100Y-96387130D01*
X147841100Y-86675854D01*
X161765100Y-86675854D01*
X161765100Y-86856945D01*
X161793428Y-87035807D01*
X161793431Y-87035818D01*
X161849386Y-87208032D01*
X161849394Y-87208051D01*
X161931600Y-87369388D01*
X161931603Y-87369392D01*
X161931604Y-87369394D01*
X162038047Y-87515901D01*
X162166099Y-87643953D01*
X162312606Y-87750396D01*
X162369902Y-87779590D01*
X162437886Y-87836347D01*
X162474513Y-87916981D01*
X162472527Y-88005522D01*
X162432320Y-88084433D01*
X162361858Y-88138084D01*
X162279559Y-88155900D01*
X162020733Y-88155900D01*
X161995610Y-88158814D01*
X161892838Y-88204192D01*
X161892833Y-88204195D01*
X161813395Y-88283633D01*
X161813392Y-88283638D01*
X161768015Y-88386407D01*
X161768015Y-88386409D01*
X161765100Y-88411530D01*
X161765100Y-90201266D01*
X161768014Y-90226389D01*
X161772448Y-90236432D01*
X161813394Y-90329165D01*
X161892835Y-90408606D01*
X161995609Y-90453985D01*
X162020735Y-90456900D01*
X163810464Y-90456899D01*
X163810466Y-90456899D01*
X163823027Y-90455442D01*
X163835591Y-90453985D01*
X163938365Y-90408606D01*
X164017806Y-90329165D01*
X164063185Y-90226391D01*
X164066100Y-90201265D01*
X164066099Y-88411536D01*
X164066098Y-88411530D01*
X164063185Y-88386410D01*
X164017807Y-88283638D01*
X164017806Y-88283635D01*
X163938365Y-88204194D01*
X163938362Y-88204192D01*
X163938361Y-88204192D01*
X163835591Y-88158815D01*
X163810469Y-88155900D01*
X163551643Y-88155900D01*
X163465300Y-88136193D01*
X163396059Y-88080974D01*
X163357632Y-88001182D01*
X163357632Y-87912618D01*
X163396059Y-87832826D01*
X163461299Y-87779590D01*
X163518588Y-87750399D01*
X163518587Y-87750399D01*
X163518594Y-87750396D01*
X163665101Y-87643953D01*
X163793153Y-87515901D01*
X163899596Y-87369394D01*
X163944992Y-87280300D01*
X163981805Y-87208051D01*
X163981805Y-87208049D01*
X163981811Y-87208039D01*
X164037771Y-87035809D01*
X164066100Y-86856946D01*
X164066100Y-86675854D01*
X164037771Y-86496991D01*
X164036247Y-86492302D01*
X163981813Y-86324767D01*
X163981812Y-86324766D01*
X163981811Y-86324761D01*
X163981807Y-86324755D01*
X163981805Y-86324748D01*
X163899599Y-86163411D01*
X163899597Y-86163408D01*
X163899596Y-86163406D01*
X163793153Y-86016899D01*
X163665101Y-85888847D01*
X163518594Y-85782404D01*
X163518592Y-85782403D01*
X163518588Y-85782400D01*
X163357251Y-85700194D01*
X163357232Y-85700186D01*
X163185018Y-85644231D01*
X163185007Y-85644228D01*
X163006146Y-85615900D01*
X162825054Y-85615900D01*
X162646192Y-85644228D01*
X162646181Y-85644231D01*
X162473967Y-85700186D01*
X162473948Y-85700194D01*
X162312611Y-85782400D01*
X162166096Y-85888849D01*
X162038049Y-86016896D01*
X161931600Y-86163411D01*
X161849394Y-86324748D01*
X161849386Y-86324767D01*
X161793431Y-86496981D01*
X161793428Y-86496992D01*
X161765100Y-86675854D01*
X147841100Y-86675854D01*
X147841100Y-84650911D01*
X147860807Y-84564568D01*
X147879105Y-84533943D01*
X147879396Y-84533543D01*
X147902887Y-84501210D01*
X147902990Y-84501009D01*
X147995814Y-84318831D01*
X147995814Y-84318829D01*
X147995820Y-84318819D01*
X148059077Y-84124134D01*
X148091100Y-83921952D01*
X148091100Y-83717248D01*
X148059077Y-83515066D01*
X147995820Y-83320381D01*
X147995816Y-83320375D01*
X147995814Y-83320368D01*
X147902893Y-83138000D01*
X147902887Y-83137990D01*
X147850309Y-83065622D01*
X147782566Y-82972381D01*
X147637819Y-82827634D01*
X147526038Y-82746421D01*
X147472209Y-82707312D01*
X147472199Y-82707306D01*
X147289831Y-82614385D01*
X147289812Y-82614377D01*
X147095136Y-82551123D01*
X147095129Y-82551122D01*
X146980335Y-82532940D01*
X146892952Y-82519100D01*
X146688248Y-82519100D01*
X146627235Y-82528763D01*
X146486070Y-82551122D01*
X146486063Y-82551123D01*
X146291387Y-82614377D01*
X146291368Y-82614385D01*
X146109000Y-82707306D01*
X146108990Y-82707312D01*
X145943383Y-82827632D01*
X145943379Y-82827635D01*
X145798635Y-82972379D01*
X145798632Y-82972383D01*
X145678312Y-83137990D01*
X145678306Y-83138000D01*
X145585385Y-83320368D01*
X145585377Y-83320387D01*
X145522123Y-83515063D01*
X145522122Y-83515070D01*
X145507270Y-83608845D01*
X145490100Y-83717248D01*
X143091100Y-83717248D01*
X143059077Y-83515066D01*
X142995820Y-83320381D01*
X142995816Y-83320375D01*
X142995814Y-83320368D01*
X142902893Y-83138000D01*
X142902887Y-83137990D01*
X142850309Y-83065622D01*
X142782566Y-82972381D01*
X142637819Y-82827634D01*
X142526038Y-82746421D01*
X142472209Y-82707312D01*
X142472199Y-82707306D01*
X142289831Y-82614385D01*
X142289812Y-82614377D01*
X142095136Y-82551123D01*
X142095129Y-82551122D01*
X141980335Y-82532940D01*
X141892952Y-82519100D01*
X141688248Y-82519100D01*
X141627235Y-82528763D01*
X141486070Y-82551122D01*
X141486063Y-82551123D01*
X141291387Y-82614377D01*
X141291368Y-82614385D01*
X141109000Y-82707306D01*
X141108990Y-82707312D01*
X140943383Y-82827632D01*
X140943379Y-82827635D01*
X140798635Y-82972379D01*
X140798632Y-82972383D01*
X140678312Y-83137990D01*
X140678306Y-83138000D01*
X140585385Y-83320368D01*
X140585377Y-83320387D01*
X140522123Y-83515063D01*
X140522122Y-83515070D01*
X140507270Y-83608845D01*
X140490100Y-83717248D01*
X129090900Y-83717248D01*
X129090900Y-83716848D01*
X129058877Y-83514666D01*
X128995620Y-83319981D01*
X128995616Y-83319975D01*
X128995614Y-83319968D01*
X128902693Y-83137600D01*
X128902687Y-83137590D01*
X128889006Y-83118759D01*
X128782366Y-82971981D01*
X128637619Y-82827234D01*
X128550502Y-82763940D01*
X128472009Y-82706912D01*
X128471999Y-82706906D01*
X128289631Y-82613985D01*
X128289612Y-82613977D01*
X128094936Y-82550723D01*
X128094929Y-82550722D01*
X127980135Y-82532540D01*
X127892752Y-82518700D01*
X127688048Y-82518700D01*
X127685523Y-82519100D01*
X127485870Y-82550722D01*
X127485863Y-82550723D01*
X127291187Y-82613977D01*
X127291168Y-82613985D01*
X127108800Y-82706906D01*
X127108790Y-82706912D01*
X126943183Y-82827232D01*
X126943179Y-82827235D01*
X126798435Y-82971979D01*
X126798432Y-82971983D01*
X126678112Y-83137590D01*
X126678106Y-83137600D01*
X126585185Y-83319968D01*
X126585177Y-83319987D01*
X126521923Y-83514663D01*
X126521922Y-83514670D01*
X126512278Y-83575559D01*
X126489900Y-83716848D01*
X126489900Y-83921552D01*
X126498851Y-83978065D01*
X126521922Y-84123729D01*
X126521923Y-84123736D01*
X126585177Y-84318412D01*
X126585185Y-84318431D01*
X126678106Y-84500799D01*
X126678112Y-84500809D01*
X126701895Y-84533543D01*
X126736702Y-84614979D01*
X126739900Y-84650511D01*
X126739900Y-88303241D01*
X126720193Y-88389584D01*
X126681614Y-88443955D01*
X125657955Y-89467614D01*
X125582967Y-89514733D01*
X125517241Y-89525900D01*
X106989833Y-89525900D01*
X106987224Y-89525304D01*
X106984603Y-89525831D01*
X106944179Y-89515480D01*
X106903490Y-89506193D01*
X106901399Y-89504525D01*
X106898808Y-89503862D01*
X106866867Y-89476986D01*
X106834249Y-89450974D01*
X106833089Y-89448565D01*
X106831042Y-89446843D01*
X106813932Y-89408788D01*
X106795822Y-89371182D01*
X106795822Y-89368505D01*
X106794726Y-89366068D01*
X106795822Y-89324369D01*
X106795822Y-89282618D01*
X106796982Y-89280207D01*
X106797053Y-89277535D01*
X106804901Y-89263765D01*
X106834249Y-89202826D01*
X106837563Y-89198780D01*
X106843069Y-89192235D01*
X106881262Y-89154043D01*
X106989569Y-89018230D01*
X107077377Y-88908123D01*
X107244726Y-88641789D01*
X107381202Y-88358394D01*
X107435159Y-88204194D01*
X107485090Y-88061500D01*
X107555083Y-87754840D01*
X107590300Y-87442272D01*
X107590300Y-87127727D01*
X107590300Y-83717048D01*
X112489500Y-83717048D01*
X112489500Y-83921752D01*
X112498710Y-83979900D01*
X112521522Y-84123929D01*
X112521523Y-84123936D01*
X112584777Y-84318612D01*
X112584785Y-84318631D01*
X112677706Y-84500999D01*
X112677712Y-84501009D01*
X112738625Y-84584849D01*
X112798034Y-84666619D01*
X112942781Y-84811366D01*
X113108390Y-84931687D01*
X113108400Y-84931693D01*
X113290768Y-85024614D01*
X113290775Y-85024616D01*
X113290781Y-85024620D01*
X113290786Y-85024621D01*
X113290787Y-85024622D01*
X113386823Y-85055826D01*
X113485466Y-85087877D01*
X113687648Y-85119900D01*
X113687649Y-85119900D01*
X113892351Y-85119900D01*
X113892352Y-85119900D01*
X114094534Y-85087877D01*
X114289219Y-85024620D01*
X114371433Y-84982730D01*
X114471599Y-84931693D01*
X114471603Y-84931690D01*
X114471610Y-84931687D01*
X114637219Y-84811366D01*
X114781966Y-84666619D01*
X114902287Y-84501010D01*
X114902390Y-84500809D01*
X114995214Y-84318631D01*
X114995214Y-84318629D01*
X114995220Y-84318619D01*
X115058477Y-84123934D01*
X115090500Y-83921752D01*
X115090500Y-83717048D01*
X117489500Y-83717048D01*
X117489500Y-83921752D01*
X117498710Y-83979900D01*
X117521522Y-84123929D01*
X117521523Y-84123936D01*
X117584777Y-84318612D01*
X117584785Y-84318631D01*
X117677706Y-84500999D01*
X117677712Y-84501009D01*
X117738625Y-84584849D01*
X117798034Y-84666619D01*
X117942781Y-84811366D01*
X118108390Y-84931687D01*
X118108400Y-84931693D01*
X118290768Y-85024614D01*
X118290775Y-85024616D01*
X118290781Y-85024620D01*
X118290786Y-85024621D01*
X118290787Y-85024622D01*
X118386823Y-85055826D01*
X118485466Y-85087877D01*
X118687648Y-85119900D01*
X118687649Y-85119900D01*
X118892351Y-85119900D01*
X118892352Y-85119900D01*
X119094534Y-85087877D01*
X119289219Y-85024620D01*
X119371433Y-84982730D01*
X119471599Y-84931693D01*
X119471603Y-84931690D01*
X119471610Y-84931687D01*
X119637219Y-84811366D01*
X119781966Y-84666619D01*
X119902287Y-84501010D01*
X119902390Y-84500809D01*
X119995214Y-84318631D01*
X119995214Y-84318629D01*
X119995220Y-84318619D01*
X120058477Y-84123934D01*
X120090500Y-83921752D01*
X120090500Y-83717048D01*
X120058477Y-83514866D01*
X119995220Y-83320181D01*
X119995216Y-83320175D01*
X119995214Y-83320168D01*
X119902293Y-83137800D01*
X119902287Y-83137790D01*
X119849848Y-83065614D01*
X119781966Y-82972181D01*
X119637219Y-82827434D01*
X119472308Y-82707620D01*
X119471609Y-82707112D01*
X119471599Y-82707106D01*
X119289231Y-82614185D01*
X119289212Y-82614177D01*
X119094536Y-82550923D01*
X119094529Y-82550922D01*
X118979735Y-82532740D01*
X118892352Y-82518900D01*
X118687648Y-82518900D01*
X118626635Y-82528563D01*
X118485470Y-82550922D01*
X118485463Y-82550923D01*
X118290787Y-82614177D01*
X118290768Y-82614185D01*
X118108400Y-82707106D01*
X118108390Y-82707112D01*
X117942783Y-82827432D01*
X117942779Y-82827435D01*
X117798035Y-82972179D01*
X117798032Y-82972183D01*
X117677712Y-83137790D01*
X117677706Y-83137800D01*
X117584785Y-83320168D01*
X117584777Y-83320187D01*
X117521523Y-83514863D01*
X117521522Y-83514870D01*
X117517447Y-83540598D01*
X117489500Y-83717048D01*
X115090500Y-83717048D01*
X115058477Y-83514866D01*
X114995220Y-83320181D01*
X114995216Y-83320175D01*
X114995214Y-83320168D01*
X114902293Y-83137800D01*
X114902287Y-83137790D01*
X114849848Y-83065614D01*
X114781966Y-82972181D01*
X114637219Y-82827434D01*
X114472308Y-82707620D01*
X114471609Y-82707112D01*
X114471599Y-82707106D01*
X114289231Y-82614185D01*
X114289212Y-82614177D01*
X114094536Y-82550923D01*
X114094529Y-82550922D01*
X113979735Y-82532740D01*
X113892352Y-82518900D01*
X113687648Y-82518900D01*
X113626635Y-82528563D01*
X113485470Y-82550922D01*
X113485463Y-82550923D01*
X113290787Y-82614177D01*
X113290768Y-82614185D01*
X113108400Y-82707106D01*
X113108390Y-82707112D01*
X112942783Y-82827432D01*
X112942779Y-82827435D01*
X112798035Y-82972179D01*
X112798032Y-82972183D01*
X112677712Y-83137790D01*
X112677706Y-83137800D01*
X112584785Y-83320168D01*
X112584777Y-83320187D01*
X112521523Y-83514863D01*
X112521522Y-83514870D01*
X112517447Y-83540598D01*
X112489500Y-83717048D01*
X107590300Y-83717048D01*
X107590300Y-83662527D01*
X107555082Y-83349960D01*
X107485089Y-83043300D01*
X107460483Y-82972981D01*
X107442668Y-82922067D01*
X107381202Y-82746406D01*
X107244726Y-82463011D01*
X107077377Y-82196677D01*
X106881261Y-81950756D01*
X106658844Y-81728339D01*
X106412923Y-81532223D01*
X106146589Y-81364874D01*
X105863194Y-81228398D01*
X105863184Y-81228394D01*
X105863178Y-81228392D01*
X105566304Y-81124512D01*
X105566305Y-81124512D01*
X105481502Y-81105156D01*
X105259640Y-81054518D01*
X105259636Y-81054517D01*
X105259634Y-81054517D01*
X105027728Y-81028387D01*
X104947073Y-81019300D01*
X104632527Y-81019300D01*
X104568415Y-81026523D01*
X104319965Y-81054517D01*
X104319961Y-81054517D01*
X104319960Y-81054518D01*
X104235162Y-81073872D01*
X104013294Y-81124512D01*
X103716421Y-81228392D01*
X103716408Y-81228397D01*
X103716406Y-81228398D01*
X103641708Y-81264371D01*
X103433005Y-81364877D01*
X103166672Y-81532226D01*
X103166669Y-81532229D01*
X102920756Y-81728338D01*
X102698338Y-81950756D01*
X102502229Y-82196669D01*
X102502226Y-82196672D01*
X102334877Y-82463005D01*
X102334874Y-82463010D01*
X102334874Y-82463011D01*
X102221186Y-82699086D01*
X102198399Y-82746404D01*
X102198392Y-82746421D01*
X102094512Y-83043294D01*
X102043872Y-83265162D01*
X102031314Y-83320187D01*
X102024517Y-83349965D01*
X101989300Y-83662527D01*
X101989300Y-86042567D01*
X101969593Y-86128910D01*
X101931014Y-86183281D01*
X100396681Y-87717614D01*
X100321693Y-87764733D01*
X100255967Y-87775900D01*
X44219233Y-87775900D01*
X44132890Y-87756193D01*
X44078519Y-87717614D01*
X40078353Y-83717448D01*
X42488700Y-83717448D01*
X42488700Y-83922152D01*
X42497556Y-83978065D01*
X42520722Y-84124329D01*
X42520723Y-84124336D01*
X42583977Y-84319012D01*
X42583985Y-84319031D01*
X42676906Y-84501399D01*
X42676912Y-84501409D01*
X42737389Y-84584649D01*
X42797234Y-84667019D01*
X42941981Y-84811766D01*
X43107039Y-84931687D01*
X43107590Y-84932087D01*
X43107600Y-84932093D01*
X43289968Y-85025014D01*
X43289975Y-85025016D01*
X43289981Y-85025020D01*
X43289986Y-85025021D01*
X43289987Y-85025022D01*
X43291212Y-85025420D01*
X43484666Y-85088277D01*
X43686848Y-85120300D01*
X43686849Y-85120300D01*
X43891551Y-85120300D01*
X43891552Y-85120300D01*
X44093734Y-85088277D01*
X44288419Y-85025020D01*
X44288812Y-85024820D01*
X44470799Y-84932093D01*
X44470803Y-84932090D01*
X44470810Y-84932087D01*
X44636419Y-84811766D01*
X44781166Y-84667019D01*
X44901487Y-84501410D01*
X44901590Y-84501209D01*
X44994414Y-84319031D01*
X44994414Y-84319029D01*
X44994420Y-84319019D01*
X45057677Y-84124334D01*
X45089700Y-83922152D01*
X45089700Y-83717448D01*
X47488700Y-83717448D01*
X47488700Y-83922152D01*
X47497556Y-83978065D01*
X47520722Y-84124329D01*
X47520723Y-84124336D01*
X47583977Y-84319012D01*
X47583985Y-84319031D01*
X47676906Y-84501399D01*
X47676912Y-84501409D01*
X47737389Y-84584649D01*
X47797234Y-84667019D01*
X47941981Y-84811766D01*
X48107039Y-84931687D01*
X48107590Y-84932087D01*
X48107600Y-84932093D01*
X48289968Y-85025014D01*
X48289975Y-85025016D01*
X48289981Y-85025020D01*
X48289986Y-85025021D01*
X48289987Y-85025022D01*
X48291212Y-85025420D01*
X48484666Y-85088277D01*
X48686848Y-85120300D01*
X48686849Y-85120300D01*
X48891551Y-85120300D01*
X48891552Y-85120300D01*
X49093734Y-85088277D01*
X49288419Y-85025020D01*
X49288812Y-85024820D01*
X49470799Y-84932093D01*
X49470803Y-84932090D01*
X49470810Y-84932087D01*
X49636419Y-84811766D01*
X49781166Y-84667019D01*
X49901487Y-84501410D01*
X49901590Y-84501209D01*
X49994414Y-84319031D01*
X49994414Y-84319029D01*
X49994420Y-84319019D01*
X50057677Y-84124334D01*
X50089700Y-83922152D01*
X50089700Y-83717648D01*
X56488300Y-83717648D01*
X56488300Y-83922352D01*
X56497415Y-83979900D01*
X56520322Y-84124529D01*
X56520323Y-84124536D01*
X56583577Y-84319212D01*
X56583585Y-84319231D01*
X56676506Y-84501599D01*
X56676512Y-84501609D01*
X56676658Y-84501810D01*
X56796834Y-84667219D01*
X56941581Y-84811966D01*
X56941858Y-84812167D01*
X57107190Y-84932287D01*
X57107200Y-84932293D01*
X57289568Y-85025214D01*
X57289575Y-85025216D01*
X57289581Y-85025220D01*
X57289586Y-85025221D01*
X57289587Y-85025222D01*
X57290203Y-85025422D01*
X57484266Y-85088477D01*
X57686448Y-85120500D01*
X57686449Y-85120500D01*
X57891151Y-85120500D01*
X57891152Y-85120500D01*
X58093334Y-85088477D01*
X58288019Y-85025220D01*
X58288412Y-85025020D01*
X58470399Y-84932293D01*
X58470403Y-84932290D01*
X58470410Y-84932287D01*
X58636019Y-84811966D01*
X58780766Y-84667219D01*
X58901087Y-84501610D01*
X58901190Y-84501409D01*
X58994014Y-84319231D01*
X58994014Y-84319229D01*
X58994020Y-84319219D01*
X59057277Y-84124534D01*
X59089300Y-83922352D01*
X59089300Y-83717648D01*
X61488300Y-83717648D01*
X61488300Y-83922352D01*
X61497415Y-83979900D01*
X61520322Y-84124529D01*
X61520323Y-84124536D01*
X61583577Y-84319212D01*
X61583585Y-84319231D01*
X61676506Y-84501599D01*
X61676512Y-84501609D01*
X61676658Y-84501810D01*
X61796834Y-84667219D01*
X61941581Y-84811966D01*
X61941858Y-84812167D01*
X62107190Y-84932287D01*
X62107200Y-84932293D01*
X62289568Y-85025214D01*
X62289575Y-85025216D01*
X62289581Y-85025220D01*
X62289586Y-85025221D01*
X62289587Y-85025222D01*
X62290203Y-85025422D01*
X62484266Y-85088477D01*
X62686448Y-85120500D01*
X62686449Y-85120500D01*
X62891151Y-85120500D01*
X62891152Y-85120500D01*
X63093334Y-85088477D01*
X63288019Y-85025220D01*
X63288412Y-85025020D01*
X63470399Y-84932293D01*
X63470403Y-84932290D01*
X63470410Y-84932287D01*
X63636019Y-84811966D01*
X63780766Y-84667219D01*
X63901087Y-84501610D01*
X63901190Y-84501409D01*
X63994014Y-84319231D01*
X63994014Y-84319229D01*
X63994020Y-84319219D01*
X64057277Y-84124534D01*
X64089300Y-83922352D01*
X64089300Y-83717648D01*
X64089268Y-83717448D01*
X70488700Y-83717448D01*
X70488700Y-83922152D01*
X70497556Y-83978065D01*
X70520722Y-84124329D01*
X70520723Y-84124336D01*
X70583977Y-84319012D01*
X70583985Y-84319031D01*
X70676906Y-84501399D01*
X70676912Y-84501409D01*
X70737389Y-84584649D01*
X70797234Y-84667019D01*
X70941981Y-84811766D01*
X71107039Y-84931687D01*
X71107590Y-84932087D01*
X71107600Y-84932093D01*
X71289968Y-85025014D01*
X71289975Y-85025016D01*
X71289981Y-85025020D01*
X71289986Y-85025021D01*
X71289987Y-85025022D01*
X71291212Y-85025420D01*
X71484666Y-85088277D01*
X71686848Y-85120300D01*
X71686849Y-85120300D01*
X71891551Y-85120300D01*
X71891552Y-85120300D01*
X72093734Y-85088277D01*
X72288419Y-85025020D01*
X72288812Y-85024820D01*
X72470799Y-84932093D01*
X72470803Y-84932090D01*
X72470810Y-84932087D01*
X72636419Y-84811766D01*
X72781166Y-84667019D01*
X72901487Y-84501410D01*
X72901590Y-84501209D01*
X72994414Y-84319031D01*
X72994414Y-84319029D01*
X72994420Y-84319019D01*
X73057677Y-84124334D01*
X73089700Y-83922152D01*
X73089700Y-83717448D01*
X75488700Y-83717448D01*
X75488700Y-83922152D01*
X75497556Y-83978065D01*
X75520722Y-84124329D01*
X75520723Y-84124336D01*
X75583977Y-84319012D01*
X75583985Y-84319031D01*
X75676906Y-84501399D01*
X75676912Y-84501409D01*
X75737389Y-84584649D01*
X75797234Y-84667019D01*
X75941981Y-84811766D01*
X76107039Y-84931687D01*
X76107590Y-84932087D01*
X76107600Y-84932093D01*
X76289968Y-85025014D01*
X76289975Y-85025016D01*
X76289981Y-85025020D01*
X76289986Y-85025021D01*
X76289987Y-85025022D01*
X76291212Y-85025420D01*
X76484666Y-85088277D01*
X76686848Y-85120300D01*
X76686849Y-85120300D01*
X76891551Y-85120300D01*
X76891552Y-85120300D01*
X77093734Y-85088277D01*
X77288419Y-85025020D01*
X77288812Y-85024820D01*
X77470799Y-84932093D01*
X77470803Y-84932090D01*
X77470810Y-84932087D01*
X77636419Y-84811766D01*
X77781166Y-84667019D01*
X77901487Y-84501410D01*
X77901590Y-84501209D01*
X77994414Y-84319031D01*
X77994414Y-84319029D01*
X77994420Y-84319019D01*
X78057677Y-84124334D01*
X78089700Y-83922152D01*
X78089700Y-83717848D01*
X84489100Y-83717848D01*
X84489100Y-83922552D01*
X84508427Y-84044577D01*
X84521122Y-84124729D01*
X84521123Y-84124736D01*
X84584377Y-84319412D01*
X84584385Y-84319431D01*
X84677306Y-84501799D01*
X84677312Y-84501809D01*
X84677313Y-84501810D01*
X84797634Y-84667419D01*
X84942381Y-84812166D01*
X85106889Y-84931687D01*
X85107990Y-84932487D01*
X85108000Y-84932493D01*
X85290368Y-85025414D01*
X85290375Y-85025416D01*
X85290381Y-85025420D01*
X85485066Y-85088677D01*
X85687248Y-85120700D01*
X85687249Y-85120700D01*
X85891951Y-85120700D01*
X85891952Y-85120700D01*
X86094134Y-85088677D01*
X86288819Y-85025420D01*
X86289212Y-85025220D01*
X86471199Y-84932493D01*
X86471203Y-84932490D01*
X86471210Y-84932487D01*
X86636819Y-84812166D01*
X86781566Y-84667419D01*
X86901887Y-84501810D01*
X86901990Y-84501609D01*
X86994814Y-84319431D01*
X86994814Y-84319429D01*
X86994820Y-84319419D01*
X87058077Y-84124734D01*
X87090100Y-83922552D01*
X87090100Y-83717848D01*
X89489100Y-83717848D01*
X89489100Y-83922552D01*
X89508427Y-84044577D01*
X89521122Y-84124729D01*
X89521123Y-84124736D01*
X89584377Y-84319412D01*
X89584385Y-84319431D01*
X89677306Y-84501799D01*
X89677312Y-84501809D01*
X89677313Y-84501810D01*
X89797634Y-84667419D01*
X89942381Y-84812166D01*
X90106889Y-84931687D01*
X90107990Y-84932487D01*
X90108000Y-84932493D01*
X90290368Y-85025414D01*
X90290375Y-85025416D01*
X90290381Y-85025420D01*
X90485066Y-85088677D01*
X90687248Y-85120700D01*
X90687249Y-85120700D01*
X90891951Y-85120700D01*
X90891952Y-85120700D01*
X91094134Y-85088677D01*
X91288819Y-85025420D01*
X91289212Y-85025220D01*
X91471199Y-84932493D01*
X91471203Y-84932490D01*
X91471210Y-84932487D01*
X91636819Y-84812166D01*
X91781566Y-84667419D01*
X91901887Y-84501810D01*
X91901990Y-84501609D01*
X91994814Y-84319431D01*
X91994814Y-84319429D01*
X91994820Y-84319419D01*
X92058077Y-84124734D01*
X92090100Y-83922552D01*
X92090100Y-83717848D01*
X92090037Y-83717448D01*
X98489300Y-83717448D01*
X98489300Y-83922152D01*
X98498156Y-83978065D01*
X98521322Y-84124329D01*
X98521323Y-84124336D01*
X98584577Y-84319012D01*
X98584585Y-84319031D01*
X98677506Y-84501399D01*
X98677512Y-84501409D01*
X98737989Y-84584649D01*
X98797834Y-84667019D01*
X98942581Y-84811766D01*
X99107639Y-84931687D01*
X99108190Y-84932087D01*
X99108200Y-84932093D01*
X99290568Y-85025014D01*
X99290575Y-85025016D01*
X99290581Y-85025020D01*
X99290586Y-85025021D01*
X99290587Y-85025022D01*
X99291812Y-85025420D01*
X99485266Y-85088277D01*
X99687448Y-85120300D01*
X99687449Y-85120300D01*
X99892151Y-85120300D01*
X99892152Y-85120300D01*
X100094334Y-85088277D01*
X100289019Y-85025020D01*
X100289412Y-85024820D01*
X100471399Y-84932093D01*
X100471403Y-84932090D01*
X100471410Y-84932087D01*
X100637019Y-84811766D01*
X100781766Y-84667019D01*
X100902087Y-84501410D01*
X100902190Y-84501209D01*
X100995014Y-84319031D01*
X100995014Y-84319029D01*
X100995020Y-84319019D01*
X101058277Y-84124334D01*
X101090300Y-83922152D01*
X101090300Y-83717448D01*
X101058277Y-83515266D01*
X100995020Y-83320581D01*
X100995016Y-83320575D01*
X100995014Y-83320568D01*
X100902093Y-83138200D01*
X100902087Y-83138190D01*
X100833146Y-83043300D01*
X100781766Y-82972581D01*
X100648585Y-82839400D01*
X100601467Y-82764411D01*
X100590300Y-82698686D01*
X100590300Y-80710206D01*
X100610007Y-80623863D01*
X100648586Y-80569492D01*
X101263692Y-79954386D01*
X101338680Y-79907267D01*
X101404406Y-79896100D01*
X157457241Y-79896100D01*
X157457242Y-79896100D01*
X157611897Y-79865337D01*
X157757579Y-79804994D01*
X157888689Y-79717389D01*
X160590988Y-77015090D01*
X160590989Y-77015089D01*
X160678594Y-76883979D01*
X160738937Y-76738297D01*
X160764037Y-76612115D01*
X160769700Y-76583643D01*
X160769700Y-76425958D01*
X160769700Y-73411730D01*
X161765500Y-73411730D01*
X161765500Y-75201466D01*
X161768414Y-75226589D01*
X161794382Y-75285402D01*
X161813794Y-75329365D01*
X161893235Y-75408806D01*
X161996009Y-75454185D01*
X162021135Y-75457100D01*
X162279958Y-75457099D01*
X162366298Y-75476806D01*
X162435540Y-75532024D01*
X162473966Y-75611817D01*
X162473967Y-75700380D01*
X162435541Y-75780173D01*
X162370303Y-75833408D01*
X162313009Y-75862601D01*
X162166496Y-75969049D01*
X162038449Y-76097096D01*
X161932000Y-76243611D01*
X161849794Y-76404948D01*
X161849786Y-76404967D01*
X161793831Y-76577181D01*
X161793828Y-76577192D01*
X161765500Y-76756054D01*
X161765500Y-76937145D01*
X161793828Y-77116007D01*
X161793831Y-77116018D01*
X161849786Y-77288232D01*
X161849794Y-77288251D01*
X161932000Y-77449588D01*
X161932003Y-77449592D01*
X161932004Y-77449594D01*
X162038447Y-77596101D01*
X162166499Y-77724153D01*
X162313006Y-77830596D01*
X162313008Y-77830597D01*
X162313011Y-77830599D01*
X162474348Y-77912805D01*
X162474355Y-77912807D01*
X162474361Y-77912811D01*
X162474366Y-77912812D01*
X162474367Y-77912813D01*
X162646581Y-77968768D01*
X162646585Y-77968769D01*
X162646591Y-77968771D01*
X162825454Y-77997100D01*
X163006546Y-77997100D01*
X163185409Y-77968771D01*
X163357639Y-77912811D01*
X163518994Y-77830596D01*
X163665501Y-77724153D01*
X163793553Y-77596101D01*
X163899996Y-77449594D01*
X163982211Y-77288239D01*
X164038171Y-77116009D01*
X164066500Y-76937146D01*
X164066500Y-76756054D01*
X164038171Y-76577191D01*
X164029681Y-76551062D01*
X163982213Y-76404967D01*
X163982212Y-76404966D01*
X163982211Y-76404961D01*
X163982207Y-76404955D01*
X163982205Y-76404948D01*
X163899999Y-76243611D01*
X163899997Y-76243608D01*
X163899996Y-76243606D01*
X163793553Y-76097099D01*
X163665501Y-75969047D01*
X163518994Y-75862604D01*
X163518992Y-75862603D01*
X163518988Y-75862600D01*
X163461697Y-75833409D01*
X163393712Y-75776651D01*
X163357086Y-75696017D01*
X163359073Y-75607476D01*
X163399279Y-75528565D01*
X163469743Y-75474914D01*
X163552040Y-75457099D01*
X163810864Y-75457099D01*
X163810867Y-75457099D01*
X163825940Y-75455350D01*
X163835991Y-75454185D01*
X163938765Y-75408806D01*
X164018206Y-75329365D01*
X164063585Y-75226591D01*
X164066500Y-75201465D01*
X164066499Y-73411736D01*
X164066498Y-73411730D01*
X164063585Y-73386610D01*
X164058749Y-73375658D01*
X164018206Y-73283835D01*
X163938765Y-73204394D01*
X163938762Y-73204392D01*
X163938761Y-73204392D01*
X163835991Y-73159015D01*
X163810866Y-73156100D01*
X162021133Y-73156100D01*
X161996010Y-73159014D01*
X161893238Y-73204392D01*
X161893233Y-73204395D01*
X161813795Y-73283833D01*
X161813792Y-73283838D01*
X161768415Y-73386607D01*
X161768415Y-73386609D01*
X161765500Y-73411730D01*
X160769700Y-73411730D01*
X160769700Y-69603606D01*
X160789407Y-69517263D01*
X160827986Y-69462892D01*
X162274492Y-68016386D01*
X162349480Y-67969267D01*
X162415206Y-67958100D01*
X235028841Y-67958100D01*
X235028842Y-67958100D01*
X235183497Y-67927337D01*
X235329179Y-67866994D01*
X235460289Y-67779389D01*
X237378989Y-65860689D01*
X237466594Y-65729579D01*
X237469314Y-65723014D01*
X237501301Y-65645789D01*
X237526938Y-65583897D01*
X237546408Y-65486014D01*
X237557700Y-65429245D01*
X237557700Y-56387513D01*
X237577407Y-56301170D01*
X237615986Y-56246799D01*
X237678796Y-56183989D01*
X237749166Y-56113619D01*
X237869487Y-55948010D01*
X237870731Y-55945570D01*
X237962414Y-55765631D01*
X237962414Y-55765629D01*
X237962420Y-55765619D01*
X238025677Y-55570934D01*
X238057700Y-55368752D01*
X238057700Y-54664048D01*
X238025677Y-54461866D01*
X237962420Y-54267181D01*
X237962416Y-54267175D01*
X237962414Y-54267168D01*
X237869493Y-54084800D01*
X237869487Y-54084790D01*
X237848180Y-54055463D01*
X237749166Y-53919181D01*
X237604419Y-53774434D01*
X237497023Y-53696407D01*
X237438809Y-53654112D01*
X237438799Y-53654106D01*
X237256431Y-53561185D01*
X237256412Y-53561177D01*
X237061736Y-53497923D01*
X237061729Y-53497922D01*
X236946935Y-53479740D01*
X236859552Y-53465900D01*
X236654848Y-53465900D01*
X236604528Y-53473870D01*
X236452670Y-53497922D01*
X236452663Y-53497923D01*
X236257987Y-53561177D01*
X236257968Y-53561185D01*
X236075600Y-53654106D01*
X236075590Y-53654112D01*
X235909983Y-53774432D01*
X235909978Y-53774436D01*
X235854944Y-53829470D01*
X235779955Y-53876588D01*
X235691948Y-53886504D01*
X235608355Y-53857252D01*
X235545732Y-53794628D01*
X235516555Y-53711678D01*
X235514785Y-53696409D01*
X235469406Y-53593635D01*
X235389965Y-53514194D01*
X235389962Y-53514192D01*
X235389961Y-53514192D01*
X235287191Y-53468815D01*
X235262066Y-53465900D01*
X233172333Y-53465900D01*
X233147210Y-53468814D01*
X233044438Y-53514192D01*
X233044433Y-53514195D01*
X232964995Y-53593633D01*
X232964992Y-53593638D01*
X232919615Y-53696407D01*
X232919615Y-53696409D01*
X232916700Y-53721530D01*
X232916700Y-56311266D01*
X232919614Y-56336389D01*
X232932779Y-56366206D01*
X232964994Y-56439165D01*
X233044435Y-56518606D01*
X233147209Y-56563985D01*
X233172335Y-56566900D01*
X235262064Y-56566899D01*
X235262066Y-56566899D01*
X235274627Y-56565442D01*
X235287191Y-56563985D01*
X235389965Y-56518606D01*
X235469406Y-56439165D01*
X235514785Y-56336391D01*
X235516558Y-56321109D01*
X235531201Y-56279702D01*
X235545734Y-56238171D01*
X235545973Y-56237931D01*
X235546086Y-56237613D01*
X235577334Y-56206571D01*
X235608358Y-56175547D01*
X235608677Y-56175435D01*
X235608917Y-56175197D01*
X235650472Y-56160810D01*
X235691951Y-56146296D01*
X235692286Y-56146333D01*
X235692607Y-56146223D01*
X235736295Y-56151292D01*
X235779958Y-56156212D01*
X235780244Y-56156392D01*
X235780580Y-56156431D01*
X235854946Y-56203331D01*
X235898414Y-56246799D01*
X235945533Y-56321787D01*
X235956700Y-56387513D01*
X235956700Y-64936394D01*
X235936993Y-65022737D01*
X235898414Y-65077108D01*
X234676708Y-66298814D01*
X234601720Y-66345933D01*
X234535994Y-66357100D01*
X162080042Y-66357100D01*
X161922358Y-66357100D01*
X161871272Y-66367261D01*
X161767706Y-66387862D01*
X161767699Y-66387864D01*
X161622025Y-66448203D01*
X161622018Y-66448207D01*
X161490915Y-66535808D01*
X161490907Y-66535814D01*
X159347414Y-68679307D01*
X159347408Y-68679315D01*
X159259807Y-68810418D01*
X159259803Y-68810425D01*
X159199464Y-68956099D01*
X159199462Y-68956106D01*
X159168700Y-69110758D01*
X159168700Y-76090794D01*
X159148993Y-76177137D01*
X159110414Y-76231508D01*
X157105108Y-78236814D01*
X157030120Y-78283933D01*
X156964394Y-78295100D01*
X101069243Y-78295100D01*
X100911558Y-78295100D01*
X100860472Y-78305261D01*
X100756906Y-78325862D01*
X100756899Y-78325864D01*
X100611225Y-78386203D01*
X100611218Y-78386207D01*
X100480115Y-78473808D01*
X100480107Y-78473814D01*
X99168014Y-79785907D01*
X99168008Y-79785915D01*
X99080407Y-79917018D01*
X99080403Y-79917025D01*
X99020064Y-80062699D01*
X99020062Y-80062706D01*
X98989300Y-80217358D01*
X98989300Y-82698686D01*
X98969593Y-82785029D01*
X98931015Y-82839400D01*
X98797831Y-82972584D01*
X98677512Y-83138190D01*
X98677506Y-83138200D01*
X98584585Y-83320568D01*
X98584577Y-83320587D01*
X98521323Y-83515263D01*
X98521322Y-83515270D01*
X98511773Y-83575559D01*
X98489300Y-83717448D01*
X92090037Y-83717448D01*
X92058077Y-83515666D01*
X92026896Y-83419700D01*
X91994822Y-83320987D01*
X91994821Y-83320986D01*
X91994820Y-83320981D01*
X91994816Y-83320975D01*
X91994814Y-83320968D01*
X91901893Y-83138600D01*
X91901887Y-83138590D01*
X91781568Y-82972984D01*
X91781566Y-82972981D01*
X91648385Y-82839800D01*
X91601267Y-82764811D01*
X91590100Y-82699086D01*
X91590100Y-78737606D01*
X91609807Y-78651263D01*
X91648386Y-78596892D01*
X92932492Y-77312786D01*
X93007480Y-77265667D01*
X93073206Y-77254500D01*
X154307641Y-77254500D01*
X154307642Y-77254500D01*
X154462297Y-77223737D01*
X154607979Y-77163394D01*
X154739089Y-77075789D01*
X157644589Y-74170289D01*
X157732194Y-74039179D01*
X157792538Y-73893497D01*
X157807919Y-73816169D01*
X157823300Y-73738845D01*
X157823300Y-67368406D01*
X157843007Y-67282063D01*
X157881586Y-67227692D01*
X159226492Y-65882786D01*
X159301480Y-65835667D01*
X159367206Y-65824500D01*
X214556441Y-65824500D01*
X214556442Y-65824500D01*
X214711097Y-65793737D01*
X214856779Y-65733394D01*
X214987889Y-65645789D01*
X215941389Y-64692289D01*
X216028994Y-64561179D01*
X216089337Y-64415497D01*
X216120100Y-64260842D01*
X216120100Y-64103157D01*
X216120100Y-56285913D01*
X216139807Y-56199570D01*
X216178386Y-56145199D01*
X216240872Y-56082713D01*
X216311566Y-56012019D01*
X216431887Y-55846410D01*
X216439469Y-55831531D01*
X216524814Y-55664031D01*
X216524814Y-55664029D01*
X216524820Y-55664019D01*
X216588077Y-55469334D01*
X216620100Y-55267152D01*
X216620100Y-54562448D01*
X216588077Y-54360266D01*
X216524820Y-54165581D01*
X216524816Y-54165575D01*
X216524814Y-54165568D01*
X216431893Y-53983200D01*
X216431887Y-53983190D01*
X216394979Y-53932390D01*
X216311566Y-53817581D01*
X216166819Y-53672834D01*
X216057807Y-53593633D01*
X216001209Y-53552512D01*
X216001199Y-53552506D01*
X215818831Y-53459585D01*
X215818812Y-53459577D01*
X215624136Y-53396323D01*
X215624129Y-53396322D01*
X215509335Y-53378140D01*
X215421952Y-53364300D01*
X215217248Y-53364300D01*
X215156235Y-53373963D01*
X215015070Y-53396322D01*
X215015063Y-53396323D01*
X214820387Y-53459577D01*
X214820368Y-53459585D01*
X214638000Y-53552506D01*
X214637990Y-53552512D01*
X214472383Y-53672832D01*
X214472378Y-53672836D01*
X214417344Y-53727870D01*
X214342355Y-53774988D01*
X214254348Y-53784904D01*
X214170755Y-53755652D01*
X214108132Y-53693028D01*
X214078955Y-53610078D01*
X214077185Y-53594809D01*
X214031806Y-53492035D01*
X213952365Y-53412594D01*
X213952362Y-53412592D01*
X213952361Y-53412592D01*
X213849591Y-53367215D01*
X213824466Y-53364300D01*
X211734733Y-53364300D01*
X211709610Y-53367214D01*
X211606838Y-53412592D01*
X211606833Y-53412595D01*
X211527395Y-53492033D01*
X211527392Y-53492038D01*
X211482015Y-53594807D01*
X211482015Y-53594809D01*
X211479100Y-53619930D01*
X211479100Y-56209666D01*
X211482014Y-56234789D01*
X211526875Y-56336391D01*
X211527394Y-56337565D01*
X211606835Y-56417006D01*
X211709609Y-56462385D01*
X211734735Y-56465300D01*
X213824464Y-56465299D01*
X213824466Y-56465299D01*
X213837027Y-56463842D01*
X213849591Y-56462385D01*
X213952365Y-56417006D01*
X214031806Y-56337565D01*
X214077185Y-56234791D01*
X214078958Y-56219509D01*
X214093601Y-56178102D01*
X214108134Y-56136571D01*
X214108373Y-56136331D01*
X214108486Y-56136013D01*
X214139734Y-56104971D01*
X214170758Y-56073947D01*
X214171077Y-56073835D01*
X214171317Y-56073597D01*
X214212872Y-56059210D01*
X214254351Y-56044696D01*
X214254686Y-56044733D01*
X214255007Y-56044623D01*
X214298695Y-56049692D01*
X214342358Y-56054612D01*
X214342644Y-56054792D01*
X214342980Y-56054831D01*
X214417346Y-56101731D01*
X214460814Y-56145199D01*
X214507933Y-56220187D01*
X214519100Y-56285913D01*
X214519100Y-63767994D01*
X214499393Y-63854337D01*
X214460814Y-63908708D01*
X214204308Y-64165214D01*
X214129320Y-64212333D01*
X214063594Y-64223500D01*
X159032043Y-64223500D01*
X158874358Y-64223500D01*
X158823272Y-64233661D01*
X158719706Y-64254262D01*
X158719699Y-64254264D01*
X158574025Y-64314603D01*
X158574018Y-64314607D01*
X158442915Y-64402208D01*
X158442907Y-64402214D01*
X156401014Y-66444107D01*
X156401008Y-66444115D01*
X156313407Y-66575218D01*
X156313403Y-66575225D01*
X156253064Y-66720899D01*
X156253062Y-66720906D01*
X156222300Y-66875558D01*
X156222300Y-73245994D01*
X156202593Y-73332337D01*
X156164014Y-73386708D01*
X153955508Y-75595214D01*
X153880520Y-75642333D01*
X153814794Y-75653500D01*
X92580355Y-75653500D01*
X92425705Y-75684261D01*
X92425703Y-75684262D01*
X92280024Y-75744603D01*
X92280019Y-75744606D01*
X92148915Y-75832208D01*
X92148907Y-75832214D01*
X90167814Y-77813307D01*
X90167808Y-77813315D01*
X90080207Y-77944418D01*
X90080203Y-77944425D01*
X90019864Y-78090099D01*
X90019862Y-78090106D01*
X89989100Y-78244758D01*
X89989100Y-82699086D01*
X89969393Y-82785429D01*
X89930815Y-82839800D01*
X89797631Y-82972984D01*
X89677312Y-83138590D01*
X89677306Y-83138600D01*
X89584385Y-83320968D01*
X89584377Y-83320987D01*
X89521123Y-83515663D01*
X89521122Y-83515670D01*
X89517174Y-83540597D01*
X89489100Y-83717848D01*
X87090100Y-83717848D01*
X87058077Y-83515666D01*
X87026896Y-83419700D01*
X86994822Y-83320987D01*
X86994821Y-83320986D01*
X86994820Y-83320981D01*
X86994816Y-83320975D01*
X86994814Y-83320968D01*
X86901893Y-83138600D01*
X86901887Y-83138590D01*
X86781568Y-82972984D01*
X86781566Y-82972981D01*
X86648385Y-82839800D01*
X86601267Y-82764811D01*
X86590100Y-82699086D01*
X86590100Y-76727206D01*
X86609807Y-76640863D01*
X86648386Y-76586492D01*
X88716092Y-74518786D01*
X88791080Y-74471667D01*
X88856806Y-74460500D01*
X151208841Y-74460500D01*
X151208842Y-74460500D01*
X151363497Y-74429737D01*
X151509179Y-74369394D01*
X151640289Y-74281789D01*
X154291788Y-71630290D01*
X154319442Y-71588903D01*
X154379394Y-71499179D01*
X154439737Y-71353497D01*
X154470500Y-71198842D01*
X154470500Y-65031606D01*
X154490207Y-64945263D01*
X154528786Y-64890892D01*
X155873692Y-63545986D01*
X155948680Y-63498867D01*
X156014406Y-63487700D01*
X160206546Y-63487700D01*
X160282699Y-63502848D01*
X160294498Y-63507735D01*
X160294503Y-63507737D01*
X160449158Y-63538500D01*
X160449159Y-63538500D01*
X190629641Y-63538500D01*
X190629642Y-63538500D01*
X190784297Y-63507737D01*
X190929979Y-63447394D01*
X191061089Y-63359789D01*
X193284589Y-61136289D01*
X193372194Y-61005179D01*
X193432537Y-60859497D01*
X193463300Y-60704842D01*
X193463300Y-60547158D01*
X193463300Y-56285913D01*
X193483007Y-56199570D01*
X193521586Y-56145199D01*
X193584072Y-56082713D01*
X193654766Y-56012019D01*
X193775087Y-55846410D01*
X193782669Y-55831531D01*
X193868014Y-55664031D01*
X193868014Y-55664029D01*
X193868020Y-55664019D01*
X193931277Y-55469334D01*
X193963300Y-55267152D01*
X193963300Y-54562448D01*
X193931277Y-54360266D01*
X193868020Y-54165581D01*
X193868016Y-54165575D01*
X193868014Y-54165568D01*
X193775093Y-53983200D01*
X193775087Y-53983190D01*
X193738179Y-53932390D01*
X193654766Y-53817581D01*
X193510019Y-53672834D01*
X193401007Y-53593633D01*
X193344409Y-53552512D01*
X193344399Y-53552506D01*
X193162031Y-53459585D01*
X193162012Y-53459577D01*
X192967336Y-53396323D01*
X192967329Y-53396322D01*
X192852535Y-53378140D01*
X192765152Y-53364300D01*
X192560448Y-53364300D01*
X192499435Y-53373963D01*
X192358270Y-53396322D01*
X192358263Y-53396323D01*
X192163587Y-53459577D01*
X192163568Y-53459585D01*
X191981200Y-53552506D01*
X191981190Y-53552512D01*
X191815583Y-53672832D01*
X191815578Y-53672836D01*
X191760544Y-53727870D01*
X191685555Y-53774988D01*
X191597548Y-53784904D01*
X191513955Y-53755652D01*
X191451332Y-53693028D01*
X191422155Y-53610078D01*
X191420385Y-53594809D01*
X191375006Y-53492035D01*
X191295565Y-53412594D01*
X191295562Y-53412592D01*
X191295561Y-53412592D01*
X191192791Y-53367215D01*
X191167666Y-53364300D01*
X189077933Y-53364300D01*
X189052810Y-53367214D01*
X188950038Y-53412592D01*
X188950033Y-53412595D01*
X188870595Y-53492033D01*
X188870592Y-53492038D01*
X188825215Y-53594807D01*
X188825215Y-53594809D01*
X188822300Y-53619930D01*
X188822300Y-56209666D01*
X188825214Y-56234789D01*
X188870075Y-56336391D01*
X188870594Y-56337565D01*
X188950035Y-56417006D01*
X189052809Y-56462385D01*
X189077935Y-56465300D01*
X191167664Y-56465299D01*
X191167666Y-56465299D01*
X191180227Y-56463842D01*
X191192791Y-56462385D01*
X191295565Y-56417006D01*
X191375006Y-56337565D01*
X191420385Y-56234791D01*
X191422158Y-56219509D01*
X191436801Y-56178102D01*
X191451334Y-56136571D01*
X191451573Y-56136331D01*
X191451686Y-56136013D01*
X191482934Y-56104971D01*
X191513958Y-56073947D01*
X191514277Y-56073835D01*
X191514517Y-56073597D01*
X191556072Y-56059210D01*
X191597551Y-56044696D01*
X191597886Y-56044733D01*
X191598207Y-56044623D01*
X191641895Y-56049692D01*
X191685558Y-56054612D01*
X191685844Y-56054792D01*
X191686180Y-56054831D01*
X191760546Y-56101731D01*
X191804014Y-56145199D01*
X191851133Y-56220187D01*
X191862300Y-56285913D01*
X191862300Y-60211994D01*
X191842593Y-60298337D01*
X191804014Y-60352708D01*
X190277508Y-61879214D01*
X190202520Y-61926333D01*
X190136794Y-61937500D01*
X160798654Y-61937500D01*
X160722501Y-61922352D01*
X160710701Y-61917464D01*
X160710693Y-61917462D01*
X160632325Y-61901873D01*
X160556042Y-61886700D01*
X155679243Y-61886700D01*
X155521558Y-61886700D01*
X155470472Y-61896861D01*
X155366906Y-61917462D01*
X155366899Y-61917464D01*
X155221225Y-61977803D01*
X155221218Y-61977807D01*
X155090115Y-62065408D01*
X155090107Y-62065414D01*
X153048214Y-64107307D01*
X153048208Y-64107315D01*
X152960607Y-64238418D01*
X152960603Y-64238425D01*
X152900264Y-64384099D01*
X152900262Y-64384106D01*
X152869500Y-64538758D01*
X152869500Y-70705994D01*
X152849793Y-70792337D01*
X152811214Y-70846708D01*
X150856708Y-72801214D01*
X150781720Y-72848333D01*
X150715994Y-72859500D01*
X88521642Y-72859500D01*
X88363957Y-72859500D01*
X88312871Y-72869661D01*
X88209305Y-72890262D01*
X88209298Y-72890264D01*
X88166632Y-72907936D01*
X88166633Y-72907937D01*
X88063622Y-72950605D01*
X88063618Y-72950607D01*
X87932515Y-73038208D01*
X87932507Y-73038214D01*
X85167814Y-75802907D01*
X85167808Y-75802915D01*
X85080207Y-75934018D01*
X85080203Y-75934025D01*
X85019864Y-76079699D01*
X85019862Y-76079706D01*
X84989100Y-76234358D01*
X84989100Y-82699086D01*
X84969393Y-82785429D01*
X84930815Y-82839800D01*
X84797631Y-82972984D01*
X84677312Y-83138590D01*
X84677306Y-83138600D01*
X84584385Y-83320968D01*
X84584377Y-83320987D01*
X84521123Y-83515663D01*
X84521122Y-83515670D01*
X84517174Y-83540597D01*
X84489100Y-83717848D01*
X78089700Y-83717848D01*
X78089700Y-83717448D01*
X78057677Y-83515266D01*
X77994420Y-83320581D01*
X77994416Y-83320575D01*
X77994414Y-83320568D01*
X77901493Y-83138200D01*
X77901487Y-83138190D01*
X77832546Y-83043300D01*
X77781166Y-82972581D01*
X77647985Y-82839400D01*
X77600867Y-82764411D01*
X77589700Y-82698686D01*
X77589700Y-74246806D01*
X77609407Y-74160463D01*
X77647986Y-74106092D01*
X79876892Y-71877186D01*
X79951880Y-71830067D01*
X80017606Y-71818900D01*
X148922841Y-71818900D01*
X148922842Y-71818900D01*
X149077497Y-71788137D01*
X149223179Y-71727794D01*
X149354289Y-71640189D01*
X151446989Y-69547489D01*
X151534594Y-69416379D01*
X151594937Y-69270697D01*
X151625700Y-69116042D01*
X151625700Y-68958358D01*
X151625700Y-62085206D01*
X151645407Y-61998863D01*
X151683986Y-61944492D01*
X152673292Y-60955186D01*
X152748280Y-60908067D01*
X152814006Y-60896900D01*
X168785641Y-60896900D01*
X168785642Y-60896900D01*
X168940297Y-60866137D01*
X169085979Y-60805794D01*
X169217089Y-60718189D01*
X170780188Y-59155090D01*
X170780189Y-59155089D01*
X170867794Y-59023979D01*
X170910462Y-58920966D01*
X170928137Y-58878298D01*
X170928137Y-58878294D01*
X170928139Y-58878291D01*
X170958900Y-58723643D01*
X170958900Y-56235113D01*
X170978607Y-56148770D01*
X171017186Y-56094399D01*
X171079996Y-56031589D01*
X171150366Y-55961219D01*
X171270687Y-55795610D01*
X171285969Y-55765619D01*
X171363614Y-55613231D01*
X171363614Y-55613229D01*
X171363620Y-55613219D01*
X171426877Y-55418534D01*
X171458900Y-55216352D01*
X171458900Y-54511648D01*
X171426877Y-54309466D01*
X171363620Y-54114781D01*
X171363616Y-54114775D01*
X171363614Y-54114768D01*
X171270693Y-53932400D01*
X171270687Y-53932390D01*
X171195912Y-53829470D01*
X171150366Y-53766781D01*
X171005619Y-53622034D01*
X170909931Y-53552513D01*
X170840009Y-53501712D01*
X170839999Y-53501706D01*
X170657631Y-53408785D01*
X170657612Y-53408777D01*
X170462936Y-53345523D01*
X170462929Y-53345522D01*
X170348135Y-53327340D01*
X170260752Y-53313500D01*
X170056048Y-53313500D01*
X170037644Y-53316415D01*
X169853870Y-53345522D01*
X169853863Y-53345523D01*
X169659187Y-53408777D01*
X169659168Y-53408785D01*
X169476800Y-53501706D01*
X169476790Y-53501712D01*
X169311183Y-53622032D01*
X169311178Y-53622036D01*
X169256144Y-53677070D01*
X169181155Y-53724188D01*
X169093148Y-53734104D01*
X169009555Y-53704852D01*
X168946932Y-53642228D01*
X168917755Y-53559278D01*
X168915985Y-53544009D01*
X168870606Y-53441235D01*
X168791165Y-53361794D01*
X168791162Y-53361792D01*
X168791161Y-53361792D01*
X168688391Y-53316415D01*
X168663266Y-53313500D01*
X166573533Y-53313500D01*
X166548410Y-53316414D01*
X166445638Y-53361792D01*
X166445633Y-53361795D01*
X166366195Y-53441233D01*
X166366192Y-53441238D01*
X166320815Y-53544007D01*
X166320815Y-53544009D01*
X166317900Y-53569130D01*
X166317900Y-56158866D01*
X166320814Y-56183989D01*
X166353654Y-56258366D01*
X166366194Y-56286765D01*
X166445635Y-56366206D01*
X166548409Y-56411585D01*
X166573535Y-56414500D01*
X168663264Y-56414499D01*
X168663266Y-56414499D01*
X168675827Y-56413042D01*
X168688391Y-56411585D01*
X168791165Y-56366206D01*
X168870606Y-56286765D01*
X168915985Y-56183991D01*
X168917758Y-56168709D01*
X168932401Y-56127302D01*
X168946934Y-56085771D01*
X168947173Y-56085531D01*
X168947286Y-56085213D01*
X168978534Y-56054171D01*
X169009558Y-56023147D01*
X169009877Y-56023035D01*
X169010117Y-56022797D01*
X169051672Y-56008410D01*
X169093151Y-55993896D01*
X169093486Y-55993933D01*
X169093807Y-55993823D01*
X169137495Y-55998892D01*
X169181158Y-56003812D01*
X169181444Y-56003992D01*
X169181780Y-56004031D01*
X169256146Y-56050931D01*
X169299614Y-56094399D01*
X169346733Y-56169387D01*
X169357900Y-56235113D01*
X169357900Y-58230794D01*
X169338193Y-58317137D01*
X169299614Y-58371508D01*
X168433508Y-59237614D01*
X168358520Y-59284733D01*
X168292794Y-59295900D01*
X152321155Y-59295900D01*
X152166505Y-59326661D01*
X152166503Y-59326662D01*
X152020824Y-59387003D01*
X152020819Y-59387006D01*
X151889715Y-59474608D01*
X151889707Y-59474614D01*
X150203414Y-61160907D01*
X150203408Y-61160915D01*
X150115807Y-61292018D01*
X150115803Y-61292025D01*
X150055464Y-61437699D01*
X150055462Y-61437706D01*
X150024700Y-61592358D01*
X150024700Y-68623194D01*
X150004993Y-68709537D01*
X149966414Y-68763908D01*
X148570708Y-70159614D01*
X148495720Y-70206733D01*
X148429994Y-70217900D01*
X79524755Y-70217900D01*
X79370105Y-70248661D01*
X79370103Y-70248662D01*
X79224424Y-70309003D01*
X79224419Y-70309006D01*
X79093315Y-70396608D01*
X79093307Y-70396614D01*
X76167414Y-73322507D01*
X76167408Y-73322515D01*
X76079807Y-73453618D01*
X76079803Y-73453625D01*
X76019464Y-73599299D01*
X76019462Y-73599306D01*
X75988700Y-73753958D01*
X75988700Y-82698686D01*
X75968993Y-82785029D01*
X75930415Y-82839400D01*
X75797231Y-82972584D01*
X75676912Y-83138190D01*
X75676906Y-83138200D01*
X75583985Y-83320568D01*
X75583977Y-83320587D01*
X75520723Y-83515263D01*
X75520722Y-83515270D01*
X75511173Y-83575559D01*
X75488700Y-83717448D01*
X73089700Y-83717448D01*
X73057677Y-83515266D01*
X72994420Y-83320581D01*
X72994416Y-83320575D01*
X72994414Y-83320568D01*
X72901493Y-83138200D01*
X72901487Y-83138190D01*
X72832546Y-83043300D01*
X72781166Y-82972581D01*
X72647985Y-82839400D01*
X72600867Y-82764411D01*
X72589700Y-82698686D01*
X72589700Y-72236406D01*
X72609407Y-72150063D01*
X72647986Y-72095692D01*
X75050892Y-69692786D01*
X75125880Y-69645667D01*
X75191606Y-69634500D01*
X147144841Y-69634500D01*
X147144842Y-69634500D01*
X147299497Y-69603737D01*
X147445179Y-69543394D01*
X147576289Y-69455789D01*
X148682189Y-68349889D01*
X148769794Y-68218779D01*
X148830137Y-68073097D01*
X148860900Y-67918442D01*
X148860900Y-67760758D01*
X148860900Y-56184313D01*
X148880607Y-56097970D01*
X148919186Y-56043599D01*
X148981996Y-55980789D01*
X149052366Y-55910419D01*
X149172687Y-55744810D01*
X149215842Y-55660115D01*
X149265614Y-55562431D01*
X149265614Y-55562429D01*
X149265620Y-55562419D01*
X149328877Y-55367734D01*
X149360900Y-55165552D01*
X149360900Y-54460848D01*
X149328877Y-54258666D01*
X149265620Y-54063981D01*
X149265616Y-54063975D01*
X149265614Y-54063968D01*
X149172693Y-53881600D01*
X149172687Y-53881590D01*
X149157559Y-53860768D01*
X149052366Y-53715981D01*
X148907619Y-53571234D01*
X148811931Y-53501713D01*
X148742009Y-53450912D01*
X148741999Y-53450906D01*
X148559631Y-53357985D01*
X148559612Y-53357977D01*
X148364936Y-53294723D01*
X148364929Y-53294722D01*
X148250135Y-53276540D01*
X148162752Y-53262700D01*
X147958048Y-53262700D01*
X147939644Y-53265615D01*
X147755870Y-53294722D01*
X147755863Y-53294723D01*
X147561187Y-53357977D01*
X147561168Y-53357985D01*
X147378800Y-53450906D01*
X147378790Y-53450912D01*
X147213183Y-53571232D01*
X147213178Y-53571236D01*
X147158144Y-53626270D01*
X147083155Y-53673388D01*
X146995148Y-53683304D01*
X146911555Y-53654052D01*
X146848932Y-53591428D01*
X146819755Y-53508478D01*
X146817985Y-53493209D01*
X146772606Y-53390435D01*
X146693165Y-53310994D01*
X146693162Y-53310992D01*
X146693161Y-53310992D01*
X146590391Y-53265615D01*
X146565266Y-53262700D01*
X144475533Y-53262700D01*
X144450410Y-53265614D01*
X144347638Y-53310992D01*
X144347633Y-53310995D01*
X144268195Y-53390433D01*
X144268192Y-53390438D01*
X144222815Y-53493207D01*
X144222815Y-53493209D01*
X144219900Y-53518330D01*
X144219900Y-56108066D01*
X144222814Y-56133189D01*
X144267675Y-56234791D01*
X144268194Y-56235965D01*
X144347635Y-56315406D01*
X144450409Y-56360785D01*
X144475535Y-56363700D01*
X146565264Y-56363699D01*
X146565266Y-56363699D01*
X146577827Y-56362242D01*
X146590391Y-56360785D01*
X146693165Y-56315406D01*
X146772606Y-56235965D01*
X146817985Y-56133191D01*
X146819758Y-56117909D01*
X146834401Y-56076502D01*
X146848934Y-56034971D01*
X146849173Y-56034731D01*
X146849286Y-56034413D01*
X146880534Y-56003371D01*
X146911558Y-55972347D01*
X146911877Y-55972235D01*
X146912117Y-55971997D01*
X146953672Y-55957610D01*
X146995151Y-55943096D01*
X146995486Y-55943133D01*
X146995807Y-55943023D01*
X147039495Y-55948092D01*
X147083158Y-55953012D01*
X147083444Y-55953192D01*
X147083780Y-55953231D01*
X147158146Y-56000131D01*
X147201614Y-56043599D01*
X147248733Y-56118587D01*
X147259900Y-56184313D01*
X147259900Y-67425594D01*
X147240193Y-67511937D01*
X147201614Y-67566308D01*
X146792708Y-67975214D01*
X146717720Y-68022333D01*
X146651994Y-68033500D01*
X74856443Y-68033500D01*
X74698758Y-68033500D01*
X74647672Y-68043661D01*
X74544106Y-68064262D01*
X74544099Y-68064264D01*
X74398425Y-68124603D01*
X74398418Y-68124607D01*
X74267315Y-68212208D01*
X74267307Y-68212214D01*
X71167414Y-71312107D01*
X71167408Y-71312115D01*
X71079807Y-71443218D01*
X71079803Y-71443225D01*
X71019464Y-71588899D01*
X71019463Y-71588903D01*
X70988700Y-71743558D01*
X70988700Y-82698686D01*
X70968993Y-82785029D01*
X70930415Y-82839400D01*
X70797231Y-82972584D01*
X70676912Y-83138190D01*
X70676906Y-83138200D01*
X70583985Y-83320568D01*
X70583977Y-83320587D01*
X70520723Y-83515263D01*
X70520722Y-83515270D01*
X70511173Y-83575559D01*
X70488700Y-83717448D01*
X64089268Y-83717448D01*
X64057277Y-83515466D01*
X63994020Y-83320781D01*
X63994016Y-83320775D01*
X63994014Y-83320768D01*
X63901093Y-83138400D01*
X63901087Y-83138390D01*
X63848215Y-83065618D01*
X63780766Y-82972781D01*
X63647585Y-82839600D01*
X63600467Y-82764611D01*
X63589300Y-82698886D01*
X63589300Y-69756006D01*
X63609007Y-69669663D01*
X63647586Y-69615292D01*
X66059292Y-67203586D01*
X66134280Y-67156467D01*
X66200006Y-67145300D01*
X124488041Y-67145300D01*
X124488042Y-67145300D01*
X124642697Y-67114537D01*
X124788379Y-67054194D01*
X124919489Y-66966589D01*
X127142989Y-64743089D01*
X127230594Y-64611979D01*
X127290937Y-64466297D01*
X127321700Y-64311642D01*
X127321700Y-64153958D01*
X127321700Y-56082713D01*
X127341407Y-55996370D01*
X127379986Y-55941999D01*
X127439972Y-55882013D01*
X127513166Y-55808819D01*
X127633487Y-55643210D01*
X127638876Y-55632635D01*
X127726414Y-55460831D01*
X127726414Y-55460829D01*
X127726420Y-55460819D01*
X127789677Y-55266134D01*
X127821700Y-55063952D01*
X127821700Y-54359248D01*
X127789677Y-54157066D01*
X127726420Y-53962381D01*
X127726416Y-53962375D01*
X127726414Y-53962368D01*
X127633493Y-53780000D01*
X127633487Y-53779990D01*
X127623889Y-53766779D01*
X127513166Y-53614381D01*
X127368419Y-53469634D01*
X127259407Y-53390433D01*
X127202809Y-53349312D01*
X127202799Y-53349306D01*
X127020431Y-53256385D01*
X127020412Y-53256377D01*
X126825736Y-53193123D01*
X126825729Y-53193122D01*
X126710935Y-53174940D01*
X126623552Y-53161100D01*
X126418848Y-53161100D01*
X126400444Y-53164015D01*
X126216670Y-53193122D01*
X126216663Y-53193123D01*
X126021987Y-53256377D01*
X126021968Y-53256385D01*
X125839600Y-53349306D01*
X125839590Y-53349312D01*
X125673983Y-53469632D01*
X125673978Y-53469636D01*
X125618944Y-53524670D01*
X125543955Y-53571788D01*
X125455948Y-53581704D01*
X125372355Y-53552452D01*
X125309732Y-53489828D01*
X125280555Y-53406878D01*
X125278785Y-53391609D01*
X125233406Y-53288835D01*
X125153965Y-53209394D01*
X125153962Y-53209392D01*
X125153961Y-53209392D01*
X125051191Y-53164015D01*
X125026066Y-53161100D01*
X122936333Y-53161100D01*
X122911210Y-53164014D01*
X122808438Y-53209392D01*
X122808433Y-53209395D01*
X122728995Y-53288833D01*
X122728992Y-53288838D01*
X122683615Y-53391607D01*
X122683615Y-53391609D01*
X122680700Y-53416730D01*
X122680700Y-56006466D01*
X122683614Y-56031589D01*
X122728475Y-56133191D01*
X122728994Y-56134365D01*
X122808435Y-56213806D01*
X122911209Y-56259185D01*
X122936335Y-56262100D01*
X125026064Y-56262099D01*
X125026066Y-56262099D01*
X125038627Y-56260642D01*
X125051191Y-56259185D01*
X125153965Y-56213806D01*
X125233406Y-56134365D01*
X125278785Y-56031591D01*
X125280558Y-56016309D01*
X125295201Y-55974902D01*
X125309734Y-55933371D01*
X125309973Y-55933131D01*
X125310086Y-55932813D01*
X125341274Y-55901830D01*
X125372358Y-55870747D01*
X125372677Y-55870635D01*
X125372917Y-55870397D01*
X125414472Y-55856010D01*
X125455951Y-55841496D01*
X125456286Y-55841533D01*
X125456607Y-55841423D01*
X125500295Y-55846492D01*
X125543958Y-55851412D01*
X125544244Y-55851592D01*
X125544580Y-55851631D01*
X125618946Y-55898531D01*
X125662414Y-55941999D01*
X125709533Y-56016987D01*
X125720700Y-56082713D01*
X125720700Y-63818794D01*
X125700993Y-63905137D01*
X125662414Y-63959508D01*
X124135908Y-65486014D01*
X124060920Y-65533133D01*
X123995194Y-65544300D01*
X65864842Y-65544300D01*
X65707158Y-65544300D01*
X65656072Y-65554461D01*
X65552506Y-65575062D01*
X65552499Y-65575064D01*
X65406825Y-65635403D01*
X65406818Y-65635407D01*
X65275715Y-65723008D01*
X65275707Y-65723014D01*
X62167014Y-68831707D01*
X62167008Y-68831715D01*
X62079407Y-68962818D01*
X62079403Y-68962825D01*
X62019064Y-69108499D01*
X62019062Y-69108506D01*
X61988300Y-69263158D01*
X61988300Y-82698886D01*
X61968593Y-82785229D01*
X61930015Y-82839600D01*
X61796831Y-82972784D01*
X61676512Y-83138390D01*
X61676506Y-83138400D01*
X61583585Y-83320768D01*
X61583577Y-83320787D01*
X61520323Y-83515463D01*
X61520322Y-83515470D01*
X61516342Y-83540598D01*
X61488300Y-83717648D01*
X59089300Y-83717648D01*
X59057277Y-83515466D01*
X58994020Y-83320781D01*
X58994016Y-83320775D01*
X58994014Y-83320768D01*
X58901093Y-83138400D01*
X58901087Y-83138390D01*
X58848215Y-83065618D01*
X58780766Y-82972781D01*
X58647585Y-82839600D01*
X58600467Y-82764611D01*
X58589300Y-82698886D01*
X58589300Y-67390006D01*
X58609007Y-67303663D01*
X58647586Y-67249292D01*
X60928492Y-64968386D01*
X61003480Y-64921267D01*
X61069206Y-64910100D01*
X103101241Y-64910100D01*
X103101242Y-64910100D01*
X103255897Y-64879337D01*
X103401579Y-64818994D01*
X103532689Y-64731389D01*
X105756189Y-62507889D01*
X105843794Y-62376779D01*
X105904137Y-62231097D01*
X105934900Y-62076442D01*
X105934900Y-61918758D01*
X105934900Y-56082713D01*
X105954607Y-55996370D01*
X105993186Y-55941999D01*
X106053172Y-55882013D01*
X106126366Y-55808819D01*
X106246687Y-55643210D01*
X106252076Y-55632635D01*
X106339614Y-55460831D01*
X106339614Y-55460829D01*
X106339620Y-55460819D01*
X106402877Y-55266134D01*
X106434900Y-55063952D01*
X106434900Y-54359248D01*
X106402877Y-54157066D01*
X106339620Y-53962381D01*
X106339616Y-53962375D01*
X106339614Y-53962368D01*
X106246693Y-53780000D01*
X106246687Y-53779990D01*
X106237089Y-53766779D01*
X106126366Y-53614381D01*
X105981619Y-53469634D01*
X105872607Y-53390433D01*
X105816009Y-53349312D01*
X105815999Y-53349306D01*
X105633631Y-53256385D01*
X105633612Y-53256377D01*
X105438936Y-53193123D01*
X105438929Y-53193122D01*
X105324135Y-53174940D01*
X105236752Y-53161100D01*
X105032048Y-53161100D01*
X105013644Y-53164015D01*
X104829870Y-53193122D01*
X104829863Y-53193123D01*
X104635187Y-53256377D01*
X104635168Y-53256385D01*
X104452800Y-53349306D01*
X104452790Y-53349312D01*
X104287183Y-53469632D01*
X104287178Y-53469636D01*
X104232144Y-53524670D01*
X104157155Y-53571788D01*
X104069148Y-53581704D01*
X103985555Y-53552452D01*
X103922932Y-53489828D01*
X103893755Y-53406878D01*
X103891985Y-53391609D01*
X103846606Y-53288835D01*
X103767165Y-53209394D01*
X103767162Y-53209392D01*
X103767161Y-53209392D01*
X103664391Y-53164015D01*
X103639266Y-53161100D01*
X101549533Y-53161100D01*
X101524410Y-53164014D01*
X101421638Y-53209392D01*
X101421633Y-53209395D01*
X101342195Y-53288833D01*
X101342192Y-53288838D01*
X101296815Y-53391607D01*
X101296815Y-53391609D01*
X101293900Y-53416730D01*
X101293900Y-56006466D01*
X101296814Y-56031589D01*
X101341675Y-56133191D01*
X101342194Y-56134365D01*
X101421635Y-56213806D01*
X101524409Y-56259185D01*
X101549535Y-56262100D01*
X103639264Y-56262099D01*
X103639266Y-56262099D01*
X103651827Y-56260642D01*
X103664391Y-56259185D01*
X103767165Y-56213806D01*
X103846606Y-56134365D01*
X103891985Y-56031591D01*
X103893758Y-56016309D01*
X103908401Y-55974902D01*
X103922934Y-55933371D01*
X103923173Y-55933131D01*
X103923286Y-55932813D01*
X103954474Y-55901830D01*
X103985558Y-55870747D01*
X103985877Y-55870635D01*
X103986117Y-55870397D01*
X104027672Y-55856010D01*
X104069151Y-55841496D01*
X104069486Y-55841533D01*
X104069807Y-55841423D01*
X104113495Y-55846492D01*
X104157158Y-55851412D01*
X104157444Y-55851592D01*
X104157780Y-55851631D01*
X104232146Y-55898531D01*
X104275614Y-55941999D01*
X104322733Y-56016987D01*
X104333900Y-56082713D01*
X104333900Y-61583594D01*
X104314193Y-61669937D01*
X104275614Y-61724308D01*
X102749108Y-63250814D01*
X102674120Y-63297933D01*
X102608394Y-63309100D01*
X60576355Y-63309100D01*
X60421705Y-63339861D01*
X60421703Y-63339862D01*
X60276024Y-63400203D01*
X60276019Y-63400206D01*
X60144915Y-63487808D01*
X60144907Y-63487814D01*
X57167014Y-66465707D01*
X57167008Y-66465715D01*
X57079407Y-66596818D01*
X57079403Y-66596825D01*
X57019064Y-66742499D01*
X57019062Y-66742506D01*
X56988300Y-66897158D01*
X56988300Y-82698886D01*
X56968593Y-82785229D01*
X56930015Y-82839600D01*
X56796831Y-82972784D01*
X56676512Y-83138390D01*
X56676506Y-83138400D01*
X56583585Y-83320768D01*
X56583577Y-83320787D01*
X56520323Y-83515463D01*
X56520322Y-83515470D01*
X56516342Y-83540598D01*
X56488300Y-83717648D01*
X50089700Y-83717648D01*
X50089700Y-83717448D01*
X50057677Y-83515266D01*
X49994420Y-83320581D01*
X49994416Y-83320575D01*
X49994414Y-83320568D01*
X49901493Y-83138200D01*
X49901487Y-83138190D01*
X49832546Y-83043300D01*
X49781166Y-82972581D01*
X49647985Y-82839400D01*
X49600867Y-82764411D01*
X49589700Y-82698686D01*
X49589700Y-63689606D01*
X49609407Y-63603263D01*
X49647986Y-63548892D01*
X50870092Y-62326786D01*
X50945080Y-62279667D01*
X51010806Y-62268500D01*
X80647641Y-62268500D01*
X80647642Y-62268500D01*
X80802297Y-62237737D01*
X80947979Y-62177394D01*
X81079089Y-62089789D01*
X83048589Y-60120289D01*
X83136194Y-59989179D01*
X83196537Y-59843497D01*
X83227300Y-59688842D01*
X83227300Y-59531157D01*
X83227300Y-56031913D01*
X83247007Y-55945570D01*
X83285586Y-55891199D01*
X83345572Y-55831213D01*
X83418766Y-55758019D01*
X83539087Y-55592410D01*
X83554369Y-55562419D01*
X83632014Y-55410031D01*
X83632014Y-55410029D01*
X83632020Y-55410019D01*
X83695277Y-55215334D01*
X83727300Y-55013152D01*
X83727300Y-54308448D01*
X83695277Y-54106266D01*
X83632020Y-53911581D01*
X83632016Y-53911575D01*
X83632014Y-53911568D01*
X83539093Y-53729200D01*
X83539087Y-53729190D01*
X83526362Y-53711676D01*
X83418766Y-53563581D01*
X83274019Y-53418834D01*
X83178331Y-53349313D01*
X83108409Y-53298512D01*
X83108399Y-53298506D01*
X82926031Y-53205585D01*
X82926012Y-53205577D01*
X82731336Y-53142323D01*
X82731329Y-53142322D01*
X82616535Y-53124140D01*
X82529152Y-53110300D01*
X82324448Y-53110300D01*
X82306044Y-53113215D01*
X82122270Y-53142322D01*
X82122263Y-53142323D01*
X81927587Y-53205577D01*
X81927568Y-53205585D01*
X81745200Y-53298506D01*
X81745190Y-53298512D01*
X81579583Y-53418832D01*
X81579578Y-53418836D01*
X81524544Y-53473870D01*
X81449555Y-53520988D01*
X81361548Y-53530904D01*
X81277955Y-53501652D01*
X81215332Y-53439028D01*
X81186155Y-53356078D01*
X81184385Y-53340809D01*
X81139006Y-53238035D01*
X81059565Y-53158594D01*
X81059562Y-53158592D01*
X81059561Y-53158592D01*
X80956791Y-53113215D01*
X80931666Y-53110300D01*
X78841933Y-53110300D01*
X78816810Y-53113214D01*
X78714038Y-53158592D01*
X78714033Y-53158595D01*
X78634595Y-53238033D01*
X78634592Y-53238038D01*
X78589215Y-53340807D01*
X78589215Y-53340809D01*
X78586300Y-53365930D01*
X78586300Y-55955666D01*
X78589214Y-55980789D01*
X78630192Y-56073597D01*
X78634594Y-56083565D01*
X78714035Y-56163006D01*
X78816809Y-56208385D01*
X78841935Y-56211300D01*
X80931664Y-56211299D01*
X80931666Y-56211299D01*
X80945762Y-56209664D01*
X80956791Y-56208385D01*
X81059565Y-56163006D01*
X81139006Y-56083565D01*
X81184385Y-55980791D01*
X81186158Y-55965509D01*
X81200801Y-55924102D01*
X81215334Y-55882571D01*
X81215573Y-55882331D01*
X81215686Y-55882013D01*
X81246874Y-55851030D01*
X81277958Y-55819947D01*
X81278277Y-55819835D01*
X81278517Y-55819597D01*
X81320072Y-55805210D01*
X81361551Y-55790696D01*
X81361886Y-55790733D01*
X81362207Y-55790623D01*
X81405895Y-55795692D01*
X81449558Y-55800612D01*
X81449844Y-55800792D01*
X81450180Y-55800831D01*
X81524546Y-55847731D01*
X81568014Y-55891199D01*
X81615133Y-55966187D01*
X81626300Y-56031913D01*
X81626300Y-59195994D01*
X81606593Y-59282337D01*
X81568014Y-59336708D01*
X80295508Y-60609214D01*
X80220520Y-60656333D01*
X80154794Y-60667500D01*
X50675642Y-60667500D01*
X50517957Y-60667500D01*
X50466871Y-60677661D01*
X50363305Y-60698262D01*
X50363298Y-60698264D01*
X50320632Y-60715936D01*
X50320633Y-60715937D01*
X50217622Y-60758605D01*
X50217618Y-60758607D01*
X50086515Y-60846208D01*
X50086507Y-60846214D01*
X48167414Y-62765307D01*
X48167408Y-62765315D01*
X48079807Y-62896418D01*
X48079803Y-62896425D01*
X48019464Y-63042099D01*
X48019462Y-63042106D01*
X47988700Y-63196758D01*
X47988700Y-82698686D01*
X47968993Y-82785029D01*
X47930415Y-82839400D01*
X47797231Y-82972584D01*
X47676912Y-83138190D01*
X47676906Y-83138200D01*
X47583985Y-83320568D01*
X47583977Y-83320587D01*
X47520723Y-83515263D01*
X47520722Y-83515270D01*
X47511173Y-83575559D01*
X47488700Y-83717448D01*
X45089700Y-83717448D01*
X45057677Y-83515266D01*
X44994420Y-83320581D01*
X44994416Y-83320575D01*
X44994414Y-83320568D01*
X44901493Y-83138200D01*
X44901487Y-83138190D01*
X44832546Y-83043300D01*
X44781166Y-82972581D01*
X44647985Y-82839400D01*
X44600867Y-82764411D01*
X44589700Y-82698686D01*
X44589700Y-61120405D01*
X44609407Y-61034062D01*
X44647986Y-60979691D01*
X45739291Y-59888386D01*
X45814279Y-59841267D01*
X45880005Y-59830100D01*
X60632441Y-59830100D01*
X60632442Y-59830100D01*
X60787097Y-59799337D01*
X60932779Y-59738994D01*
X61063889Y-59651389D01*
X62576188Y-58139090D01*
X62579248Y-58134511D01*
X62663794Y-58007979D01*
X62724137Y-57862297D01*
X62754900Y-57707642D01*
X62754900Y-55981113D01*
X62774607Y-55894770D01*
X62813186Y-55840399D01*
X62862962Y-55790623D01*
X62946366Y-55707219D01*
X63066687Y-55541610D01*
X63083907Y-55507815D01*
X63159614Y-55359231D01*
X63159614Y-55359229D01*
X63159620Y-55359219D01*
X63222877Y-55164534D01*
X63254900Y-54962352D01*
X63254900Y-54257648D01*
X63222877Y-54055466D01*
X63159620Y-53860781D01*
X63159616Y-53860775D01*
X63159614Y-53860768D01*
X63066693Y-53678400D01*
X63066687Y-53678390D01*
X63049044Y-53654106D01*
X62946366Y-53512781D01*
X62801619Y-53368034D01*
X62705931Y-53298513D01*
X62636009Y-53247712D01*
X62635999Y-53247706D01*
X62453631Y-53154785D01*
X62453612Y-53154777D01*
X62258936Y-53091523D01*
X62258929Y-53091522D01*
X62144135Y-53073340D01*
X62056752Y-53059500D01*
X61852048Y-53059500D01*
X61833644Y-53062415D01*
X61649870Y-53091522D01*
X61649863Y-53091523D01*
X61455187Y-53154777D01*
X61455168Y-53154785D01*
X61272800Y-53247706D01*
X61272790Y-53247712D01*
X61107183Y-53368032D01*
X61107178Y-53368036D01*
X61052144Y-53423070D01*
X60977155Y-53470188D01*
X60889148Y-53480104D01*
X60805555Y-53450852D01*
X60742932Y-53388228D01*
X60713755Y-53305278D01*
X60711985Y-53290009D01*
X60666606Y-53187235D01*
X60587165Y-53107794D01*
X60587162Y-53107792D01*
X60587161Y-53107792D01*
X60484391Y-53062415D01*
X60459266Y-53059500D01*
X58369533Y-53059500D01*
X58344410Y-53062414D01*
X58241638Y-53107792D01*
X58241633Y-53107795D01*
X58162195Y-53187233D01*
X58162192Y-53187238D01*
X58116815Y-53290007D01*
X58116815Y-53290009D01*
X58113900Y-53315130D01*
X58113900Y-55904866D01*
X58116814Y-55929989D01*
X58161675Y-56031591D01*
X58162194Y-56032765D01*
X58241635Y-56112206D01*
X58344409Y-56157585D01*
X58369535Y-56160500D01*
X60459264Y-56160499D01*
X60459266Y-56160499D01*
X60473362Y-56158864D01*
X60484391Y-56157585D01*
X60587165Y-56112206D01*
X60666606Y-56032765D01*
X60711985Y-55929991D01*
X60713758Y-55914709D01*
X60728401Y-55873302D01*
X60742934Y-55831771D01*
X60743173Y-55831531D01*
X60743286Y-55831213D01*
X60774474Y-55800230D01*
X60805558Y-55769147D01*
X60805877Y-55769035D01*
X60806117Y-55768797D01*
X60847672Y-55754410D01*
X60889151Y-55739896D01*
X60889486Y-55739933D01*
X60889807Y-55739823D01*
X60933495Y-55744892D01*
X60977158Y-55749812D01*
X60977444Y-55749992D01*
X60977780Y-55750031D01*
X61052146Y-55796931D01*
X61095614Y-55840399D01*
X61142733Y-55915387D01*
X61153900Y-55981113D01*
X61153900Y-57214794D01*
X61134193Y-57301137D01*
X61095614Y-57355508D01*
X60280308Y-58170814D01*
X60205320Y-58217933D01*
X60139594Y-58229100D01*
X45544842Y-58229100D01*
X45387157Y-58229100D01*
X45279126Y-58250589D01*
X45279125Y-58250589D01*
X45232507Y-58259861D01*
X45232501Y-58259863D01*
X45086825Y-58320203D01*
X45086818Y-58320207D01*
X44955715Y-58407808D01*
X44955707Y-58407814D01*
X44844209Y-58519313D01*
X43250921Y-60112600D01*
X43167414Y-60196106D01*
X43167408Y-60196115D01*
X43079807Y-60327218D01*
X43079803Y-60327225D01*
X43019464Y-60472899D01*
X43019462Y-60472906D01*
X42988700Y-60627558D01*
X42988700Y-82698686D01*
X42968993Y-82785029D01*
X42930415Y-82839400D01*
X42797231Y-82972584D01*
X42676912Y-83138190D01*
X42676906Y-83138200D01*
X42583985Y-83320568D01*
X42583977Y-83320587D01*
X42520723Y-83515263D01*
X42520722Y-83515270D01*
X42511173Y-83575559D01*
X42488700Y-83717448D01*
X40078353Y-83717448D01*
X35370786Y-79009881D01*
X35323667Y-78934893D01*
X35312500Y-78869167D01*
X35312500Y-70665170D01*
X38731900Y-70665170D01*
X38731900Y-70836029D01*
X38758626Y-71004780D01*
X38758627Y-71004786D01*
X38758628Y-71004789D01*
X38811427Y-71167288D01*
X38885217Y-71312107D01*
X38888999Y-71319529D01*
X38989429Y-71457759D01*
X39110240Y-71578570D01*
X39110243Y-71578572D01*
X39110244Y-71578573D01*
X39248474Y-71679003D01*
X39400712Y-71756573D01*
X39563211Y-71809372D01*
X39731969Y-71836100D01*
X39731970Y-71836100D01*
X39902830Y-71836100D01*
X39902831Y-71836100D01*
X40071589Y-71809372D01*
X40234088Y-71756573D01*
X40386326Y-71679003D01*
X40524556Y-71578573D01*
X40645373Y-71457756D01*
X40745803Y-71319526D01*
X40823373Y-71167288D01*
X40876172Y-71004789D01*
X40902900Y-70836031D01*
X40902900Y-70665169D01*
X40876172Y-70496411D01*
X40823373Y-70333912D01*
X40745803Y-70181674D01*
X40645373Y-70043444D01*
X40645372Y-70043443D01*
X40645370Y-70043440D01*
X40524559Y-69922629D01*
X40386329Y-69822199D01*
X40386328Y-69822198D01*
X40386326Y-69822197D01*
X40234088Y-69744627D01*
X40234085Y-69744626D01*
X40234083Y-69744625D01*
X40071596Y-69691830D01*
X40071593Y-69691829D01*
X40071589Y-69691828D01*
X40071582Y-69691826D01*
X40071578Y-69691826D01*
X40015016Y-69682867D01*
X39902831Y-69665100D01*
X39731969Y-69665100D01*
X39631638Y-69680990D01*
X39563219Y-69691826D01*
X39563203Y-69691830D01*
X39400716Y-69744625D01*
X39248470Y-69822199D01*
X39110240Y-69922629D01*
X38989429Y-70043440D01*
X38888999Y-70181670D01*
X38811425Y-70333916D01*
X38758630Y-70496403D01*
X38758626Y-70496419D01*
X38731900Y-70665170D01*
X35312500Y-70665170D01*
X35312500Y-64840730D01*
X38731900Y-64840730D01*
X38731900Y-66500466D01*
X38734814Y-66525589D01*
X38766264Y-66596818D01*
X38780194Y-66628365D01*
X38859635Y-66707806D01*
X38962409Y-66753185D01*
X38987535Y-66756100D01*
X39533208Y-66756099D01*
X39619549Y-66775806D01*
X39688790Y-66831024D01*
X39727217Y-66910817D01*
X39727217Y-66999380D01*
X39688791Y-67079173D01*
X39619549Y-67134392D01*
X39570734Y-67149651D01*
X39570819Y-67150002D01*
X39565615Y-67151251D01*
X39564353Y-67151646D01*
X39563232Y-67151823D01*
X39563203Y-67151830D01*
X39400716Y-67204625D01*
X39248470Y-67282199D01*
X39110240Y-67382629D01*
X38989429Y-67503440D01*
X38888999Y-67641670D01*
X38811425Y-67793916D01*
X38758630Y-67956403D01*
X38758626Y-67956419D01*
X38731900Y-68125170D01*
X38731900Y-68296029D01*
X38758626Y-68464780D01*
X38758630Y-68464796D01*
X38810096Y-68623194D01*
X38811427Y-68627288D01*
X38888997Y-68779526D01*
X38888999Y-68779529D01*
X38989429Y-68917759D01*
X39110240Y-69038570D01*
X39110243Y-69038572D01*
X39110244Y-69038573D01*
X39248474Y-69139003D01*
X39400712Y-69216573D01*
X39563211Y-69269372D01*
X39731969Y-69296100D01*
X39902831Y-69296100D01*
X40071589Y-69269372D01*
X40234088Y-69216573D01*
X40386326Y-69139003D01*
X40524556Y-69038573D01*
X40645373Y-68917756D01*
X40745803Y-68779526D01*
X40823373Y-68627288D01*
X40876172Y-68464789D01*
X40902900Y-68296031D01*
X40902900Y-68125169D01*
X40876172Y-67956411D01*
X40823373Y-67793912D01*
X40745803Y-67641674D01*
X40645373Y-67503444D01*
X40645372Y-67503443D01*
X40645370Y-67503440D01*
X40524559Y-67382629D01*
X40386329Y-67282199D01*
X40386328Y-67282198D01*
X40386326Y-67282197D01*
X40234088Y-67204627D01*
X40234085Y-67204626D01*
X40234083Y-67204625D01*
X40071596Y-67151830D01*
X40071592Y-67151829D01*
X40071589Y-67151828D01*
X40071586Y-67151827D01*
X40071584Y-67151827D01*
X40071110Y-67151752D01*
X40070455Y-67151648D01*
X40069885Y-67151419D01*
X40063981Y-67150002D01*
X40064189Y-67149134D01*
X39988260Y-67118676D01*
X39928510Y-67053304D01*
X39903041Y-66968482D01*
X39916896Y-66881010D01*
X39967333Y-66808211D01*
X40044361Y-66764506D01*
X40101587Y-66756099D01*
X40647264Y-66756099D01*
X40647267Y-66756099D01*
X40662340Y-66754350D01*
X40672391Y-66753185D01*
X40775165Y-66707806D01*
X40854606Y-66628365D01*
X40899985Y-66525591D01*
X40902900Y-66500465D01*
X40902899Y-64840736D01*
X40902898Y-64840730D01*
X40899985Y-64815610D01*
X40867965Y-64743092D01*
X40854606Y-64712835D01*
X40775165Y-64633394D01*
X40775162Y-64633392D01*
X40775161Y-64633392D01*
X40672391Y-64588015D01*
X40647266Y-64585100D01*
X38987533Y-64585100D01*
X38962410Y-64588014D01*
X38859638Y-64633392D01*
X38859633Y-64633395D01*
X38780195Y-64712833D01*
X38780192Y-64712838D01*
X38734815Y-64815607D01*
X38734815Y-64815609D01*
X38731900Y-64840730D01*
X35312500Y-64840730D01*
X35312500Y-61584970D01*
X38732100Y-61584970D01*
X38732100Y-61755829D01*
X38758826Y-61924580D01*
X38758830Y-61924596D01*
X38811015Y-62085206D01*
X38811627Y-62087088D01*
X38889197Y-62239326D01*
X38889199Y-62239329D01*
X38989629Y-62377559D01*
X39110440Y-62498370D01*
X39110443Y-62498372D01*
X39110444Y-62498373D01*
X39248674Y-62598803D01*
X39400912Y-62676373D01*
X39563411Y-62729172D01*
X39732169Y-62755900D01*
X39732170Y-62755900D01*
X39903030Y-62755900D01*
X39903031Y-62755900D01*
X40071789Y-62729172D01*
X40234288Y-62676373D01*
X40386526Y-62598803D01*
X40524756Y-62498373D01*
X40645573Y-62377556D01*
X40746003Y-62239326D01*
X40823573Y-62087088D01*
X40876372Y-61924589D01*
X40903100Y-61755831D01*
X40903100Y-61584969D01*
X40876372Y-61416211D01*
X40823573Y-61253712D01*
X40746003Y-61101474D01*
X40645573Y-60963244D01*
X40645572Y-60963243D01*
X40645570Y-60963240D01*
X40524759Y-60842429D01*
X40386529Y-60741999D01*
X40386528Y-60741998D01*
X40386526Y-60741997D01*
X40234288Y-60664427D01*
X40234285Y-60664426D01*
X40234283Y-60664425D01*
X40071796Y-60611630D01*
X40071793Y-60611629D01*
X40071789Y-60611628D01*
X40071782Y-60611626D01*
X40071778Y-60611626D01*
X40015216Y-60602667D01*
X39903031Y-60584900D01*
X39732169Y-60584900D01*
X39631838Y-60600790D01*
X39563419Y-60611626D01*
X39563403Y-60611630D01*
X39400916Y-60664425D01*
X39248670Y-60741999D01*
X39110440Y-60842429D01*
X38989629Y-60963240D01*
X38889199Y-61101470D01*
X38811625Y-61253716D01*
X38758830Y-61416203D01*
X38758826Y-61416219D01*
X38732100Y-61584970D01*
X35312500Y-61584970D01*
X35312500Y-55760530D01*
X38732100Y-55760530D01*
X38732100Y-57420266D01*
X38735014Y-57445389D01*
X38735015Y-57445391D01*
X38780394Y-57548165D01*
X38859835Y-57627606D01*
X38962609Y-57672985D01*
X38987735Y-57675900D01*
X39533408Y-57675899D01*
X39619749Y-57695606D01*
X39688990Y-57750824D01*
X39727417Y-57830617D01*
X39727417Y-57919180D01*
X39688991Y-57998973D01*
X39619749Y-58054192D01*
X39570934Y-58069451D01*
X39571019Y-58069802D01*
X39565815Y-58071051D01*
X39564553Y-58071446D01*
X39563432Y-58071623D01*
X39563403Y-58071630D01*
X39400916Y-58124425D01*
X39248670Y-58201999D01*
X39110440Y-58302429D01*
X38989629Y-58423240D01*
X38889199Y-58561470D01*
X38811625Y-58713716D01*
X38758830Y-58876203D01*
X38758826Y-58876219D01*
X38732100Y-59044970D01*
X38732100Y-59215829D01*
X38758826Y-59384580D01*
X38758830Y-59384596D01*
X38806450Y-59531157D01*
X38811627Y-59547088D01*
X38889197Y-59699326D01*
X38889199Y-59699329D01*
X38989629Y-59837559D01*
X39110440Y-59958370D01*
X39110443Y-59958372D01*
X39110444Y-59958373D01*
X39248674Y-60058803D01*
X39400912Y-60136373D01*
X39563411Y-60189172D01*
X39732169Y-60215900D01*
X39903031Y-60215900D01*
X40071789Y-60189172D01*
X40234288Y-60136373D01*
X40386526Y-60058803D01*
X40524756Y-59958373D01*
X40645573Y-59837556D01*
X40746003Y-59699326D01*
X40823573Y-59547088D01*
X40876372Y-59384589D01*
X40903100Y-59215831D01*
X40903100Y-59044969D01*
X40876372Y-58876211D01*
X40823573Y-58713712D01*
X40746003Y-58561474D01*
X40645573Y-58423244D01*
X40645572Y-58423243D01*
X40645570Y-58423240D01*
X40524759Y-58302429D01*
X40386529Y-58201999D01*
X40386528Y-58201998D01*
X40386526Y-58201997D01*
X40234288Y-58124427D01*
X40234285Y-58124426D01*
X40234283Y-58124425D01*
X40071796Y-58071630D01*
X40071792Y-58071629D01*
X40071789Y-58071628D01*
X40071786Y-58071627D01*
X40071784Y-58071627D01*
X40071310Y-58071552D01*
X40070655Y-58071448D01*
X40070085Y-58071219D01*
X40064181Y-58069802D01*
X40064389Y-58068934D01*
X39988460Y-58038476D01*
X39928710Y-57973104D01*
X39903241Y-57888282D01*
X39917096Y-57800810D01*
X39967533Y-57728011D01*
X40044561Y-57684306D01*
X40101787Y-57675899D01*
X40647464Y-57675899D01*
X40647467Y-57675899D01*
X40662540Y-57674150D01*
X40672591Y-57672985D01*
X40775365Y-57627606D01*
X40854806Y-57548165D01*
X40900185Y-57445391D01*
X40903100Y-57420265D01*
X40903099Y-55760536D01*
X40903098Y-55760530D01*
X40900185Y-55735410D01*
X40887736Y-55707216D01*
X40854806Y-55632635D01*
X40775365Y-55553194D01*
X40775362Y-55553192D01*
X40775361Y-55553192D01*
X40672591Y-55507815D01*
X40647466Y-55504900D01*
X38987733Y-55504900D01*
X38962610Y-55507814D01*
X38859838Y-55553192D01*
X38859833Y-55553195D01*
X38780395Y-55632633D01*
X38780392Y-55632638D01*
X38735015Y-55735407D01*
X38735015Y-55735409D01*
X38732100Y-55760530D01*
X35312500Y-55760530D01*
X35312500Y-52504970D01*
X38731900Y-52504970D01*
X38731900Y-52675829D01*
X38758626Y-52844580D01*
X38758627Y-52844586D01*
X38758628Y-52844589D01*
X38811427Y-53007088D01*
X38888623Y-53158592D01*
X38888999Y-53159329D01*
X38989429Y-53297559D01*
X39110240Y-53418370D01*
X39110243Y-53418372D01*
X39110244Y-53418373D01*
X39248474Y-53518803D01*
X39400712Y-53596373D01*
X39563211Y-53649172D01*
X39731969Y-53675900D01*
X39731970Y-53675900D01*
X39902830Y-53675900D01*
X39902831Y-53675900D01*
X40071589Y-53649172D01*
X40234088Y-53596373D01*
X40386326Y-53518803D01*
X40524556Y-53418373D01*
X40645373Y-53297556D01*
X40745803Y-53159326D01*
X40823373Y-53007088D01*
X40876172Y-52844589D01*
X40902900Y-52675831D01*
X40902900Y-52504969D01*
X40876172Y-52336211D01*
X40823373Y-52173712D01*
X40745803Y-52021474D01*
X40645373Y-51883244D01*
X40645372Y-51883243D01*
X40645370Y-51883240D01*
X40524559Y-51762429D01*
X40386329Y-51661999D01*
X40386328Y-51661998D01*
X40386326Y-51661997D01*
X40234088Y-51584427D01*
X40234085Y-51584426D01*
X40234083Y-51584425D01*
X40071596Y-51531630D01*
X40071593Y-51531629D01*
X40071589Y-51531628D01*
X40071582Y-51531626D01*
X40071578Y-51531626D01*
X40015016Y-51522667D01*
X39902831Y-51504900D01*
X39731969Y-51504900D01*
X39631638Y-51520790D01*
X39563219Y-51531626D01*
X39563203Y-51531630D01*
X39400716Y-51584425D01*
X39248470Y-51661999D01*
X39110240Y-51762429D01*
X38989429Y-51883240D01*
X38888999Y-52021470D01*
X38811425Y-52173716D01*
X38758630Y-52336203D01*
X38758626Y-52336219D01*
X38731900Y-52504970D01*
X35312500Y-52504970D01*
X35312500Y-47267233D01*
X35332207Y-47180890D01*
X35370786Y-47126519D01*
X35816775Y-46680530D01*
X38731900Y-46680530D01*
X38731900Y-48340266D01*
X38734814Y-48365389D01*
X38776880Y-48460661D01*
X38780194Y-48468165D01*
X38859635Y-48547606D01*
X38962409Y-48592985D01*
X38987535Y-48595900D01*
X39533208Y-48595899D01*
X39619549Y-48615606D01*
X39688790Y-48670824D01*
X39727217Y-48750617D01*
X39727217Y-48839180D01*
X39688791Y-48918973D01*
X39619549Y-48974192D01*
X39570734Y-48989451D01*
X39570819Y-48989802D01*
X39565615Y-48991051D01*
X39564353Y-48991446D01*
X39563232Y-48991623D01*
X39563203Y-48991630D01*
X39400716Y-49044425D01*
X39248470Y-49121999D01*
X39110240Y-49222429D01*
X38989429Y-49343240D01*
X38888999Y-49481470D01*
X38888997Y-49481474D01*
X38816131Y-49624481D01*
X38811425Y-49633716D01*
X38758630Y-49796203D01*
X38758626Y-49796219D01*
X38731900Y-49964970D01*
X38731900Y-50135829D01*
X38758626Y-50304580D01*
X38758630Y-50304596D01*
X38810578Y-50464477D01*
X38811427Y-50467088D01*
X38888997Y-50619326D01*
X38888999Y-50619329D01*
X38989429Y-50757559D01*
X39110240Y-50878370D01*
X39110243Y-50878372D01*
X39110244Y-50878373D01*
X39248474Y-50978803D01*
X39400712Y-51056373D01*
X39563211Y-51109172D01*
X39731969Y-51135900D01*
X39902831Y-51135900D01*
X40071589Y-51109172D01*
X40234088Y-51056373D01*
X40386326Y-50978803D01*
X40524556Y-50878373D01*
X40645373Y-50757556D01*
X40745803Y-50619326D01*
X40823373Y-50467088D01*
X40876172Y-50304589D01*
X40902900Y-50135831D01*
X40902900Y-49964969D01*
X40876172Y-49796211D01*
X40823373Y-49633712D01*
X40745803Y-49481474D01*
X40712415Y-49435519D01*
X60703100Y-49435519D01*
X60703100Y-49624480D01*
X60732658Y-49811110D01*
X60732661Y-49811122D01*
X60791051Y-49990828D01*
X60791052Y-49990831D01*
X60873291Y-50152234D01*
X60876840Y-50159199D01*
X60987910Y-50312073D01*
X60987914Y-50312077D01*
X60987915Y-50312079D01*
X61121520Y-50445684D01*
X61121522Y-50445685D01*
X61121527Y-50445690D01*
X61274401Y-50556760D01*
X61442768Y-50642547D01*
X61622482Y-50700940D01*
X61809119Y-50730500D01*
X61998081Y-50730500D01*
X62184718Y-50700940D01*
X62364432Y-50642547D01*
X62532799Y-50556760D01*
X62685673Y-50445690D01*
X62819290Y-50312073D01*
X62930360Y-50159199D01*
X63016147Y-49990832D01*
X63074540Y-49811118D01*
X63104100Y-49624481D01*
X63104100Y-49435519D01*
X63074540Y-49248882D01*
X63016147Y-49069168D01*
X62930360Y-48900801D01*
X62819290Y-48747927D01*
X62819285Y-48747922D01*
X62819284Y-48747920D01*
X62685679Y-48614315D01*
X62685677Y-48614314D01*
X62685673Y-48614310D01*
X62532799Y-48503240D01*
X62532798Y-48503239D01*
X62532796Y-48503238D01*
X62364431Y-48417452D01*
X62364428Y-48417451D01*
X62184722Y-48359061D01*
X62184710Y-48359058D01*
X61998081Y-48329500D01*
X61809119Y-48329500D01*
X61622489Y-48359058D01*
X61622477Y-48359061D01*
X61442771Y-48417451D01*
X61442768Y-48417452D01*
X61274403Y-48503238D01*
X61213335Y-48547607D01*
X61121527Y-48614310D01*
X61121525Y-48614311D01*
X61121522Y-48614314D01*
X61121520Y-48614315D01*
X60987915Y-48747920D01*
X60987914Y-48747922D01*
X60987911Y-48747925D01*
X60987910Y-48747927D01*
X60946957Y-48804294D01*
X60876838Y-48900803D01*
X60791052Y-49069168D01*
X60791051Y-49069171D01*
X60732661Y-49248877D01*
X60732658Y-49248889D01*
X60703100Y-49435519D01*
X40712415Y-49435519D01*
X40645373Y-49343244D01*
X40645372Y-49343243D01*
X40645370Y-49343240D01*
X40524559Y-49222429D01*
X40386329Y-49121999D01*
X40386328Y-49121998D01*
X40386326Y-49121997D01*
X40234088Y-49044427D01*
X40234085Y-49044426D01*
X40234083Y-49044425D01*
X40071596Y-48991630D01*
X40071592Y-48991629D01*
X40071589Y-48991628D01*
X40071586Y-48991627D01*
X40071584Y-48991627D01*
X40071110Y-48991552D01*
X40070455Y-48991448D01*
X40069885Y-48991219D01*
X40063981Y-48989802D01*
X40064189Y-48988934D01*
X39988260Y-48958476D01*
X39928510Y-48893104D01*
X39903041Y-48808282D01*
X39916896Y-48720810D01*
X39967333Y-48648011D01*
X40044361Y-48604306D01*
X40101587Y-48595899D01*
X40647264Y-48595899D01*
X40647267Y-48595899D01*
X40662340Y-48594150D01*
X40672391Y-48592985D01*
X40775165Y-48547606D01*
X40854606Y-48468165D01*
X40899985Y-48365391D01*
X40902900Y-48340265D01*
X40902899Y-46680536D01*
X40902898Y-46680530D01*
X40899985Y-46655410D01*
X40854607Y-46552638D01*
X40854606Y-46552635D01*
X40775165Y-46473194D01*
X40775162Y-46473192D01*
X40775161Y-46473192D01*
X40672391Y-46427815D01*
X40647266Y-46424900D01*
X38987533Y-46424900D01*
X38962410Y-46427814D01*
X38859638Y-46473192D01*
X38859633Y-46473195D01*
X38780195Y-46552633D01*
X38780192Y-46552638D01*
X38734815Y-46655407D01*
X38734815Y-46655409D01*
X38731900Y-46680530D01*
X35816775Y-46680530D01*
X37779319Y-44717986D01*
X37854307Y-44670867D01*
X37920033Y-44659700D01*
X61690367Y-44659700D01*
X61776710Y-44679407D01*
X61831081Y-44717986D01*
X68734556Y-51621461D01*
X68980477Y-51817576D01*
X69246811Y-51984925D01*
X69424720Y-52070602D01*
X69530208Y-52121403D01*
X69575714Y-52137326D01*
X69827100Y-52225289D01*
X70133760Y-52295282D01*
X70446327Y-52330500D01*
X70446328Y-52330500D01*
X70760871Y-52330500D01*
X70760872Y-52330500D01*
X71073440Y-52295282D01*
X71380100Y-52225289D01*
X71676993Y-52121402D01*
X71960388Y-51984925D01*
X72226722Y-51817576D01*
X72472643Y-51621461D01*
X72695061Y-51399043D01*
X72891176Y-51153122D01*
X73058525Y-50886788D01*
X73195002Y-50603393D01*
X73298889Y-50306500D01*
X73368882Y-49999840D01*
X73404100Y-49687272D01*
X73404100Y-49537119D01*
X81295900Y-49537119D01*
X81295900Y-49726080D01*
X81325458Y-49912710D01*
X81325461Y-49912722D01*
X81383851Y-50092428D01*
X81383852Y-50092431D01*
X81467044Y-50255705D01*
X81469640Y-50260799D01*
X81580710Y-50413673D01*
X81580714Y-50413677D01*
X81580715Y-50413679D01*
X81714320Y-50547284D01*
X81714322Y-50547285D01*
X81714327Y-50547290D01*
X81867201Y-50658360D01*
X82035568Y-50744147D01*
X82215282Y-50802540D01*
X82401919Y-50832100D01*
X82590881Y-50832100D01*
X82777518Y-50802540D01*
X82957232Y-50744147D01*
X83125599Y-50658360D01*
X83278473Y-50547290D01*
X83412090Y-50413673D01*
X83523160Y-50260799D01*
X83608947Y-50092432D01*
X83667340Y-49912718D01*
X83696900Y-49726081D01*
X83696900Y-49537119D01*
X83667340Y-49350482D01*
X83608947Y-49170768D01*
X83523160Y-49002401D01*
X83412090Y-48849527D01*
X83412085Y-48849522D01*
X83412084Y-48849520D01*
X83278479Y-48715915D01*
X83278477Y-48715914D01*
X83278473Y-48715910D01*
X83125599Y-48604840D01*
X83125598Y-48604839D01*
X83125596Y-48604838D01*
X82957231Y-48519052D01*
X82957228Y-48519051D01*
X82777522Y-48460661D01*
X82777510Y-48460658D01*
X82590881Y-48431100D01*
X82401919Y-48431100D01*
X82215289Y-48460658D01*
X82215277Y-48460661D01*
X82035571Y-48519051D01*
X82035568Y-48519052D01*
X81867203Y-48604838D01*
X81797284Y-48655638D01*
X81714327Y-48715910D01*
X81714325Y-48715911D01*
X81714322Y-48715914D01*
X81714320Y-48715915D01*
X81580715Y-48849520D01*
X81580714Y-48849522D01*
X81580711Y-48849525D01*
X81580710Y-48849527D01*
X81543457Y-48900801D01*
X81469638Y-49002403D01*
X81383852Y-49170768D01*
X81383851Y-49170771D01*
X81325461Y-49350477D01*
X81325458Y-49350489D01*
X81295900Y-49537119D01*
X73404100Y-49537119D01*
X73404100Y-49372727D01*
X73368882Y-49060160D01*
X73298889Y-48753500D01*
X73296937Y-48747922D01*
X73195003Y-48456608D01*
X73158255Y-48380300D01*
X73058525Y-48173211D01*
X72891176Y-47906877D01*
X72695061Y-47660956D01*
X70033519Y-44999414D01*
X69986400Y-44924426D01*
X69976484Y-44836419D01*
X70005735Y-44752826D01*
X70068359Y-44690202D01*
X70151952Y-44660951D01*
X70174233Y-44659700D01*
X82181567Y-44659700D01*
X82267910Y-44679407D01*
X82322281Y-44717986D01*
X89327356Y-51723061D01*
X89573277Y-51919176D01*
X89839611Y-52086525D01*
X90022269Y-52174489D01*
X90123008Y-52223003D01*
X90268179Y-52273800D01*
X90419900Y-52326889D01*
X90726560Y-52396882D01*
X91039127Y-52432100D01*
X91039128Y-52432100D01*
X91353671Y-52432100D01*
X91353672Y-52432100D01*
X91666240Y-52396882D01*
X91972900Y-52326889D01*
X92269793Y-52223002D01*
X92553188Y-52086525D01*
X92819522Y-51919176D01*
X93065443Y-51723061D01*
X93287861Y-51500643D01*
X93483976Y-51254722D01*
X93651325Y-50988388D01*
X93787802Y-50704993D01*
X93891689Y-50408100D01*
X93961682Y-50101440D01*
X93996900Y-49788872D01*
X93996900Y-49474327D01*
X93986804Y-49384719D01*
X104086300Y-49384719D01*
X104086300Y-49573680D01*
X104115858Y-49760310D01*
X104115861Y-49760322D01*
X104174251Y-49940028D01*
X104174252Y-49940031D01*
X104251904Y-50092432D01*
X104260040Y-50108399D01*
X104371110Y-50261273D01*
X104371114Y-50261277D01*
X104371115Y-50261279D01*
X104504720Y-50394884D01*
X104504722Y-50394885D01*
X104504727Y-50394890D01*
X104657601Y-50505960D01*
X104825968Y-50591747D01*
X105005682Y-50650140D01*
X105192319Y-50679700D01*
X105381281Y-50679700D01*
X105567918Y-50650140D01*
X105747632Y-50591747D01*
X105915999Y-50505960D01*
X106068873Y-50394890D01*
X106202490Y-50261273D01*
X106313560Y-50108399D01*
X106399347Y-49940032D01*
X106457740Y-49760318D01*
X106487300Y-49573681D01*
X106487300Y-49384719D01*
X106457740Y-49198082D01*
X106399347Y-49018368D01*
X106313560Y-48850001D01*
X106202490Y-48697127D01*
X106202485Y-48697122D01*
X106202484Y-48697120D01*
X106068879Y-48563515D01*
X106068877Y-48563514D01*
X106068873Y-48563510D01*
X105915999Y-48452440D01*
X105915998Y-48452439D01*
X105915996Y-48452438D01*
X105747631Y-48366652D01*
X105747628Y-48366651D01*
X105567922Y-48308261D01*
X105567910Y-48308258D01*
X105381281Y-48278700D01*
X105192319Y-48278700D01*
X105005689Y-48308258D01*
X105005677Y-48308261D01*
X104825971Y-48366651D01*
X104825968Y-48366652D01*
X104657603Y-48452438D01*
X104635836Y-48468253D01*
X104504727Y-48563510D01*
X104504725Y-48563511D01*
X104504722Y-48563514D01*
X104504720Y-48563515D01*
X104371115Y-48697120D01*
X104371114Y-48697122D01*
X104371111Y-48697125D01*
X104371110Y-48697127D01*
X104332247Y-48750617D01*
X104260038Y-48850003D01*
X104174252Y-49018368D01*
X104174251Y-49018371D01*
X104115861Y-49198077D01*
X104115858Y-49198089D01*
X104086300Y-49384719D01*
X93986804Y-49384719D01*
X93961682Y-49161760D01*
X93891689Y-48855100D01*
X93891687Y-48855094D01*
X93787803Y-48558208D01*
X93763338Y-48507406D01*
X93651325Y-48274811D01*
X93483976Y-48008477D01*
X93287861Y-47762556D01*
X90524719Y-44999414D01*
X90477600Y-44924426D01*
X90467684Y-44836419D01*
X90496935Y-44752826D01*
X90559559Y-44690202D01*
X90643152Y-44660951D01*
X90665433Y-44659700D01*
X105041567Y-44659700D01*
X105127910Y-44679407D01*
X105182281Y-44717986D01*
X112034956Y-51570661D01*
X112280877Y-51766777D01*
X112280883Y-51766782D01*
X112547204Y-51934121D01*
X112547206Y-51934122D01*
X112547211Y-51934125D01*
X112758184Y-52035725D01*
X112830608Y-52070603D01*
X112975779Y-52121400D01*
X113127500Y-52174489D01*
X113434160Y-52244482D01*
X113746727Y-52279700D01*
X113746728Y-52279700D01*
X114061271Y-52279700D01*
X114061272Y-52279700D01*
X114373840Y-52244482D01*
X114680500Y-52174489D01*
X114977394Y-52070602D01*
X115260789Y-51934125D01*
X115365438Y-51868370D01*
X115527116Y-51766782D01*
X115527118Y-51766779D01*
X115527123Y-51766777D01*
X115773044Y-51570661D01*
X115995461Y-51348244D01*
X116191577Y-51102323D01*
X116191579Y-51102318D01*
X116191582Y-51102316D01*
X116358921Y-50835995D01*
X116358925Y-50835989D01*
X116495402Y-50552594D01*
X116599289Y-50255700D01*
X116669282Y-49949040D01*
X116704500Y-49636472D01*
X116704500Y-49486319D01*
X125339500Y-49486319D01*
X125339500Y-49675280D01*
X125369058Y-49861910D01*
X125369061Y-49861922D01*
X125427451Y-50041628D01*
X125427452Y-50041631D01*
X125487356Y-50159199D01*
X125513240Y-50209999D01*
X125624310Y-50362873D01*
X125624314Y-50362877D01*
X125624315Y-50362879D01*
X125757920Y-50496484D01*
X125757922Y-50496485D01*
X125757927Y-50496490D01*
X125910801Y-50607560D01*
X126079168Y-50693347D01*
X126258882Y-50751740D01*
X126445519Y-50781300D01*
X126634481Y-50781300D01*
X126821118Y-50751740D01*
X127000832Y-50693347D01*
X127169199Y-50607560D01*
X127322073Y-50496490D01*
X127455690Y-50362873D01*
X127566760Y-50209999D01*
X127652547Y-50041632D01*
X127710940Y-49861918D01*
X127740500Y-49675281D01*
X127740500Y-49486319D01*
X127710940Y-49299682D01*
X127652547Y-49119968D01*
X127566760Y-48951601D01*
X127455690Y-48798727D01*
X127455685Y-48798722D01*
X127455684Y-48798720D01*
X127322079Y-48665115D01*
X127322077Y-48665114D01*
X127322073Y-48665110D01*
X127169199Y-48554040D01*
X127169198Y-48554039D01*
X127169196Y-48554038D01*
X127000831Y-48468252D01*
X127000828Y-48468251D01*
X126821122Y-48409861D01*
X126821110Y-48409858D01*
X126634481Y-48380300D01*
X126445519Y-48380300D01*
X126258889Y-48409858D01*
X126258877Y-48409861D01*
X126079171Y-48468251D01*
X126079168Y-48468252D01*
X125910803Y-48554038D01*
X125889036Y-48569853D01*
X125757927Y-48665110D01*
X125757925Y-48665111D01*
X125757922Y-48665114D01*
X125757920Y-48665115D01*
X125624315Y-48798720D01*
X125624314Y-48798722D01*
X125624311Y-48798725D01*
X125624310Y-48798727D01*
X125587057Y-48850001D01*
X125513238Y-48951603D01*
X125427452Y-49119968D01*
X125427451Y-49119971D01*
X125369061Y-49299677D01*
X125369058Y-49299689D01*
X125339500Y-49486319D01*
X116704500Y-49486319D01*
X116704500Y-49321927D01*
X116669282Y-49009360D01*
X116599289Y-48702700D01*
X116597337Y-48697122D01*
X116495403Y-48405808D01*
X116475939Y-48365391D01*
X116358925Y-48122411D01*
X116358921Y-48122404D01*
X116191582Y-47856083D01*
X116191577Y-47856077D01*
X115995461Y-47610156D01*
X113384719Y-44999414D01*
X113337600Y-44924426D01*
X113327684Y-44836419D01*
X113356935Y-44752826D01*
X113419559Y-44690202D01*
X113503152Y-44660951D01*
X113525433Y-44659700D01*
X126275967Y-44659700D01*
X126362310Y-44679407D01*
X126416681Y-44717986D01*
X133370956Y-51672261D01*
X133616877Y-51868377D01*
X133616883Y-51868382D01*
X133883204Y-52035721D01*
X133883206Y-52035722D01*
X133883211Y-52035725D01*
X134094178Y-52137322D01*
X134166608Y-52172203D01*
X134311779Y-52223000D01*
X134463500Y-52276089D01*
X134770160Y-52346082D01*
X135082727Y-52381300D01*
X135082728Y-52381300D01*
X135397271Y-52381300D01*
X135397272Y-52381300D01*
X135709840Y-52346082D01*
X136016500Y-52276089D01*
X136313394Y-52172202D01*
X136596789Y-52035725D01*
X136863122Y-51868377D01*
X137109044Y-51672261D01*
X137331461Y-51449844D01*
X137446560Y-51305514D01*
X137527570Y-51203931D01*
X137527576Y-51203923D01*
X137527577Y-51203922D01*
X137694925Y-50937589D01*
X137831402Y-50654194D01*
X137935289Y-50357300D01*
X138005282Y-50050640D01*
X138040500Y-49738072D01*
X138040500Y-49486319D01*
X146929500Y-49486319D01*
X146929500Y-49675280D01*
X146959058Y-49861910D01*
X146959061Y-49861922D01*
X147017451Y-50041628D01*
X147017452Y-50041631D01*
X147077356Y-50159199D01*
X147103240Y-50209999D01*
X147214310Y-50362873D01*
X147214314Y-50362877D01*
X147214315Y-50362879D01*
X147347920Y-50496484D01*
X147347922Y-50496485D01*
X147347927Y-50496490D01*
X147500801Y-50607560D01*
X147669168Y-50693347D01*
X147848882Y-50751740D01*
X148035519Y-50781300D01*
X148224481Y-50781300D01*
X148411118Y-50751740D01*
X148590832Y-50693347D01*
X148759199Y-50607560D01*
X148912073Y-50496490D01*
X149045690Y-50362873D01*
X149156760Y-50209999D01*
X149242547Y-50041632D01*
X149300940Y-49861918D01*
X149330500Y-49675281D01*
X149330500Y-49486319D01*
X149300940Y-49299682D01*
X149242547Y-49119968D01*
X149156760Y-48951601D01*
X149045690Y-48798727D01*
X149045685Y-48798722D01*
X149045684Y-48798720D01*
X148912079Y-48665115D01*
X148912077Y-48665114D01*
X148912073Y-48665110D01*
X148759199Y-48554040D01*
X148759198Y-48554039D01*
X148759196Y-48554038D01*
X148590831Y-48468252D01*
X148590828Y-48468251D01*
X148411122Y-48409861D01*
X148411110Y-48409858D01*
X148224481Y-48380300D01*
X148035519Y-48380300D01*
X147848889Y-48409858D01*
X147848877Y-48409861D01*
X147669171Y-48468251D01*
X147669168Y-48468252D01*
X147500803Y-48554038D01*
X147479036Y-48569853D01*
X147347927Y-48665110D01*
X147347925Y-48665111D01*
X147347922Y-48665114D01*
X147347920Y-48665115D01*
X147214315Y-48798720D01*
X147214314Y-48798722D01*
X147214311Y-48798725D01*
X147214310Y-48798727D01*
X147177057Y-48850001D01*
X147103238Y-48951603D01*
X147017452Y-49119968D01*
X147017451Y-49119971D01*
X146959061Y-49299677D01*
X146959058Y-49299689D01*
X146929500Y-49486319D01*
X138040500Y-49486319D01*
X138040500Y-49423527D01*
X138005282Y-49110960D01*
X137935289Y-48804300D01*
X137933337Y-48798722D01*
X137831403Y-48507408D01*
X137806938Y-48456606D01*
X137694925Y-48224011D01*
X137694921Y-48224004D01*
X137527582Y-47957683D01*
X137527577Y-47957677D01*
X137331461Y-47711756D01*
X134619119Y-44999414D01*
X134572000Y-44924426D01*
X134562084Y-44836419D01*
X134591335Y-44752826D01*
X134653959Y-44690202D01*
X134737552Y-44660951D01*
X134759833Y-44659700D01*
X147865967Y-44659700D01*
X147952310Y-44679407D01*
X148006681Y-44717986D01*
X154960956Y-51672261D01*
X155206877Y-51868377D01*
X155206883Y-51868382D01*
X155473204Y-52035721D01*
X155473206Y-52035722D01*
X155473211Y-52035725D01*
X155684178Y-52137322D01*
X155756608Y-52172203D01*
X155901779Y-52223000D01*
X156053500Y-52276089D01*
X156360160Y-52346082D01*
X156672727Y-52381300D01*
X156672728Y-52381300D01*
X156987272Y-52381300D01*
X156987273Y-52381300D01*
X157299840Y-52346082D01*
X157606500Y-52276089D01*
X157903394Y-52172202D01*
X158186789Y-52035725D01*
X158348484Y-51934126D01*
X158453116Y-51868382D01*
X158453118Y-51868379D01*
X158453123Y-51868377D01*
X158699044Y-51672261D01*
X158921461Y-51449844D01*
X159117577Y-51203923D01*
X159117579Y-51203918D01*
X159117582Y-51203916D01*
X159259029Y-50978803D01*
X159284925Y-50937589D01*
X159421402Y-50654194D01*
X159525289Y-50357300D01*
X159595282Y-50050640D01*
X159630500Y-49738073D01*
X159630500Y-49423527D01*
X159630500Y-49423525D01*
X159627757Y-49399179D01*
X159626128Y-49384719D01*
X169110300Y-49384719D01*
X169110300Y-49573680D01*
X169139858Y-49760310D01*
X169139861Y-49760322D01*
X169198251Y-49940028D01*
X169198252Y-49940031D01*
X169275904Y-50092432D01*
X169284040Y-50108399D01*
X169395110Y-50261273D01*
X169395114Y-50261277D01*
X169395115Y-50261279D01*
X169528720Y-50394884D01*
X169528722Y-50394885D01*
X169528727Y-50394890D01*
X169681601Y-50505960D01*
X169849968Y-50591747D01*
X170029682Y-50650140D01*
X170216319Y-50679700D01*
X170405281Y-50679700D01*
X170591918Y-50650140D01*
X170771632Y-50591747D01*
X170939999Y-50505960D01*
X171092873Y-50394890D01*
X171226490Y-50261273D01*
X171337560Y-50108399D01*
X171423347Y-49940032D01*
X171481740Y-49760318D01*
X171511300Y-49573681D01*
X171511300Y-49384719D01*
X171481740Y-49198082D01*
X171423347Y-49018368D01*
X171337560Y-48850001D01*
X171226490Y-48697127D01*
X171226485Y-48697122D01*
X171226484Y-48697120D01*
X171092879Y-48563515D01*
X171092877Y-48563514D01*
X171092873Y-48563510D01*
X170939999Y-48452440D01*
X170939998Y-48452439D01*
X170939996Y-48452438D01*
X170771631Y-48366652D01*
X170771628Y-48366651D01*
X170591922Y-48308261D01*
X170591910Y-48308258D01*
X170405281Y-48278700D01*
X170216319Y-48278700D01*
X170029689Y-48308258D01*
X170029677Y-48308261D01*
X169849971Y-48366651D01*
X169849968Y-48366652D01*
X169681603Y-48452438D01*
X169659836Y-48468253D01*
X169528727Y-48563510D01*
X169528725Y-48563511D01*
X169528722Y-48563514D01*
X169528720Y-48563515D01*
X169395115Y-48697120D01*
X169395114Y-48697122D01*
X169395111Y-48697125D01*
X169395110Y-48697127D01*
X169356247Y-48750617D01*
X169284038Y-48850003D01*
X169198252Y-49018368D01*
X169198251Y-49018371D01*
X169139861Y-49198077D01*
X169139858Y-49198089D01*
X169110300Y-49384719D01*
X159626128Y-49384719D01*
X159610822Y-49248882D01*
X159595282Y-49110960D01*
X159525289Y-48804300D01*
X159523337Y-48798722D01*
X159421403Y-48507408D01*
X159396938Y-48456606D01*
X159284925Y-48224011D01*
X159284921Y-48224004D01*
X159117582Y-47957683D01*
X159117577Y-47957677D01*
X158921461Y-47711756D01*
X156209119Y-44999414D01*
X156162000Y-44924426D01*
X156152084Y-44836419D01*
X156181335Y-44752826D01*
X156243959Y-44690202D01*
X156327552Y-44660951D01*
X156349833Y-44659700D01*
X170148367Y-44659700D01*
X170234710Y-44679407D01*
X170289081Y-44717986D01*
X177141756Y-51570661D01*
X177387677Y-51766777D01*
X177654011Y-51934126D01*
X177937406Y-52070602D01*
X177982911Y-52086525D01*
X178232076Y-52173712D01*
X178234300Y-52174490D01*
X178540960Y-52244483D01*
X178853528Y-52279700D01*
X178853529Y-52279700D01*
X179168072Y-52279700D01*
X179168073Y-52279700D01*
X179480640Y-52244483D01*
X179787300Y-52174490D01*
X180084194Y-52070602D01*
X180367589Y-51934126D01*
X180633923Y-51766777D01*
X180879844Y-51570661D01*
X181102261Y-51348244D01*
X181298377Y-51102323D01*
X181465726Y-50835989D01*
X181602202Y-50552594D01*
X181706090Y-50255700D01*
X181776083Y-49949040D01*
X181811300Y-49636473D01*
X181811300Y-49384719D01*
X191499900Y-49384719D01*
X191499900Y-49573680D01*
X191529458Y-49760310D01*
X191529461Y-49760322D01*
X191587851Y-49940028D01*
X191587852Y-49940031D01*
X191665504Y-50092432D01*
X191673640Y-50108399D01*
X191784710Y-50261273D01*
X191784714Y-50261277D01*
X191784715Y-50261279D01*
X191918320Y-50394884D01*
X191918322Y-50394885D01*
X191918327Y-50394890D01*
X192071201Y-50505960D01*
X192239568Y-50591747D01*
X192419282Y-50650140D01*
X192605919Y-50679700D01*
X192794881Y-50679700D01*
X192981518Y-50650140D01*
X193161232Y-50591747D01*
X193329599Y-50505960D01*
X193482473Y-50394890D01*
X193616090Y-50261273D01*
X193727160Y-50108399D01*
X193812947Y-49940032D01*
X193871340Y-49760318D01*
X193900900Y-49573681D01*
X193900900Y-49384719D01*
X193871340Y-49198082D01*
X193812947Y-49018368D01*
X193727160Y-48850001D01*
X193616090Y-48697127D01*
X193616085Y-48697122D01*
X193616084Y-48697120D01*
X193482479Y-48563515D01*
X193482477Y-48563514D01*
X193482473Y-48563510D01*
X193329599Y-48452440D01*
X193329598Y-48452439D01*
X193329596Y-48452438D01*
X193161231Y-48366652D01*
X193161228Y-48366651D01*
X192981522Y-48308261D01*
X192981510Y-48308258D01*
X192794881Y-48278700D01*
X192605919Y-48278700D01*
X192419289Y-48308258D01*
X192419277Y-48308261D01*
X192239571Y-48366651D01*
X192239568Y-48366652D01*
X192071203Y-48452438D01*
X192049436Y-48468253D01*
X191918327Y-48563510D01*
X191918325Y-48563511D01*
X191918322Y-48563514D01*
X191918320Y-48563515D01*
X191784715Y-48697120D01*
X191784714Y-48697122D01*
X191784711Y-48697125D01*
X191784710Y-48697127D01*
X191745847Y-48750617D01*
X191673638Y-48850003D01*
X191587852Y-49018368D01*
X191587851Y-49018371D01*
X191529461Y-49198077D01*
X191529458Y-49198089D01*
X191499900Y-49384719D01*
X181811300Y-49384719D01*
X181811300Y-49321928D01*
X181776083Y-49009360D01*
X181706090Y-48702700D01*
X181704137Y-48697120D01*
X181636295Y-48503238D01*
X181602202Y-48405806D01*
X181465726Y-48122411D01*
X181298377Y-47856077D01*
X181102261Y-47610156D01*
X178491519Y-44999414D01*
X178444400Y-44924426D01*
X178434484Y-44836419D01*
X178463735Y-44752826D01*
X178526359Y-44690202D01*
X178609952Y-44660951D01*
X178632233Y-44659700D01*
X192537967Y-44659700D01*
X192624310Y-44679407D01*
X192678681Y-44717986D01*
X199531356Y-51570661D01*
X199777277Y-51766776D01*
X200043611Y-51934125D01*
X200254584Y-52035725D01*
X200327008Y-52070603D01*
X200472179Y-52121400D01*
X200623900Y-52174489D01*
X200930560Y-52244482D01*
X201243127Y-52279700D01*
X201243128Y-52279700D01*
X201557671Y-52279700D01*
X201557672Y-52279700D01*
X201870240Y-52244482D01*
X202176900Y-52174489D01*
X202473794Y-52070602D01*
X202757188Y-51934125D01*
X202890355Y-51850450D01*
X203023515Y-51766781D01*
X203023516Y-51766779D01*
X203023522Y-51766776D01*
X203269444Y-51570661D01*
X203491861Y-51348244D01*
X203687976Y-51102322D01*
X203687979Y-51102316D01*
X203687981Y-51102315D01*
X203825848Y-50882900D01*
X203855325Y-50835988D01*
X203991802Y-50552594D01*
X204095689Y-50255700D01*
X204165682Y-49949040D01*
X204200900Y-49636472D01*
X204200900Y-49587919D01*
X214137900Y-49587919D01*
X214137900Y-49776880D01*
X214167458Y-49963510D01*
X214167461Y-49963522D01*
X214225851Y-50143228D01*
X214225852Y-50143231D01*
X214309044Y-50306505D01*
X214311640Y-50311599D01*
X214422710Y-50464473D01*
X214422714Y-50464477D01*
X214422715Y-50464479D01*
X214556320Y-50598084D01*
X214556322Y-50598085D01*
X214556327Y-50598090D01*
X214709201Y-50709160D01*
X214877568Y-50794947D01*
X215057282Y-50853340D01*
X215243919Y-50882900D01*
X215432881Y-50882900D01*
X215619518Y-50853340D01*
X215799232Y-50794947D01*
X215967599Y-50709160D01*
X216120473Y-50598090D01*
X216254090Y-50464473D01*
X216365160Y-50311599D01*
X216450947Y-50143232D01*
X216509340Y-49963518D01*
X216538900Y-49776881D01*
X216538900Y-49587919D01*
X216509340Y-49401282D01*
X216450947Y-49221568D01*
X216365160Y-49053201D01*
X216254090Y-48900327D01*
X216254085Y-48900322D01*
X216254084Y-48900320D01*
X216120479Y-48766715D01*
X216120477Y-48766714D01*
X216120473Y-48766710D01*
X215967599Y-48655640D01*
X215967598Y-48655639D01*
X215967596Y-48655638D01*
X215799231Y-48569852D01*
X215799228Y-48569851D01*
X215619522Y-48511461D01*
X215619510Y-48511458D01*
X215432881Y-48481900D01*
X215243919Y-48481900D01*
X215057289Y-48511458D01*
X215057277Y-48511461D01*
X214877571Y-48569851D01*
X214877568Y-48569852D01*
X214709203Y-48655638D01*
X214652109Y-48697120D01*
X214556327Y-48766710D01*
X214556325Y-48766711D01*
X214556322Y-48766714D01*
X214556320Y-48766715D01*
X214422715Y-48900320D01*
X214422714Y-48900322D01*
X214422711Y-48900325D01*
X214422710Y-48900327D01*
X214415900Y-48909700D01*
X214311638Y-49053203D01*
X214225852Y-49221568D01*
X214225851Y-49221571D01*
X214167461Y-49401277D01*
X214167458Y-49401289D01*
X214137900Y-49587919D01*
X204200900Y-49587919D01*
X204200900Y-49321927D01*
X204165682Y-49009360D01*
X204095689Y-48702700D01*
X204093737Y-48697122D01*
X203991803Y-48405808D01*
X203972339Y-48365391D01*
X203855325Y-48122411D01*
X203687976Y-47856077D01*
X203491861Y-47610156D01*
X200881119Y-44999414D01*
X200834000Y-44924426D01*
X200824084Y-44836419D01*
X200853335Y-44752826D01*
X200915959Y-44690202D01*
X200999552Y-44660951D01*
X201021833Y-44659700D01*
X214972767Y-44659700D01*
X215059110Y-44679407D01*
X215113481Y-44717986D01*
X222169357Y-51773862D01*
X222415278Y-51969977D01*
X222681612Y-52137326D01*
X222965007Y-52273802D01*
X223261900Y-52377690D01*
X223568560Y-52447683D01*
X223881128Y-52482900D01*
X223881129Y-52482900D01*
X224195672Y-52482900D01*
X224195673Y-52482900D01*
X224508240Y-52447683D01*
X224814900Y-52377690D01*
X225111794Y-52273802D01*
X225395189Y-52137326D01*
X225661523Y-51969977D01*
X225907444Y-51773862D01*
X226129862Y-51551444D01*
X226325977Y-51305523D01*
X226493326Y-51039189D01*
X226629802Y-50755794D01*
X226733690Y-50458900D01*
X226803683Y-50152240D01*
X226838900Y-49839673D01*
X226838900Y-49587919D01*
X235575500Y-49587919D01*
X235575500Y-49776880D01*
X235605058Y-49963510D01*
X235605061Y-49963522D01*
X235663451Y-50143228D01*
X235663452Y-50143231D01*
X235746644Y-50306505D01*
X235749240Y-50311599D01*
X235860310Y-50464473D01*
X235860314Y-50464477D01*
X235860315Y-50464479D01*
X235993920Y-50598084D01*
X235993922Y-50598085D01*
X235993927Y-50598090D01*
X236146801Y-50709160D01*
X236315168Y-50794947D01*
X236494882Y-50853340D01*
X236681519Y-50882900D01*
X236870481Y-50882900D01*
X237057118Y-50853340D01*
X237236832Y-50794947D01*
X237405199Y-50709160D01*
X237558073Y-50598090D01*
X237691690Y-50464473D01*
X237802760Y-50311599D01*
X237888547Y-50143232D01*
X237946940Y-49963518D01*
X237976500Y-49776881D01*
X237976500Y-49587919D01*
X237946940Y-49401282D01*
X237888547Y-49221568D01*
X237802760Y-49053201D01*
X237691690Y-48900327D01*
X237691685Y-48900322D01*
X237691684Y-48900320D01*
X237558079Y-48766715D01*
X237558077Y-48766714D01*
X237558073Y-48766710D01*
X237405199Y-48655640D01*
X237405198Y-48655639D01*
X237405196Y-48655638D01*
X237236831Y-48569852D01*
X237236828Y-48569851D01*
X237057122Y-48511461D01*
X237057110Y-48511458D01*
X236870481Y-48481900D01*
X236681519Y-48481900D01*
X236494889Y-48511458D01*
X236494877Y-48511461D01*
X236315171Y-48569851D01*
X236315168Y-48569852D01*
X236146803Y-48655638D01*
X236089709Y-48697120D01*
X235993927Y-48766710D01*
X235993925Y-48766711D01*
X235993922Y-48766714D01*
X235993920Y-48766715D01*
X235860315Y-48900320D01*
X235860314Y-48900322D01*
X235860311Y-48900325D01*
X235860310Y-48900327D01*
X235853500Y-48909700D01*
X235749238Y-49053203D01*
X235663452Y-49221568D01*
X235663451Y-49221571D01*
X235605061Y-49401277D01*
X235605058Y-49401289D01*
X235575500Y-49587919D01*
X226838900Y-49587919D01*
X226838900Y-49525128D01*
X226803683Y-49212560D01*
X226733690Y-48905900D01*
X226731906Y-48900803D01*
X226680363Y-48753500D01*
X226629802Y-48609007D01*
X226493326Y-48325612D01*
X226325977Y-48059278D01*
X226129862Y-47813357D01*
X223315919Y-44999414D01*
X223268800Y-44924426D01*
X223258884Y-44836419D01*
X223288135Y-44752826D01*
X223350759Y-44690202D01*
X223434352Y-44660951D01*
X223456633Y-44659700D01*
X236410367Y-44659700D01*
X236496710Y-44679407D01*
X236551081Y-44717986D01*
X243606956Y-51773861D01*
X243852877Y-51969977D01*
X243852883Y-51969982D01*
X244119204Y-52137321D01*
X244119206Y-52137322D01*
X244119211Y-52137325D01*
X244301869Y-52225289D01*
X244402608Y-52273803D01*
X244554315Y-52326887D01*
X244699500Y-52377689D01*
X245006160Y-52447682D01*
X245318727Y-52482900D01*
X245318728Y-52482900D01*
X245633271Y-52482900D01*
X245633272Y-52482900D01*
X245945840Y-52447682D01*
X246252500Y-52377689D01*
X246549394Y-52273802D01*
X246832789Y-52137325D01*
X247099122Y-51969977D01*
X247345044Y-51773861D01*
X247567461Y-51551444D01*
X247688997Y-51399043D01*
X247763570Y-51305531D01*
X247763576Y-51305523D01*
X247763577Y-51305522D01*
X247930925Y-51039189D01*
X248067402Y-50755794D01*
X248171289Y-50458900D01*
X248241282Y-50152240D01*
X248276500Y-49839672D01*
X248276500Y-49525127D01*
X248241282Y-49212560D01*
X248171289Y-48905900D01*
X248171287Y-48905894D01*
X248067403Y-48609008D01*
X248048546Y-48569851D01*
X247930925Y-48325611D01*
X247930921Y-48325604D01*
X247763582Y-48059283D01*
X247763577Y-48059277D01*
X247567461Y-47813356D01*
X244753519Y-44999414D01*
X244706400Y-44924426D01*
X244696484Y-44836419D01*
X244725735Y-44752826D01*
X244788359Y-44690202D01*
X244871952Y-44660951D01*
X244894233Y-44659700D01*
X247677567Y-44659700D01*
X247763910Y-44679407D01*
X247818281Y-44717986D01*
X253888214Y-50787919D01*
X253935333Y-50862907D01*
X253946500Y-50928633D01*
X253946500Y-60486072D01*
X253972653Y-60718191D01*
X253981718Y-60798640D01*
X253997124Y-60866137D01*
X254051712Y-61105305D01*
X254117047Y-61292021D01*
X254155598Y-61402194D01*
X254292074Y-61685589D01*
X254450360Y-61937500D01*
X254459426Y-61951927D01*
X254459429Y-61951930D01*
X254639230Y-62177394D01*
X254655539Y-62197844D01*
X254877956Y-62420261D01*
X255123877Y-62616377D01*
X255390211Y-62783726D01*
X255673606Y-62920202D01*
X255970500Y-63024089D01*
X256277160Y-63094082D01*
X256589727Y-63129300D01*
X256589728Y-63129300D01*
X256904272Y-63129300D01*
X256904273Y-63129300D01*
X257216840Y-63094082D01*
X257523500Y-63024089D01*
X257820394Y-62920202D01*
X258103789Y-62783726D01*
X258370123Y-62616377D01*
X258616044Y-62420261D01*
X258838461Y-62197844D01*
X259034577Y-61951923D01*
X259201926Y-61685589D01*
X259338402Y-61402194D01*
X259442289Y-61105300D01*
X259512282Y-60798640D01*
X259547500Y-60486073D01*
X259547500Y-49528927D01*
X259541348Y-49474327D01*
X259512283Y-49216360D01*
X259442290Y-48909700D01*
X259440960Y-48905900D01*
X259374480Y-48715914D01*
X259365331Y-48689767D01*
X259365331Y-48689766D01*
X259346908Y-48637116D01*
X259338402Y-48612806D01*
X259201926Y-48329411D01*
X259034577Y-48063077D01*
X258838461Y-47817156D01*
X258616044Y-47594739D01*
X250789044Y-39767739D01*
X250543123Y-39571623D01*
X250276789Y-39404274D01*
X249993394Y-39267798D01*
X249993387Y-39267795D01*
X249993384Y-39267794D01*
X249696504Y-39163911D01*
X249696501Y-39163910D01*
X249389836Y-39093917D01*
X249130472Y-39064694D01*
X249077273Y-39058700D01*
X63090073Y-39058700D01*
X36834873Y-39058700D01*
X36520327Y-39058700D01*
X36474865Y-39063822D01*
X36207763Y-39093917D01*
X35901098Y-39163910D01*
X35901095Y-39163911D01*
X35604215Y-39267794D01*
X35604214Y-39267794D01*
X35320805Y-39404277D01*
X35054472Y-39571626D01*
X35054469Y-39571629D01*
X34808556Y-39767738D01*
X30420538Y-44155756D01*
X30224429Y-44401669D01*
X30224426Y-44401672D01*
X30057077Y-44668005D01*
X29920594Y-44951414D01*
X29920594Y-44951415D01*
X29816711Y-45248295D01*
X29816710Y-45248298D01*
X29746717Y-45554963D01*
X29711500Y-45867527D01*
X27932500Y-45867527D01*
X27932500Y-35263180D01*
X30189900Y-35263180D01*
X30189900Y-35450419D01*
X30217362Y-35588479D01*
X30226427Y-35634051D01*
X30298078Y-35807031D01*
X30402098Y-35962708D01*
X30534492Y-36095102D01*
X30690169Y-36199122D01*
X30863149Y-36270773D01*
X30954966Y-36289036D01*
X31046781Y-36307300D01*
X31046784Y-36307300D01*
X31234019Y-36307300D01*
X31312716Y-36291645D01*
X31417651Y-36270773D01*
X31590631Y-36199122D01*
X31746308Y-36095102D01*
X31878702Y-35962708D01*
X31982722Y-35807031D01*
X32054373Y-35634051D01*
X32054420Y-35633817D01*
X34885100Y-35633817D01*
X34885100Y-35935383D01*
X34924462Y-36234368D01*
X35002513Y-36525658D01*
X35117917Y-36804268D01*
X35177731Y-36907870D01*
X35268696Y-37065427D01*
X35452283Y-37304683D01*
X35665516Y-37517916D01*
X35904772Y-37701503D01*
X36002511Y-37757932D01*
X36165932Y-37852283D01*
X36444542Y-37967687D01*
X36735832Y-38045738D01*
X37034817Y-38085100D01*
X37034820Y-38085100D01*
X37336380Y-38085100D01*
X37336383Y-38085100D01*
X37635368Y-38045738D01*
X37926658Y-37967687D01*
X38205268Y-37852283D01*
X38466432Y-37701500D01*
X38705680Y-37517919D01*
X38918919Y-37304680D01*
X39102500Y-37065432D01*
X39253283Y-36804268D01*
X39368687Y-36525658D01*
X39446738Y-36234368D01*
X39486100Y-35935383D01*
X39486100Y-35634217D01*
X234885300Y-35634217D01*
X234885300Y-35935783D01*
X234924662Y-36234768D01*
X235002713Y-36526058D01*
X235118117Y-36804668D01*
X235177931Y-36908270D01*
X235268896Y-37065827D01*
X235452483Y-37305083D01*
X235665716Y-37518316D01*
X235904972Y-37701903D01*
X236002711Y-37758332D01*
X236166132Y-37852683D01*
X236444742Y-37968087D01*
X236736032Y-38046138D01*
X237035017Y-38085500D01*
X237035020Y-38085500D01*
X237336580Y-38085500D01*
X237336583Y-38085500D01*
X237635568Y-38046138D01*
X237926858Y-37968087D01*
X238205468Y-37852683D01*
X238466632Y-37701900D01*
X238705880Y-37518319D01*
X238919119Y-37305080D01*
X239102700Y-37065832D01*
X239253483Y-36804668D01*
X239368887Y-36526058D01*
X239446938Y-36234768D01*
X239486300Y-35935783D01*
X239486300Y-35634217D01*
X239446938Y-35335232D01*
X239368887Y-35043942D01*
X239253483Y-34765332D01*
X239159132Y-34601911D01*
X239102703Y-34504172D01*
X239055631Y-34442827D01*
X238919119Y-34264920D01*
X238919116Y-34264916D01*
X238705883Y-34051683D01*
X238466627Y-33868096D01*
X238309070Y-33777131D01*
X238205468Y-33717317D01*
X237926858Y-33601913D01*
X237926856Y-33601912D01*
X237926855Y-33601912D01*
X237781213Y-33562887D01*
X237635568Y-33523862D01*
X237336583Y-33484500D01*
X237035017Y-33484500D01*
X236736032Y-33523862D01*
X236736028Y-33523862D01*
X236736028Y-33523863D01*
X236444744Y-33601912D01*
X236166136Y-33717315D01*
X236166134Y-33717316D01*
X235904972Y-33868096D01*
X235665716Y-34051683D01*
X235452483Y-34264916D01*
X235268896Y-34504172D01*
X235118116Y-34765334D01*
X235118115Y-34765336D01*
X235059614Y-34906570D01*
X235002713Y-35043942D01*
X234924662Y-35335232D01*
X234885300Y-35634217D01*
X39486100Y-35634217D01*
X39486100Y-35633817D01*
X39446738Y-35334832D01*
X39368687Y-35043542D01*
X39253283Y-34764932D01*
X39158932Y-34601511D01*
X39102503Y-34503772D01*
X38918916Y-34264516D01*
X38705683Y-34051283D01*
X38466427Y-33867696D01*
X38308870Y-33776731D01*
X38205268Y-33716917D01*
X37926658Y-33601513D01*
X37926656Y-33601512D01*
X37926655Y-33601512D01*
X37781013Y-33562487D01*
X37635368Y-33523462D01*
X37336383Y-33484100D01*
X37034817Y-33484100D01*
X36735832Y-33523462D01*
X36735828Y-33523462D01*
X36735828Y-33523463D01*
X36444544Y-33601512D01*
X36165936Y-33716915D01*
X36165934Y-33716916D01*
X35904772Y-33867696D01*
X35665516Y-34051283D01*
X35452283Y-34264516D01*
X35268696Y-34503772D01*
X35117916Y-34764934D01*
X35117915Y-34764936D01*
X35002512Y-35043544D01*
X35002405Y-35043944D01*
X34924462Y-35334832D01*
X34885100Y-35633817D01*
X32054420Y-35633817D01*
X32063438Y-35588479D01*
X32090900Y-35450419D01*
X32090900Y-35263180D01*
X32070027Y-35158249D01*
X32054373Y-35079549D01*
X31982722Y-34906569D01*
X31878702Y-34750892D01*
X31746308Y-34618498D01*
X31667946Y-34566138D01*
X31590633Y-34514479D01*
X31590629Y-34514477D01*
X31539965Y-34493491D01*
X31417651Y-34442827D01*
X31417648Y-34442826D01*
X31417647Y-34442826D01*
X31234019Y-34406300D01*
X31234016Y-34406300D01*
X31046784Y-34406300D01*
X31046781Y-34406300D01*
X30863152Y-34442826D01*
X30863149Y-34442827D01*
X30690170Y-34514477D01*
X30690166Y-34514479D01*
X30534496Y-34618495D01*
X30534488Y-34618501D01*
X30402101Y-34750888D01*
X30402095Y-34750896D01*
X30298079Y-34906566D01*
X30298077Y-34906570D01*
X30226427Y-35079549D01*
X30226426Y-35079552D01*
X30189900Y-35263180D01*
X27932500Y-35263180D01*
X27932500Y-31484300D01*
X27952207Y-31397957D01*
X28007426Y-31328716D01*
X28087218Y-31290289D01*
X28131500Y-31285300D01*
X264374900Y-31285300D01*
X264461243Y-31305007D01*
G37*
%TD.AperFunction*%
%TD*%
M02*
