M48
; DRILL file {KiCad 9.0.4} date 2025-10-20T22:53:34-0500
; FORMAT={-:-/ absolute / inch / decimal}
; #@! TF.CreationDate,2025-10-20T22:53:34-05:00
; #@! TF.GenerationSoftware,Kicad,Pcbnew,9.0.4
; #@! TF.FileFunction,Plated,1,2,PTH
FMAT,2
INCH
; #@! TA.AperFunction,Plated,PTH,ComponentDrill
T1C0.0394
; #@! TA.AperFunction,Plated,PTH,ComponentDrill
T2C0.0402
; #@! TA.AperFunction,Plated,PTH,ComponentDrill
T3C0.0433
; #@! TA.AperFunction,Plated,PTH,ViaDrill
T4C0.0454
; #@! TA.AperFunction,Plated,PTH,ComponentDrill
T5C0.0472
; #@! TA.AperFunction,Plated,PTH,ComponentDrill
T6C0.0512
; #@! TA.AperFunction,Plated,PTH,ViaDrill
T7C0.1260
%
G90
G05
T1
X2.4371Y-1.95
X2.7797Y-1.95
X3.2479Y-1.954
X3.5904Y-1.954
X4.1451Y-1.948
X4.4877Y-1.948
X4.9819Y-1.952
X5.3244Y-1.952
X5.8319Y-1.952
X6.1744Y-1.952
X6.414Y-3.416
X6.414Y-3.516
X6.414Y-2.9255
X6.414Y-3.0255
X6.652Y-3.83
X6.7051Y-1.948
X6.752Y-3.83
X7.046Y-3.826
X7.0477Y-1.948
X7.146Y-3.826
X7.162Y-2.9255
X7.162Y-3.0255
X7.5866Y-1.948
X7.9291Y-1.948
X8.4779Y-1.956
X8.8204Y-1.956
X9.3219Y-1.956
X9.6644Y-1.956
T2
X1.5676Y-1.8705
X1.5676Y-1.9705
X1.5676Y-2.0705
X1.5676Y-2.5855
X1.5676Y-2.6855
X1.5676Y-2.7855
X1.5676Y-2.228
X1.5676Y-2.328
X1.5676Y-2.428
X7.162Y-3.3436
X7.162Y-3.4436
X7.162Y-3.5436
X10.114Y-3.71
X10.114Y-3.81
X10.114Y-3.91
X10.114Y-4.01
X10.114Y-4.11
T3
X7.918Y-3.026
X7.918Y-3.126
X7.918Y-3.226
X7.918Y-3.326
X7.918Y-3.426
X7.918Y-3.526
X7.918Y-3.626
X7.918Y-3.726
X8.6125Y-3.026
X8.6125Y-3.126
X8.6125Y-3.226
X8.6125Y-3.326
X8.6125Y-3.426
X8.6125Y-3.526
X8.6125Y-3.626
X8.6125Y-3.726
T4
X1.226Y-1.392
X1.226Y-3.792
T5
X1.724Y-3.3
X1.9208Y-3.3
X2.2751Y-3.3
X2.472Y-3.3
X2.8263Y-3.3
X3.0232Y-3.3
X3.3775Y-3.3
X3.5744Y-3.3
X3.9287Y-3.3
X4.1256Y-3.3
X4.4799Y-3.3
X4.6768Y-3.3
X5.0311Y-3.3
X5.228Y-3.3
X5.5823Y-3.3
X5.7792Y-3.3
X10.1081Y-2.3751
X10.1081Y-2.572
X10.112Y-3.026
X10.112Y-3.2229
T6
X2.3391Y-2.15
X2.4391Y-2.15
X2.5391Y-2.15
X3.1451Y-2.152
X3.2451Y-2.152
X3.3451Y-2.152
X4.0391Y-2.154
X4.1391Y-2.154
X4.2391Y-2.154
X4.8811Y-2.154
X4.9811Y-2.154
X5.0811Y-2.154
X5.7291Y-2.158
X5.8291Y-2.158
X5.9291Y-2.158
X6.5991Y-2.16
X6.6991Y-2.16
X6.7991Y-2.16
X7.4851Y-2.162
X7.5851Y-2.162
X7.6851Y-2.162
X8.3771Y-2.162
X8.4771Y-2.162
X8.5771Y-2.162
X9.2211Y-2.166
X9.3211Y-2.166
X9.4211Y-2.166
T7
X1.464Y-3.771
X1.464Y-1.4088
X9.338Y-3.771
X9.338Y-1.4089
M30
