%TF.GenerationSoftware,KiCad,Pcbnew,9.0.4*%
%TF.CreationDate,2025-10-20T22:53:34-05:00*%
%TF.ProjectId,PCB,5043422e-6b69-4636-9164-5f7063625858,rev?*%
%TF.SameCoordinates,Original*%
%TF.FileFunction,Soldermask,Top*%
%TF.FilePolarity,Negative*%
%FSLAX46Y46*%
G04 Gerber Fmt 4.6, Leading zero omitted, Abs format (unit mm)*
G04 Created by KiCad (PCBNEW 9.0.4) date 2025-10-20 22:53:34*
%MOMM*%
%LPD*%
G01*
G04 APERTURE LIST*
%ADD10R,1.210000X1.700000*%
%ADD11C,1.800000*%
%ADD12R,2.000000X2.500000*%
%ADD13O,2.000000X2.500000*%
%ADD14C,2.000000*%
%ADD15R,1.700000X1.700000*%
%ADD16C,1.700000*%
%ADD17R,1.570000X1.570000*%
%ADD18C,1.570000*%
%ADD19C,1.520000*%
%ADD20R,1.700000X1.210000*%
G04 APERTURE END LIST*
D10*
%TO.C,R13*%
X247142000Y-101092000D03*
X250102000Y-101092000D03*
%TD*%
D11*
%TO.C,D9*%
X245476000Y-49682400D03*
X236776000Y-49682400D03*
%TD*%
%TO.C,D8*%
X224038400Y-49682400D03*
X215338400Y-49682400D03*
%TD*%
%TO.C,D7*%
X201400400Y-49479200D03*
X192700400Y-49479200D03*
%TD*%
%TO.C,D6*%
X179010800Y-49479200D03*
X170310800Y-49479200D03*
%TD*%
%TO.C,D5*%
X156830000Y-49580800D03*
X148130000Y-49580800D03*
%TD*%
%TO.C,D4*%
X135240000Y-49580800D03*
X126540000Y-49580800D03*
%TD*%
%TO.C,D3*%
X113986800Y-49479200D03*
X105286800Y-49479200D03*
%TD*%
%TO.C,D2*%
X91196400Y-49631600D03*
X82496400Y-49631600D03*
%TD*%
%TO.C,D1*%
X70603600Y-49530000D03*
X61903600Y-49530000D03*
%TD*%
D12*
%TO.C,Q1*%
X59414400Y-54610000D03*
D13*
X61954400Y-54610000D03*
X64494400Y-54610000D03*
%TD*%
D12*
%TO.C,Q9*%
X234217200Y-55016400D03*
D13*
X236757200Y-55016400D03*
X239297200Y-55016400D03*
%TD*%
D12*
%TO.C,Q5*%
X145520400Y-54813200D03*
D13*
X148060400Y-54813200D03*
X150600400Y-54813200D03*
%TD*%
D14*
%TO.C,Fuente*%
X256747000Y-65328800D03*
X256747000Y-60328800D03*
%TD*%
D15*
%TO.C,P9*%
X181508400Y-97180400D03*
D16*
X178968400Y-97180400D03*
%TD*%
D14*
%TO.C,P4*%
X85789600Y-83820200D03*
X90789600Y-83820200D03*
%TD*%
D17*
%TO.C,P7*%
X39817600Y-56590400D03*
D18*
X39817600Y-59130400D03*
X39817600Y-61670400D03*
%TD*%
D14*
%TO.C,P3*%
X71789200Y-83819800D03*
X76789200Y-83819800D03*
%TD*%
D10*
%TO.C,R2*%
X76977600Y-49530000D03*
X79937600Y-49530000D03*
%TD*%
D15*
%TO.C,P10*%
X168960800Y-97282000D03*
D16*
X171500800Y-97282000D03*
%TD*%
D19*
%TO.C,U1*%
X201117200Y-76860400D03*
X201117200Y-79400400D03*
X201117200Y-81940400D03*
X201117200Y-84480400D03*
X201117200Y-87020400D03*
X201117200Y-89560400D03*
X201117200Y-92100400D03*
X201117200Y-94640400D03*
%TD*%
D14*
%TO.C,5V*%
X256844800Y-81860400D03*
X256844800Y-76860400D03*
%TD*%
%TO.C,P1*%
X43789200Y-83819800D03*
X48789200Y-83819800D03*
%TD*%
D10*
%TO.C,R8*%
X209819600Y-49530000D03*
X212779600Y-49530000D03*
%TD*%
D14*
%TO.C,P2*%
X57788800Y-83820000D03*
X62788800Y-83820000D03*
%TD*%
D12*
%TO.C,Q7*%
X190122800Y-54914800D03*
D13*
X192662800Y-54914800D03*
X195202800Y-54914800D03*
%TD*%
D14*
%TO.C,Add5*%
X141790600Y-83819600D03*
X146790600Y-83819600D03*
%TD*%
D10*
%TO.C,R3*%
X99698800Y-49428400D03*
X102658800Y-49428400D03*
%TD*%
%TO.C,R10*%
X189622800Y-92405200D03*
X192582800Y-92405200D03*
%TD*%
D19*
%TO.C,U2*%
X218757400Y-94640200D03*
X218757400Y-92100200D03*
X218757400Y-89560200D03*
X218757400Y-87020200D03*
X218757400Y-84480200D03*
X218757400Y-81940200D03*
X218757400Y-79400200D03*
X218757400Y-76860200D03*
%TD*%
D10*
%TO.C,R9*%
X231308000Y-49530000D03*
X234268000Y-49530000D03*
%TD*%
D15*
%TO.C,R14*%
X162916000Y-74306600D03*
D16*
X162916000Y-76846600D03*
%TD*%
D17*
%TO.C,P12*%
X181915400Y-84927000D03*
D18*
X181915400Y-87467000D03*
X181915400Y-90007000D03*
%TD*%
D15*
%TO.C,P13*%
X162915600Y-89306400D03*
D16*
X162915600Y-86766400D03*
%TD*%
D17*
%TO.C,P6*%
X39817400Y-65670600D03*
D18*
X39817400Y-68210600D03*
X39817400Y-70750600D03*
%TD*%
D14*
%TO.C,Add12*%
X127790400Y-83819200D03*
X132790400Y-83819200D03*
%TD*%
D10*
%TO.C,R11*%
X189622800Y-97180400D03*
X192582800Y-97180400D03*
%TD*%
D15*
%TO.C,P11*%
X181915800Y-74306600D03*
D16*
X181915800Y-76846600D03*
%TD*%
D20*
%TO.C,R12*%
X249472000Y-94748800D03*
X249472000Y-91788800D03*
%TD*%
D12*
%TO.C,Q4*%
X123981200Y-54711600D03*
D13*
X126521200Y-54711600D03*
X129061200Y-54711600D03*
%TD*%
D10*
%TO.C,R5*%
X142611200Y-49479200D03*
X145571200Y-49479200D03*
%TD*%
D12*
%TO.C,Q8*%
X212779600Y-54914800D03*
D13*
X215319600Y-54914800D03*
X217859600Y-54914800D03*
%TD*%
D12*
%TO.C,Q3*%
X102594400Y-54711600D03*
D13*
X105134400Y-54711600D03*
X107674400Y-54711600D03*
%TD*%
D17*
%TO.C,Q10*%
X256895600Y-104394000D03*
D18*
X256895600Y-101854000D03*
X256895600Y-99314000D03*
X256895600Y-96774000D03*
X256895600Y-94234000D03*
%TD*%
D10*
%TO.C,R4*%
X121021200Y-49580800D03*
X123981200Y-49580800D03*
%TD*%
D14*
%TO.C,P5*%
X99789800Y-83819800D03*
X104789800Y-83819800D03*
%TD*%
D10*
%TO.C,R1*%
X56403600Y-49326800D03*
X59363600Y-49326800D03*
%TD*%
D12*
%TO.C,Q6*%
X167618400Y-54864000D03*
D13*
X170158400Y-54864000D03*
X172698400Y-54864000D03*
%TD*%
D10*
%TO.C,R6*%
X164722800Y-49530000D03*
X167682800Y-49530000D03*
%TD*%
D14*
%TO.C,Speaker*%
X113790000Y-83819400D03*
X118790000Y-83819400D03*
%TD*%
D10*
%TO.C,R7*%
X187125600Y-49428400D03*
X190085600Y-49428400D03*
%TD*%
D12*
%TO.C,Q2*%
X79886800Y-54660800D03*
D13*
X82426800Y-54660800D03*
X84966800Y-54660800D03*
%TD*%
D17*
%TO.C,P8*%
X39817400Y-47510400D03*
D18*
X39817400Y-50050400D03*
X39817400Y-52590400D03*
%TD*%
M02*
